<?xml version="1.0" encoding="UTF-8" standalone="no"?>
<svg
   xmlns:dc="http://purl.org/dc/elements/1.1/"
   xmlns:cc="http://creativecommons.org/ns#"
   xmlns:rdf="http://www.w3.org/1999/02/22-rdf-syntax-ns#"
   xmlns:svg="http://www.w3.org/2000/svg"
   xmlns="http://www.w3.org/2000/svg"
   xmlns:sodipodi="http://sodipodi.sourceforge.net/DTD/sodipodi-0.dtd"
   xmlns:inkscape="http://www.inkscape.org/namespaces/inkscape"
   enable-background="new 0 0 187.1 307.8"
   xml:space="preserve"
   viewBox="0 0 300 300"
   y="0"
   x="0"
   id="tree"
   version="1.1"
   inkscape:version="0.91 r13725"
   sodipodi:docname="tree.svg"><metadata
     id="metadata154"><rdf:RDF><cc:Work
         rdf:about=""><dc:format>image/svg+xml</dc:format><dc:type
           rdf:resource="http://purl.org/dc/dcmitype/StillImage" /><dc:title></dc:title></cc:Work></rdf:RDF></metadata><defs
     id="defs152" /><sodipodi:namedview
     pagecolor="#ffffff"
     bordercolor="#666666"
     borderopacity="1"
     objecttolerance="10"
     gridtolerance="10"
     guidetolerance="10"
     inkscape:pageopacity="0"
     inkscape:pageshadow="2"
     inkscape:window-width="1920"
     inkscape:window-height="1017"
     id="namedview150"
     showgrid="false"
     inkscape:zoom="2.2250293"
     inkscape:cx="125.56033"
     inkscape:cy="175.50988"
     inkscape:window-x="-9"
     inkscape:window-y="-9"
     inkscape:window-maximized="1"
     inkscape:current-layer="tree"
     showguides="false" /><style
     type="text/css"
     id="style3">    
	.st0{fill:#89B0E8;}
    .st1{fill:#ed9e49;}
    .st2{fill:#AFDB8D;}
    .st3{fill:#523F31;}
    .st4{fill:#FFFFFF;}
  @keyframes FillIn {
    from { fill-opacity: 0; }
    to { fill-opacity: 1; }
  }
  .animate {
    fill-opacity: 0;
    animation-timing-function: ease-in-out;
    animation-fill-mode: alternate;
    animation-name: FillIn;
    animation-duration: 0.5s, 0.12s, 0.12s;
    animation-delay: 0, 0.7s, 0.7s;
    animation-iteration-count: infinite;
  }
  .numFix{
    fill-opacity: 1!important;
    }
  .num{
    fill-opacity: 0;
    font-style:normal;
    font-weight:normal;
    font-size:40px;
    line-height:125%;
    font-family:sans-serif;
    letter-spacing:0px;
    word-spacing:0px;
    fill:#ffffff;
    stroke:none;
    stroke-width:1px;
    stroke-linecap:butt;
    stroke-linejoin:miter;
    stroke-opacity:1
  }
  .num:hover,.numHover{
    fill-opacity: 1;
    fill-opacity: 0;
    animation-timing-function: ease-in-out;
    animation-fill-mode: alternate;
    animation-name: FillIn;
    animation-duration: 0.5s, 0.12s, 0.12s;
    animation-delay: 0, 0.7s, 0.7s;
    animation-iteration-count: infinite;
    cursor:pointer;
  }
  .num tspan{
  font-style:italic;
  font-variant:normal;
  font-weight:bold;
  font-stretch:normal;
  font-size:13.75px;
  font-family:sans-serif;
  fill:#ffffff&quot;;
  }
    </style><g
     id="l13"
     transform="translate(20,40)"><path
       class="st0"
       d="m 20.8,106.1 c 0.5,-0.1 1,-0.1 1.5,0 0.2,0 0.8,0.2 1,0.3 0.3,0.1 0.5,0.2 0.6,0.3 1,0.6 1.8,1.2 1.8,1.2 0,0 -1.6,3.1 -4,3.5 -1,0.2 -2.2,0.1 -3.3,-0.3 -1.4,-0.6 -2.4,-1.4 -2.4,-1.4 0,0 0.7,-1.3 1.7,-2.1 0.9,-0.8 2,-1.4 3.1,-1.5 z"
       id="path8610"
       inkscape:connector-curvature="0"
       style="fill:#89b0e8" /><path
       class="st0"
       d="m 19.5,114.5 c 1.6,0.3 3.1,0.8 4.5,1.5 0.5,0.3 2.3,1.5 2.8,2 0.7,0.6 1.3,1.2 1.5,1.4 2.5,2.7 4.1,5.2 4.1,5.3 0,0.2 -7.8,7.8 -15.2,6.8 -3.1,-0.4 -6.6,-1.9 -9.4,-4.1 -3.8,-3.1 -5.9,-6.5 -6,-6.6 0,-0.1 3.3,-3.2 7.1,-4.8 3.4,-1.5 7.1,-2.2 10.6,-1.5 z"
       id="path8652"
       inkscape:connector-curvature="0"
       style="fill:#89b0e8" /><path
       class="st0"
       d="m 4.4,101.2 c 0.4,0.1 0.7,0.3 1,0.5 0.1,0.1 0.5,0.4 0.6,0.6 0.1,0.2 0.3,0.3 0.3,0.4 0.5,0.7 0.8,1.4 0.8,1.4 0,0 -2.1,1.6 -3.9,1.1 C 2.5,105 1.7,104.5 1.1,103.9 0.4,103 0,102.1 0,102.1 c 0,0 0.9,-0.7 1.9,-0.9 0.8,-0.2 1.7,-0.3 2.5,0 z"
       id="path8654"
       inkscape:connector-curvature="0"
       style="fill:#89b0e8" /></g><g
     id="l16"
     transform="translate(20,40)"><path
       class="st0"
       d="m 28.4,74.6 c 0.9,3.7 1,6.9 0.9,7 0,0 0,0 0,0 -0.3,0.1 -1.9,0.5 -4.1,0.8 -3.8,0.4 -9.4,0.3 -13.2,-2.6 -2.6,-2 -5.1,-5.2 -6.4,-8.7 -1.5,-4 -1.9,-7.6 -1.9,-8.7 0,-0.2 0,-0.4 0,-0.4 0.1,0 4.7,-1.2 9,-0.6 3.8,0.5 7.5,1.8 10.4,4.3 1.3,1.1 2.4,2.4 3.3,3.7 0.3,0.4 1,1.9 1.3,2.8 0.1,0.2 0.2,0.4 0.2,0.5 0.1,0.7 0.4,1.6 0.5,1.9 z"
       id="path8598"
       inkscape:connector-curvature="0"
       style="fill:#89b0e8" /><path
       class="st0"
       d="m 30.2,64.9 c 0.3,0.3 0.5,0.6 0.7,0.9 0.1,0.1 0.2,0.6 0.3,0.8 0,0.2 0.1,0.4 0.1,0.5 0.1,0.9 0.1,1.6 0,1.6 0,0 -2.6,0.4 -3.9,-0.8 -0.6,-0.5 -1,-1.3 -1.3,-2.1 -0.3,-1.1 -0.2,-2.1 -0.2,-2.1 0,0 1.1,-0.2 2.1,0.1 0.8,0.1 1.6,0.5 2.2,1.1 z"
       id="path8656"
       inkscape:connector-curvature="0"
       style="fill:#89b0e8" /></g><g
     id="l17"
     transform="translate(20,40)"><path
       class="st0"
       d="m 41.7,53.2 c -0.2,5.3 -1.2,9.6 -1.3,9.6 0,0 0,0 0,0 -0.4,0.1 -2.7,0 -5.8,-0.5 -2.3,-0.4 -5,-1 -7.6,-2 C 23.5,59 20.1,57 17.8,54 15,50.3 12.9,45.3 12.4,40 c -0.6,-5.8 0.2,-10.8 0.5,-12.4 0,0 0,0 0,0 0.1,-0.3 0.1,-0.5 0.1,-0.5 0.1,0 6.7,0 12.2,2.3 4.9,2 9.4,5.2 12.4,9.5 1,1.5 1.9,3.1 2.5,4.7 0.2,0.5 0.4,1 0.6,1.5 0.2,0.7 0.6,2.9 0.8,4.2 0,0.3 0.1,0.5 0.1,0.7 0.1,1.5 0.2,2.9 0.1,3.2 z"
       id="path8600"
       inkscape:connector-curvature="0"
       style="fill:#89b0e8" /><path
       class="st0"
       d="m 48.4,51.1 c -0.2,0.3 -0.4,0.7 -0.6,0.9 -0.1,0.1 -0.5,0.4 -0.6,0.5 -0.2,0.1 -0.4,0.2 -0.4,0.3 -0.8,0.4 -1.5,0.6 -1.5,0.6 0,0 -1.3,-2.3 -0.6,-4 0.3,-0.7 0.9,-1.4 1.6,-1.9 1,-0.7 1.9,-0.9 1.9,-0.9 0,0 0.5,1 0.6,2 0,0.8 -0.1,1.7 -0.4,2.5 z"
       id="path8658"
       inkscape:connector-curvature="0"
       style="fill:#89b0e8" /></g><g
     id="l15"
     transform="translate(20,40)"><path
       class="st0"
       d="m 52,62.1 c -0.2,0.7 -0.4,1.3 -0.7,1.8 -0.1,0.2 -0.7,0.9 -0.9,1.1 -0.3,0.3 -0.5,0.5 -0.6,0.6 -1.2,1 -2.3,1.6 -2.3,1.6 -0.1,0 -3.1,-3.4 -2.5,-6.5 0.2,-1.3 0.9,-2.7 1.9,-3.8 1.4,-1.5 2.8,-2.3 2.9,-2.3 0,0 1.3,1.4 1.9,3 0.5,1.5 0.7,3 0.3,4.5 z"
       id="path8622"
       inkscape:connector-curvature="0"
       style="fill:#89b0e8" /><path
       class="st0"
       d="m 54.4,78.5 c 1.1,1.6 2.1,3.3 2.7,5 0.2,0.7 0.7,3.3 0.8,4.1 0.1,1.1 0.1,2.2 0.1,2.5 0,4.4 -0.8,8 -0.8,8 -0.1,0.2 -13.3,0.3 -18.9,-6.7 -2.4,-3 -4.3,-7.1 -4.8,-11.4 -0.7,-5.8 0.2,-10.6 0.3,-10.7 0.1,0 5.6,-0.1 10.2,1.7 4.1,1.5 7.9,4 10.4,7.5 z"
       id="path8624"
       inkscape:connector-curvature="0"
       style="fill:#89b0e8" /><path
       class="st0"
       d="m 61.6,75.1 c 0.1,0.4 0.2,0.8 0.2,1.1 0,0.1 -0.1,0.7 -0.1,0.8 -0.1,0.2 -0.1,0.4 -0.1,0.5 -0.3,0.8 -0.7,1.4 -0.7,1.4 0,0 -2.5,-0.8 -3.1,-2.6 -0.2,-0.7 -0.3,-1.6 -0.1,-2.5 0.3,-1.1 0.8,-2 0.8,-2 0,0 1.1,0.4 1.8,1 0.5,0.7 1,1.5 1.3,2.3 z"
       id="path8662"
       inkscape:connector-curvature="0"
       style="fill:#89b0e8" /></g><g
     id="l12"
     transform="translate(20,40)"><path
       id="path8606"
       d="m 38.7,100.4 c 0.4,0.4 0.7,0.8 0.9,1.2 0.1,0.2 0.3,0.8 0.4,1 0.1,0.3 0.1,0.6 0.1,0.6 0.2,1.2 0.1,2.1 0.1,2.1 0,0 -3.5,0.6 -5.2,-1 -0.7,-0.7 -1.4,-1.7 -1.7,-2.8 -0.4,-1.5 -0.4,-2.8 -0.4,-2.8 0,0 1.4,-0.3 2.7,0 1.2,0.4 2.3,0.9 3.1,1.7 z"
       class="st0"
       inkscape:connector-curvature="0"
       style="fill:#89b0e8" /><path
       id="path8608"
       d="m 38.6,100.5 c 0.4,0.4 0.7,0.8 0.9,1.2 0.1,0.2 0.3,0.8 0.4,1 0.1,0.3 0.1,0.6 0.1,0.6 0.2,1.2 0.1,2.1 0.1,2.1 0,0 -3.5,0.6 -5.2,-1 -0.7,-0.7 -1.4,-1.7 -1.7,-2.8 -0.4,-1.5 -0.4,-2.8 -0.3,-2.8 0,0 1.4,-0.3 2.7,0 1.2,0.4 2.2,0.9 3,1.7 z"
       class="st0"
       inkscape:connector-curvature="0"
       style="fill:#89b0e8" /><path
       id="path8612"
       d="m 48.8,109.3 c 1.5,0.8 2.9,1.8 4,3 0.4,0.5 1.8,2.3 2.2,2.9 0.5,0.8 0.9,1.7 1,1.9 1.6,3.5 2.4,6.6 2.3,6.7 -0.1,0.2 -10.4,5.2 -17.5,1.8 -3,-1.5 -6.1,-4.1 -8.1,-7.3 -2.7,-4.4 -3.8,-8.5 -3.8,-8.6 0,0 4.4,-2.2 8.7,-2.5 3.9,-0.3 7.8,0.3 11.2,2.1 z"
       class="st0"
       inkscape:connector-curvature="0"
       style="fill:#89b0e8" /><path
       id="path8614"
       d="m 62,131.9 c 0.4,0.5 0.7,1 0.9,1.5 0.1,0.2 0.3,1 0.3,1.2 0,0.3 0.1,0.7 0.1,0.8 0,1.3 -0.1,2.4 -0.2,2.5 0,0 -4,0.3 -5.9,-1.8 -0.8,-0.9 -1.4,-2.1 -1.6,-3.4 -0.3,-1.8 -0.1,-3.2 0,-3.3 0,0 1.7,-0.1 3.1,0.4 1.3,0.3 2.5,1.1 3.3,2.1 z"
       class="st0"
       inkscape:connector-curvature="0"
       style="fill:#89b0e8" /><path
       id="path8668"
       d="m 56.6,104.3 c 0.5,0.5 0.9,0.9 1.2,1.5 0.1,0.2 0.4,1 0.5,1.3 0.1,0.3 0.2,0.7 0.2,0.8 0.2,1.4 0.2,2.6 0.2,2.7 0,0.1 -4.3,0.9 -6.5,-1.1 -1,-0.8 -1.8,-2.1 -2.2,-3.4 -0.6,-1.8 -0.6,-3.5 -0.5,-3.5 0,0 1.8,-0.4 3.4,-0.1 1.2,0.2 2.6,0.8 3.7,1.8 z"
       class="st0"
       inkscape:connector-curvature="0"
       style="fill:#89b0e8" /><path
       class="st0"
       d="m 56.6,104.1 c 0.5,0.5 0.9,0.9 1.2,1.5 0.1,0.2 0.4,1 0.5,1.3 0.1,0.3 0.2,0.7 0.2,0.8 0.2,1.4 0.2,2.6 0.2,2.7 0,0 -4.3,0.9 -6.5,-1.1 -0.9,-0.8 -1.8,-2.1 -2.2,-3.4 -0.6,-1.8 -0.6,-3.5 -0.5,-3.5 0,0 1.8,-0.4 3.4,-0.1 1.3,0.3 2.6,0.8 3.7,1.8 z"
       id="path8666"
       inkscape:connector-curvature="0"
       style="fill:#89b0e8" /></g><g
     id="l23"
     transform="translate(20,40)"><path
       class="st1"
       d="m 83.8,55.2 c 1.2,1.5 2.2,3.2 3,4.9 0.3,0.7 0.9,3.2 1,4 0.1,1.1 0.3,2.2 0.3,2.5 0.2,4.4 -0.3,8 -0.4,8.1 C 87.6,74.9 74.4,75.7 68.4,69 65.9,66.2 63.8,62.1 63,57.8 62,52 62.6,47.2 62.7,47.1 c 0.1,0 5.5,-0.4 10.3,1.1 4.2,1.4 8.1,3.7 10.8,7 z"
       id="path8646"
       inkscape:connector-curvature="0"
       style="fill:#ed9e49" /><path
       class="st1"
       d="m 59.4,61 c 0.1,0.4 0.2,0.8 0.2,1.1 0,0.1 -0.1,0.7 -0.1,0.8 -0.1,0.2 -0.1,0.4 -0.1,0.5 -0.3,0.8 -0.7,1.4 -0.7,1.4 0,0 -2.5,-0.8 -3.1,-2.6 -0.2,-0.7 -0.3,-1.6 -0.1,-2.5 0.3,-1.1 0.8,-2 0.8,-2 0,0 1.1,0.4 1.8,1 0.6,0.7 1.1,1.5 1.3,2.3 z"
       id="path8664"
       inkscape:connector-curvature="0"
       style="fill:#ed9e49" /><path
       class="st1"
       d="m 75.2,83 c 0.7,-1.3 0.9,-2.7 0.7,-4.2 -0.1,-1.6 -1,-3.2 -1,-3.3 0,0 -0.1,0 -0.2,0 -0.1,0 -1.6,0.4 -3.2,1.4 -1.2,0.8 -2.2,2 -2.7,3.1 -1.2,2.7 0.7,6.6 0.8,6.6 0,0 0.1,0 0.1,0 0,0 0,0 0,0 0,0 1.2,-0.3 2.5,-0.9 0.1,0 0.4,-0.2 0.7,-0.4 0.2,-0.1 0.9,-0.7 1.1,-0.8 0.6,-0.4 0.9,-0.9 1.2,-1.5 z"
       id="path8670"
       inkscape:connector-curvature="0"
       style="fill:#ed9e49" /></g><g
     id="l31"
     transform="translate(20,40)"><path
       style="fill:#afdb8d"
       class="st2"
       d="m 101.2,159.5 c -0.7,-1.8 -1.2,-3.7 -1.5,-5.5 -0.1,-0.7 0,-3.4 0.2,-4.2 0.2,-1.1 0.4,-2.1 0.4,-2.5 1.1,-4.3 2.6,-7.6 2.7,-7.6 0.2,-0.1 13,2.8 16.9,10.9 1.6,3.4 2.5,7.9 2,12.2 -0.7,5.8 -2.6,10.3 -2.8,10.4 -0.1,0 -5.4,-1.2 -9.5,-4 -3.6,-2.4 -6.7,-5.7 -8.4,-9.7 z"
       id="path8630"
       inkscape:connector-curvature="0" /><path
       style="fill:#afdb8d"
       class="st2"
       d="m 98.6,160.9 c 0.3,-1.4 0,-2.9 -0.6,-4.2 -0.6,-1.5 -1.9,-2.8 -1.9,-2.8 0,0 -0.1,0 -0.2,0.1 -0.1,0 -1.4,0.9 -2.6,2.3 -0.9,1.1 -1.5,2.5 -1.6,3.8 -0.4,2.9 2.7,6 2.7,6 0,0 0.1,0 0.1,-0.1 l 0,0 c 0,0 1,-0.6 2.1,-1.6 0.1,-0.1 0.3,-0.3 0.6,-0.6 0.2,-0.2 0.7,-0.9 0.8,-1.1 0.3,-0.5 0.5,-1.1 0.6,-1.8 z"
       id="path8678"
       inkscape:connector-curvature="0" /><path
       style="fill:#afdb8d"
       class="st2"
       d="m 130.5,155.7 c -1,-1 -2.4,-1.6 -3.8,-1.9 -1.6,-0.3 -3.4,0 -3.4,0 0,0 0,0.1 0,0.2 0,0.1 -0.1,1.7 0.4,3.5 0.4,1.4 1.2,2.6 2.2,3.5 2.2,2 6.5,1.3 6.5,1.2 0,0 0,-0.1 0,-0.1 l 0,0 c 0,0 0.1,-1.2 -0.1,-2.7 0,-0.1 -0.1,-0.5 -0.2,-0.8 -0.1,-0.3 -0.4,-1.1 -0.5,-1.3 -0.3,-0.6 -0.7,-1.1 -1.1,-1.6 z"
       id="path8682"
       inkscape:connector-curvature="0" /></g><g
     id="l34"
     transform="translate(20,40)"><path
       style="fill:#afdb8d"
       class="st2"
       d="m 119.6,116.7 c -2,-0.2 -3.8,-0.6 -5.6,-1.2 -0.7,-0.3 -3,-1.6 -3.6,-2.1 -0.9,-0.6 -1.7,-1.3 -2,-1.5 -3.3,-2.9 -5.6,-5.8 -5.5,-5.9 0,-0.2 8.5,-10.3 17.5,-9.9 3.8,0.1 8.2,1.4 11.8,3.9 4.9,3.3 7.9,7.1 7.9,7.2 0,0.1 -3.6,4.3 -7.9,6.6 -3.9,2 -8.3,3.3 -12.6,2.9 z"
       id="path8632"
       inkscape:connector-curvature="0" /><path
       style="fill:#afdb8d"
       class="st2"
       d="m 104.2,118.2 c 0.9,1.1 2.2,1.9 3.5,2.4 1.5,0.5 3.4,0.4 3.4,0.4 0,0 0,-0.1 0,-0.2 0.1,-0.1 0.3,-1.7 0,-3.5 -0.2,-1.4 -0.9,-2.8 -1.7,-3.7 -2,-2.2 -6.3,-2 -6.3,-2 0,0 0,0.1 0,0.1 l 0,0 c 0,0 -0.2,1.2 -0.2,2.7 0,0.1 0,0.5 0.1,0.8 0,0.3 0.2,1.1 0.3,1.3 0.2,0.6 0.5,1.2 0.9,1.7 z"
       id="path8686"
       inkscape:connector-curvature="0" /><path
       style="fill:#afdb8d"
       class="st2"
       d="m 127.5,93.6 c 1.4,-0.3 2.6,-1.1 3.6,-2.2 1.1,-1.2 1.8,-2.9 1.8,-2.9 0,0 -0.1,0 -0.1,-0.1 -0.1,-0.1 -1.4,-0.9 -3.2,-1.5 -1.4,-0.4 -2.9,-0.4 -4.1,0 -2.8,0.8 -4.5,4.8 -4.5,4.9 0,0 0,0 0.1,0.1 l 0,0 c 0,0 1,0.7 2.3,1.3 0.1,0 0.4,0.2 0.8,0.3 0.3,0.1 1.1,0.3 1.3,0.3 0.7,0 1.4,-0.1 2,-0.2 z"
       id="path8690"
       inkscape:connector-curvature="0" /></g><g
     id="l24"
     transform="translate(20,40)"><path
       class="st1"
       d="m 111.1,69.9 c -1.7,1.1 -3.4,1.9 -5.1,2.5 -0.7,0.2 -3.3,0.6 -4.1,0.6 -1.1,0 -2.2,0 -2.5,0 -4.4,-0.2 -8,-1.1 -8,-1.2 -0.2,-0.1 0.3,-13.3 7.5,-18.6 3.1,-2.3 7.3,-4 11.6,-4.3 5.8,-0.5 10.6,0.7 10.7,0.8 0,0.1 -0.1,5.6 -2.1,10.1 -1.8,4 -4.4,7.7 -8,10.1 z"
       id="path8644"
       inkscape:connector-curvature="0"
       style="fill:#ed9e49" /><path
       class="st1"
       d="M 89.8,49.3 C 89,48.1 87.9,47.2 86.5,46.6 85,45.9 83.2,45.8 83.2,45.8 c 0,0 0,0.1 -0.1,0.2 -0.1,0.1 -0.4,1.6 -0.3,3.5 0.1,1.4 0.6,2.9 1.3,3.9 1.7,2.4 6,2.7 6.1,2.6 0,0 0,-0.1 0.1,-0.1 l 0,0 c 0,0 0.3,-1.2 0.5,-2.6 0,-0.1 0,-0.5 0,-0.8 0,-0.3 -0.1,-1.1 -0.2,-1.4 -0.2,-0.7 -0.4,-1.3 -0.8,-1.8 z"
       id="path8672"
       inkscape:connector-curvature="0"
       style="fill:#ed9e49" /><path
       class="st1"
       d="m 131.5,59 c 1.3,-0.7 2.2,-1.8 2.9,-3.1 0.8,-1.4 1,-3.2 1,-3.3 0,0 -0.1,0 -0.2,-0.1 -0.1,-0.1 -1.6,-0.5 -3.5,-0.6 -1.4,0 -2.9,0.4 -4,1.1 -2.5,1.6 -3,5.9 -3,5.9 0,0 0.1,0 0.1,0.1 l 0,0 c 0,0 1.2,0.4 2.6,0.6 0.1,0 0.5,0 0.8,0.1 0.3,0 1.1,-0.1 1.4,-0.1 0.8,0 1.4,-0.3 1.9,-0.6 z"
       id="path8692"
       inkscape:connector-curvature="0"
       style="fill:#ed9e49" /></g><g
     id="l32"
     transform="translate(20,40)"><path
       style="fill:#afdb8d"
       class="st2"
       d="m 117.1,143.4 c -1.4,-1.4 -2.7,-2.8 -3.6,-4.4 -0.3,-0.6 -1.4,-3.1 -1.6,-3.9 -0.3,-1 -0.6,-2.1 -0.6,-2.4 -0.8,-4.3 -0.8,-8 -0.7,-8 0.1,-0.2 13,-2.8 19.9,3 2.9,2.4 5.5,6.2 6.9,10.3 1.8,5.6 1.8,10.5 1.8,10.6 -0.1,0 -5.4,1.2 -10.3,0.3 -4.5,-0.8 -8.7,-2.5 -11.8,-5.5 z"
       id="path8634"
       inkscape:connector-curvature="0" /><path
       style="fill:#afdb8d"
       class="st2"
       d="m 103.4,128.5 c -0.6,1.3 -0.7,2.8 -0.5,4.2 0.3,1.6 1.2,3.2 1.2,3.2 0,0 0.1,0 0.2,-0.1 0.1,0 1.6,-0.5 3.1,-1.7 1.2,-0.9 2,-2.1 2.5,-3.3 1.1,-2.8 -1.1,-6.5 -1.2,-6.5 0,0 -0.1,0 -0.1,0 l 0,0 c 0,0 -1.2,0.4 -2.4,1.1 -0.1,0.1 -0.4,0.2 -0.7,0.5 -0.2,0.2 -0.9,0.7 -1,0.9 -0.5,0.6 -0.8,1.1 -1.1,1.7 z"
       id="path8676"
       inkscape:connector-curvature="0" /><path
       style="fill:#afdb8d"
       class="st2"
       d="m 147.5,140.3 c -0.9,-1.1 -2.1,-1.9 -3.5,-2.4 -1.5,-0.5 -3.4,-0.5 -3.4,-0.5 0,0 0,0.1 0,0.2 -0.1,0.1 -0.3,1.7 0,3.5 0.2,1.4 0.9,2.8 1.7,3.7 1.9,2.2 6.3,2.1 6.3,2 0,0 0,-0.1 0,-0.1 l 0,0 c 0,0 0.2,-1.2 0.2,-2.7 0,-0.1 0,-0.5 -0.1,-0.8 0,-0.3 -0.2,-1.1 -0.3,-1.3 -0.2,-0.5 -0.6,-1.1 -0.9,-1.6 z"
       id="path8680"
       inkscape:connector-curvature="0" /><path
       style="fill:#afdb8d"
       class="st2"
       d="m 135.9,156 c 0.9,0.5 2,0.7 3,0.6 1.2,-0.1 2.4,-0.6 2.4,-0.7 0,0 0,-0.1 0,-0.1 0,-0.1 -0.3,-1.2 -1,-2.4 -0.6,-0.9 -1.4,-1.6 -2.2,-2 -1.9,-1 -4.8,0.4 -4.8,0.4 0,0 0,0 0,0.1 l 0,0 c 0,0 0.2,0.9 0.6,1.8 0,0.1 0.2,0.3 0.3,0.5 0.1,0.2 0.5,0.7 0.6,0.8 0.3,0.5 0.7,0.8 1.1,1 z"
       id="path8696"
       inkscape:connector-curvature="0" /></g><g
     id="l36"
     transform="translate(20,40)"><path
       style="fill:#afdb8d"
       class="st2"
       d="m 169.5,92.1 c -1.9,0.3 -3.9,0.3 -5.7,0.1 -0.7,-0.1 -3.3,-0.8 -4,-1.1 -1,-0.4 -2,-0.9 -2.3,-1 -3.9,-2.1 -6.8,-4.3 -6.8,-4.4 -0.1,-0.2 5.8,-12 14.6,-13.8 3.7,-0.8 8.3,-0.6 12.4,0.9 5.5,2 9.4,5 9.4,5.1 0,0.1 -2.4,5 -6.1,8.3 -3.3,3 -7.2,5.3 -11.5,5.9 z"
       id="path8640"
       inkscape:connector-curvature="0" /><path
       style="fill:#afdb8d"
       class="st2"
       d="m 143.2,89.5 c 1.1,-0.9 1.8,-2.2 2.3,-3.6 0.5,-1.6 0.4,-3.4 0.3,-3.4 0,0 -0.1,0 -0.2,0 -0.1,-0.1 -1.7,-0.2 -3.5,0.1 -1.4,0.3 -2.8,1 -3.7,1.8 -2.2,2 -1.9,6.3 -1.8,6.4 0,0 0.1,0 0.1,0 l 0,0 c 0,0 1.2,0.2 2.7,0.1 0.1,0 0.5,0 0.8,-0.1 0.3,0 1.1,-0.3 1.3,-0.4 0.7,-0.1 1.2,-0.4 1.7,-0.9 z"
       id="path8688"
       inkscape:connector-curvature="0" /><path
       style="fill:#afdb8d"
       class="st2"
       d="m 169.3,68.4 c 0.9,-0.4 1.6,-1 2.1,-1.8 0.6,-0.9 0.9,-2.1 0.9,-2.1 0,0 0,0 -0.1,-0.1 -0.1,-0.1 -1,-0.5 -2.2,-0.6 -0.9,-0.1 -1.9,0.1 -2.7,0.4 -1.8,0.8 -2.4,3.6 -2.4,3.7 0,0 0,0 0.1,0 l 0,0 c 0,0 0.7,0.4 1.7,0.6 0.1,0 0.3,0.1 0.5,0.1 0.2,0 0.7,0 0.9,0 0.4,0 0.8,-0.1 1.2,-0.2 z"
       id="path8702"
       inkscape:connector-curvature="0" /></g><g
     id="l27"
     transform="translate(20,40)"><path
       class="st1"
       d="m 106.7,26.5 c -0.7,2.3 -1.6,4.4 -2.8,6.3 -0.4,0.6 -1.8,2.3 -2.8,3.3 -0.2,0.2 -0.4,0.4 -0.5,0.5 -1,0.9 -2,1.8 -2.3,2 -0.1,0 -0.1,0.1 -0.2,0.2 -4.1,3.1 -7.9,5.1 -8,5 0,0 0,0 0,0 -0.3,-0.3 -1.7,-2.1 -3.3,-4.8 -2.7,-4.6 -5.9,-11.7 -4.3,-18.2 1,-4.5 3.6,-9.3 7.3,-13.1 4.1,-4.2 8.4,-6.7 9.9,-7.5 0,0 0,0 0,0 C 100,0 100.2,0 100.2,0 c 0.1,0 4.2,5.2 6,10.9 0.7,2.4 1.2,4.9 1.4,7.4 0.1,2.8 -0.2,5.5 -0.9,8.2 z"
       id="path8602"
       inkscape:connector-curvature="0"
       style="fill:#ed9e49" /><path
       class="st1"
       d="m 76.5,20.4 c -0.7,-0.6 -1.6,-1 -2.5,-1.2 -1.1,-0.2 -2.2,0.1 -2.2,0.1 0,0 0,0.1 0,0.1 0,0.1 0,1.1 0.4,2.3 0.3,0.9 0.9,1.7 1.5,2.3 1.5,1.3 4.3,0.7 4.3,0.6 0,0 0,0 0,-0.1 l 0,0 c 0,0 0,-0.8 -0.2,-1.8 0,-0.1 -0.1,-0.3 -0.1,-0.5 0,-0.2 -0.3,-0.7 -0.3,-0.8 -0.4,-0.4 -0.6,-0.7 -0.9,-1 z"
       id="path8704"
       inkscape:connector-curvature="0"
       style="fill:#ed9e49" /></g><g
     id="l37"
     transform="translate(20,40)"><path
       style="fill:#afdb8d"
       class="st2"
       d="m 164.4,60.3 c -0.4,1.3 -0.8,2.5 -1.3,3.8 0,0 0,0 0,0.1 -1.5,3.7 -3.7,7 -6.7,9.5 -1.8,1.5 -3.7,2.8 -5.8,3.8 -0.5,0.2 -1.9,0.6 -3.1,1 -0.4,0.1 -0.7,0.2 -1,0.3 -0.3,0.1 -0.5,0.1 -0.7,0.2 -1.3,0.2 -2.6,0.4 -3,0.4 -5.3,0.4 -9.7,-0.1 -9.7,-0.2 0,0 0,0 0,0 -0.1,-0.4 -0.3,-2.7 -0.2,-5.8 0.2,-5.3 1.5,-13 6.3,-17.6 3.3,-3.2 8.1,-5.9 13.3,-6.9 5.8,-1.2 10.8,-1 12.4,-0.9 0.3,0 0.5,0.1 0.6,0.1 -0.1,-0.2 0.6,6.4 -1.1,12.2 z"
       id="path8604"
       inkscape:connector-curvature="0" /><path
       style="fill:#afdb8d"
       class="st2"
       d="m 123.4,71.1 c 0.9,-0.2 1.8,-0.7 2.4,-1.4 0.8,-0.8 1.2,-1.9 1.2,-1.9 0,0 0,0 -0.1,-0.1 -0.1,-0.1 -0.9,-0.6 -2.1,-1 -0.9,-0.3 -1.9,-0.3 -2.7,-0.1 -1.9,0.5 -3,3.1 -3,3.2 0,0 0,0 0.1,0.1 l 0,0 c 0,0 0.6,0.5 1.5,0.9 0.1,0 0.3,0.1 0.5,0.2 0.2,0.1 0.7,0.2 0.9,0.2 0.5,0 0.9,-0.1 1.3,-0.1 z"
       id="path8698"
       inkscape:connector-curvature="0" /><path
       style="fill:#afdb8d"
       class="st2"
       d="m 146.5,47.1 c 0.6,-0.7 1,-1.6 1.2,-2.5 0.2,-1.1 -0.1,-2.2 -0.1,-2.2 0,0 -0.1,0 -0.1,0 -0.1,0 -1.1,0 -2.3,0.4 -0.9,0.3 -1.7,0.9 -2.2,1.5 -1.2,1.5 -0.7,4.3 -0.6,4.3 0,0 0,0 0.1,0 l 0,0 c 0,0 0.8,0 1.8,-0.2 0.1,0 0.3,-0.1 0.5,-0.1 0.2,-0.1 0.7,-0.3 0.8,-0.3 0.3,-0.3 0.6,-0.6 0.9,-0.9 z"
       id="path8706"
       inkscape:connector-curvature="0" /></g><g
     id="l33"
     transform="translate(20,40)"><path
       style="fill:#afdb8d"
       class="st2"
       d="m 142.7,134.6 c -1.8,-0.7 -3.6,-1.5 -5.1,-2.5 -0.6,-0.4 -2.5,-2.2 -3,-2.9 -0.7,-0.8 -1.4,-1.7 -1.6,-2 -2.5,-3.6 -4,-7 -3.9,-7 0,-0.2 10.7,-7.9 19.3,-5.5 3.7,1 7.6,3.3 10.5,6.6 3.9,4.3 6,8.8 6,8.9 0,0.1 -4.5,3.3 -9.3,4.5 -4.3,1.1 -8.8,1.3 -12.9,-0.1 z"
       id="path8636"
       inkscape:connector-curvature="0" /><path
       style="fill:#afdb8d"
       class="st2"
       d="m 165.5,115.9 c -1.3,-0.6 -2.8,-0.6 -4.2,-0.4 -1.6,0.3 -3.2,1.2 -3.2,1.2 0,0 0,0.1 0.1,0.2 0,0.1 0.6,1.6 1.7,3.1 0.9,1.1 2.1,2 3.3,2.4 2.8,1 6.5,-1.2 6.5,-1.3 0,0 0,-0.1 0,-0.1 l 0,0 c 0,0 -0.4,-1.2 -1.1,-2.4 -0.1,-0.1 -0.3,-0.4 -0.5,-0.7 -0.2,-0.2 -0.7,-0.9 -0.9,-1 -0.6,-0.4 -1.1,-0.7 -1.7,-1 z"
       id="path8684"
       inkscape:connector-curvature="0" /><path
       style="fill:#afdb8d"
       class="st2"
       d="m 151.7,142.4 c 0.7,0.6 1.7,0.9 2.6,1 1.1,0.1 2.2,-0.2 2.2,-0.2 0,0 0,-0.1 0,-0.1 0,-0.1 -0.1,-1.1 -0.5,-2.3 -0.4,-0.9 -1,-1.7 -1.7,-2.1 -1.6,-1.1 -4.3,-0.4 -4.4,-0.3 0,0 0,0 0,0.1 l 0,0 c 0,0 0,0.8 0.3,1.7 0,0.1 0.1,0.3 0.2,0.5 0.1,0.2 0.3,0.7 0.4,0.8 0.3,0.3 0.6,0.6 0.9,0.9 z"
       id="path8708"
       inkscape:connector-curvature="0" /></g><g
     id="l35"
     transform="translate(20,40)"><path
       style="fill:#afdb8d"
       class="st2"
       d="m 149.7,111.9 c -1.8,-0.7 -3.5,-1.6 -5,-2.8 -0.5,-0.5 -2.4,-2.3 -2.9,-3 -0.7,-0.8 -1.3,-1.8 -1.5,-2 -2.4,-3.7 -3.7,-7.1 -3.6,-7.2 0,-0.2 11,-7.5 19.5,-4.6 3.6,1.2 7.4,3.7 10.2,7 3.8,4.5 5.6,9 5.6,9.2 0,0.1 -4.6,3.1 -9.5,4.1 -4.3,0.9 -8.8,0.9 -12.8,-0.7 z"
       id="path8638"
       inkscape:connector-curvature="0" /><path
       style="fill:#afdb8d"
       class="st2"
       d="m 171,97.7 c 0.9,0.3 1.9,0.2 2.8,-0.1 1,-0.3 2,-1.1 2,-1.1 0,0 0,0 0,-0.1 0,-0.1 -0.5,-1 -1.4,-1.9 -0.7,-0.7 -1.6,-1.1 -2.4,-1.3 -1.9,-0.4 -4.1,1.3 -4.1,1.4 0,0 0,0 0,0.1 l 0,0 c 0,0 0.3,0.7 0.9,1.5 0,0.1 0.2,0.2 0.4,0.4 0.1,0.1 0.6,0.5 0.7,0.6 0.3,0.2 0.7,0.4 1.1,0.5 z"
       id="path8710"
       inkscape:connector-curvature="0" /></g><g
     id="l25"
     transform="translate(20,40)"><path
       class="st1"
       d="m 68.9,25.9 c 1.2,1.5 2.2,3.2 3,4.9 0.3,0.7 0.9,3.2 1,4 0.2,1.1 0.3,2.2 0.3,2.5 0.2,4.4 -0.3,8 -0.4,8.1 C 72.7,45.6 59.5,46.5 53.5,39.8 50.9,37 48.8,32.9 48.1,28.6 47.1,22.8 47.7,18 47.8,17.9 c 0.1,0 5.5,-0.4 10.3,1.1 4.2,1.2 8.1,3.5 10.8,6.9 z"
       id="path8648"
       inkscape:connector-curvature="0"
       style="fill:#ed9e49" /><path
       class="st1"
       d="m 81.3,41.3 c 0,-1.4 -0.6,-2.8 -1.4,-4 -0.9,-1.3 -2.4,-2.4 -2.4,-2.4 0,0 -0.1,0.1 -0.1,0.1 -0.1,0.1 -1.2,1.2 -2.1,2.8 -0.7,1.3 -0.9,2.8 -0.9,4 0.2,3 3.8,5.4 3.9,5.4 0,0 0.1,0 0.1,-0.1 l 0,0 c 0,0 0.9,-0.8 1.7,-2 0.1,-0.1 0.3,-0.4 0.4,-0.7 0.1,-0.2 0.5,-1 0.5,-1.3 0.3,-0.5 0.4,-1.2 0.3,-1.8 z"
       id="path8712"
       inkscape:connector-curvature="0"
       style="fill:#ed9e49" /></g><g
     id="l26"
     transform="translate(20,40)"><path
       class="st1"
       d="m 128.9,47.4 c -1.9,0.6 -3.7,1.1 -5.6,1.2 -0.7,0 -3.3,-0.2 -4.1,-0.4 -1,-0.2 -2.1,-0.5 -2.4,-0.6 -4.2,-1.3 -7.5,-3 -7.5,-3.1 -0.1,-0.2 3.5,-12.8 11.8,-16.3 3.5,-1.5 8,-2.1 12.3,-1.4 5.8,1 10.1,3.2 10.2,3.3 0,0.1 -1.5,5.4 -4.5,9.3 -2.7,3.6 -6.1,6.5 -10.2,8 z"
       id="path8642"
       inkscape:connector-curvature="0"
       style="fill:#ed9e49" /><path
       class="st1"
       d="m 115.5,26.3 c 0.6,-0.8 0.8,-1.7 0.9,-2.7 0.1,-1.1 -0.3,-2.2 -0.3,-2.2 0,0 -0.1,0 -0.1,0 -0.1,0 -1.1,0.1 -2.2,0.7 -0.9,0.4 -1.6,1.1 -2,1.8 -1.1,1.6 -0.1,4.4 -0.1,4.4 0,0 0,0 0.1,0 l 0,0 c 0,0 0.8,-0.1 1.7,-0.4 0.1,0 0.3,-0.1 0.5,-0.2 0.2,-0.1 0.7,-0.4 0.8,-0.4 0.2,-0.4 0.5,-0.7 0.7,-1 z"
       id="path8700"
       inkscape:connector-curvature="0"
       style="fill:#ed9e49" /><path
       class="st1"
       d="m 104.9,45.5 c 0.7,-1.2 0.9,-2.7 0.8,-4.2 -0.1,-1.6 -0.9,-3.3 -0.9,-3.3 0,0 -0.1,0 -0.2,0 -0.1,0 -1.6,0.4 -3.2,1.4 -1.2,0.8 -2.2,1.9 -2.7,3 -1.3,2.7 0.6,6.6 0.7,6.6 0,0 0.1,0 0.1,0 l 0,0 c 0,0 1.2,-0.3 2.5,-0.9 0.1,0 0.4,-0.2 0.7,-0.4 0.2,-0.1 0.9,-0.7 1.1,-0.8 0.4,-0.3 0.8,-0.8 1.1,-1.4 z"
       id="path8714"
       inkscape:connector-curvature="0"
       style="fill:#ed9e49" /></g><g
     id="l22"
     transform="translate(20,40)"><path
       class="st1"
       d="m 114.8,92.9 c -1.8,0.8 -3.6,1.4 -5.5,1.7 -0.7,0.1 -3.4,0.1 -4.2,0 -1.1,-0.1 -2.2,-0.3 -2.5,-0.4 -4.3,-0.9 -7.7,-2.3 -7.7,-2.4 -0.1,-0.2 2.3,-13.1 10.3,-17.3 3.4,-1.8 7.8,-2.8 12.2,-2.5 5.8,0.4 10.4,2.2 10.5,2.4 0,0.1 -1,5.5 -3.6,9.7 -2.4,3.7 -5.5,7 -9.5,8.8 z"
       id="path8628"
       inkscape:connector-curvature="0"
       style="fill:#ed9e49" /><path
       class="st1"
       d="m 99.8,97.1 c -0.5,-0.9 -1.4,-1.6 -2.3,-2.1 -1.1,-0.5 -2.4,-0.6 -2.4,-0.6 0,0 0,0.1 0,0.1 -0.1,0.1 -0.4,1.2 -0.3,2.5 0,1.1 0.4,2.1 0.9,2.9 1.2,1.8 4.4,2.1 4.4,2 0,0 0,0 0,-0.1 l 0,0 c 0,0 0.3,-0.9 0.4,-1.9 0,-0.1 0,-0.3 0,-0.6 0,-0.2 -0.1,-0.8 -0.1,-1 -0.1,-0.4 -0.3,-0.8 -0.6,-1.2 z"
       id="path8694"
       inkscape:connector-curvature="0"
       style="fill:#ed9e49" /><path
       class="st1"
       d="m 91.6,83.6 c 0.3,-1.4 0.1,-2.9 -0.4,-4.2 -0.6,-1.5 -1.8,-2.9 -1.8,-2.9 0,0 -0.1,0 -0.2,0.1 -0.1,0 -1.5,0.8 -2.7,2.2 -1,1.1 -1.6,2.4 -1.8,3.7 -0.5,2.9 2.4,6.1 2.5,6.2 0,0 0.1,0 0.1,-0.1 l 0,0 c 0,0 1.1,-0.6 2.2,-1.5 0.1,-0.1 0.3,-0.3 0.6,-0.6 0.2,-0.2 0.7,-0.9 0.8,-1.1 0.3,-0.6 0.5,-1.2 0.7,-1.8 z"
       id="path8716"
       inkscape:connector-curvature="0"
       style="fill:#ed9e49" /></g><g
     id="l21"
     transform="translate(20,40)"><path
       class="st1"
       d="m 91.2,102.6 c 0.1,2 -0.1,3.9 -0.5,5.7 -0.2,0.7 -1.2,3.1 -1.6,3.9 -0.5,0.9 -1.1,1.9 -1.3,2.2 -2.5,3.7 -5,6.3 -5.1,6.2 -0.2,0.1 -11.3,-7 -12.2,-16 -0.4,-3.8 0.3,-8.3 2.3,-12.2 2.6,-5.3 6,-8.8 6.1,-8.8 0.1,0 4.7,3 7.6,7 2.7,3.5 4.5,7.7 4.7,12 z"
       id="path8626"
       inkscape:connector-curvature="0"
       style="fill:#ed9e49" /><path
       class="st1"
       d="m 82.7,126.6 c -0.8,-1.2 -2,-2 -3.4,-2.6 -1.5,-0.6 -3.3,-0.6 -3.3,-0.6 0,0 0,0.1 0,0.2 -0.1,0.1 -0.4,1.7 -0.2,3.5 0.2,1.4 0.7,2.8 1.5,3.8 1.8,2.3 6.1,2.4 6.2,2.3 0,0 0,-0.1 0,-0.1 l 0,0 c 0,0 0.3,-1.2 0.3,-2.6 0,-0.1 0,-0.5 0,-0.8 0,-0.3 -0.2,-1.1 -0.2,-1.4 -0.3,-0.6 -0.6,-1.2 -0.9,-1.7 z"
       id="path8674"
       inkscape:connector-curvature="0"
       style="fill:#ed9e49" /><path
       class="st1"
       d="m 93.5,122.8 c 0.7,-1.2 1,-2.7 0.9,-4.2 -0.1,-1.6 -0.8,-3.3 -0.8,-3.3 0,0 -0.1,0 -0.2,0 -0.1,0 -1.7,0.4 -3.3,1.3 -1.2,0.7 -2.3,1.9 -2.8,3 -1.4,2.6 0.4,6.6 0.5,6.6 0,0 0.1,0 0.1,0 l 0,0 c 0,0 1.2,-0.2 2.5,-0.8 0.1,0 0.4,-0.2 0.7,-0.4 0.2,-0.1 0.9,-0.6 1.1,-0.8 0.6,-0.3 1,-0.8 1.3,-1.4 z"
       id="path8718"
       inkscape:connector-curvature="0"
       style="fill:#ed9e49" /></g><g
     id="tronco"
     transform="translate(20,40)"><path
       style="fill:#523f31"
       class="st3"
       d="M 84.5,164.5 C 81.6,147.8 72.7,133.4 68.1,117.3 65.9,109.5 65,101.5 64.6,93.4 c -0.1,-2.1 -0.2,-9 -0.5,-10.6 -0.3,-2.3 -0.8,-4.4 -1,-3.6 -0.2,0.7 -1.1,5.8 -1.2,6.4 -1.5,12.7 -2,25.2 0.9,37.9 3.7,16.5 9.8,28.6 11.7,45.5 1.9,17.1 -0.2,37.7 -1.7,54.5 -4.3,47.1 -13.6,80 -14.1,84.3 l 19.6,0 c 2.6,-16.8 12,-109.6 6.2,-143.3 z"
       id="path8720"
       inkscape:connector-curvature="0" /><path
       style="fill:#523f31"
       class="st3"
       d="M 100.5,114.7 C 99.3,109.8 97.3,105.1 94.1,101.1 94,101 94,101 93.9,100.9 c 0.8,2.1 1.3,4.2 1.7,6.4 1.3,7 2.3,13.7 0.9,20.8 -2.2,11 -9.7,20.5 -13.5,30.9 -4.1,11.2 0.7,22.9 -0.9,34.5 0.3,3.2 2.1,18.3 2.3,17.7 2.4,-8.4 1,-32.1 2.3,-40.1 1.5,-8.4 4.9,-15.5 8.8,-23 4.7,-9 7.2,-16.6 6,-26.8 -0.1,-2.2 -0.4,-4.4 -1,-6.6 z"
       id="path8722"
       inkscape:connector-curvature="0" /><path
       style="fill:#523f31"
       class="st3"
       d="m 68.4,147.6 c -4,-4.5 -7.5,-7.2 -12.9,-9.8 C 51,135.6 44.8,134.6 41,135 c 5.3,2.1 10.7,4.1 15.2,7.2 3.3,2.4 6,5.7 8.3,8.9 4.4,6.3 10,22.1 10.2,32.6 0,2.1 1.1,16.5 0.7,18 8.1,1.3 2.5,-37 1.5,-40.6 -1.5,-5.1 -4.1,-8.5 -8.5,-13.5 z"
       id="path8724"
       inkscape:connector-curvature="0" /></g><g
     id="l14"
     transform="translate(20,40)"><path
       class="st0"
       d="m 20.8,86.8 c 1.4,0.9 2.6,2 3.6,3.1 0.4,0.5 1.6,2.3 1.9,2.9 0.4,0.8 0.8,1.7 0.8,1.9 1.3,3.5 1.8,6.5 1.7,6.5 -0.1,0.2 -10.3,4.2 -16.8,0.4 -2.7,-1.6 -5.4,-4.3 -7.1,-7.5 -2.3,-4.3 -3,-8.3 -3,-8.5 0,0 4.3,-1.7 8.4,-1.7 3.8,0.1 7.5,0.9 10.5,2.9 z"
       id="path8650"
       inkscape:connector-curvature="0"
       style="fill:#89b0e8" /><path
       class="st0"
       d="m 4.9,77.1 c 0.3,0.3 0.5,0.6 0.7,0.9 0.1,0.1 0.2,0.6 0.3,0.8 0,0.2 0.1,0.4 0.1,0.5 0,0.8 0,1.6 0,1.6 0,0 -2.6,0.4 -3.9,-0.8 C 1.5,79.6 1.1,78.8 0.8,78 0.5,76.9 0.6,75.9 0.6,75.9 c 0,0 1.1,-0.2 2.1,0.1 0.8,0 1.6,0.4 2.2,1.1 z"
       id="path8660"
       inkscape:connector-curvature="0"
       style="fill:#89b0e8" /><path
       class="st0"
       d="m 33.2,88.1 c 0.4,0.3 0.8,0.7 1.1,1.1 0.1,0.2 0.5,0.8 0.6,1 0.1,0.3 0.2,0.5 0.2,0.6 0.4,1.1 0.5,2.1 0.4,2.2 0,0 -3.4,1.2 -5.5,-0.2 -0.9,-0.6 -1.7,-1.5 -2.2,-2.6 -0.7,-1.5 -0.8,-2.8 -0.8,-2.8 0,0 1.4,-0.5 2.8,-0.4 1.2,0.1 2.4,0.4 3.4,1.1 z"
       id="path8726"
       inkscape:connector-curvature="0"
       style="fill:#89b0e8" /></g><g
     id="l11"
     transform="translate(20,40)"><path
       class="st0"
       d="m 44.2,140.7 c 1.6,0 3.2,0.1 4.7,0.5 0.6,0.2 2.6,1 3.1,1.3 0.8,0.4 1.6,0.9 1.8,1 3,2 5.1,4.1 5.1,4.2 0,0.2 -5.8,9.2 -13.2,9.8 -3.1,0.3 -6.8,-0.3 -10,-2 -4.3,-2.1 -7.1,-5 -7.2,-5.1 0,-0.1 2.5,-3.8 5.8,-6.2 3,-1.9 6.4,-3.3 9.9,-3.5 z"
       id="path8616"
       inkscape:connector-curvature="0"
       style="fill:#89b0e8" /><path
       class="st0"
       d="m 29.8,155.5 c 0.7,0 1.4,0.1 2,0.3 0.2,0.1 1.1,0.5 1.3,0.6 0.3,0.2 0.6,0.4 0.7,0.5 1.2,1 2.1,1.9 2.1,1.9 0,0.1 -2.7,3.8 -5.9,3.8 -1.3,0 -2.9,-0.3 -4.2,-1.1 -1.8,-1 -2.9,-2.3 -2.9,-2.4 0,0 1.2,-1.6 2.6,-2.5 1.2,-0.7 2.7,-1.2 4.3,-1.1 z"
       id="path8618"
       inkscape:connector-curvature="0"
       style="fill:#89b0e8" /><path
       class="st0"
       d="m 35.3,131.8 c 0.6,0 1.2,0.1 1.7,0.3 0.2,0.1 0.9,0.4 1.1,0.5 0.3,0.2 0.6,0.4 0.6,0.4 1.1,0.8 1.8,1.6 1.8,1.7 0,0.1 -2.3,3.3 -5.1,3.4 -1.2,0 -2.5,-0.2 -3.7,-0.9 -1.5,-0.9 -2.6,-2 -2.6,-2 0,0 1,-1.4 2.2,-2.2 1.4,-0.8 2.7,-1.2 4,-1.2 z"
       id="path8620"
       inkscape:connector-curvature="0"
       style="fill:#89b0e8" /><path
       class="st0"
       d="m 24.2,138.5 c 0.7,0 1.4,0.1 2,0.3 0.3,0.1 1.1,0.5 1.4,0.6 0.3,0.2 0.6,0.4 0.7,0.5 1.3,0.9 2.1,1.9 2.1,1.9 0,0.1 -2.7,3.9 -5.9,4 -1.4,0.1 -2.9,-0.3 -4.3,-1 -1.8,-1 -3,-2.3 -3,-2.3 0,0 1.1,-1.6 2.6,-2.6 1.3,-0.8 2.8,-1.4 4.4,-1.4 z"
       id="path8728"
       inkscape:connector-curvature="0"
       style="fill:#89b0e8" /></g><path
     id="path8730"
     d="m 53.8,77.5 -1.5,-0.2 -0.1,0 c -0.2,-0.2 -0.3,-0.4 -0.5,-0.6 -0.6,-0.6 -1.4,-0.9 -2.3,-1 -2.3,-0.2 -4.3,1.4 -4.5,3.7 -0.1,0.7 -0.8,2 -1.4,2.6 0,0 -0.1,0 -0.1,0.1 0,0 -0.1,0 -0.1,0 L 42,81.8 c 0,0 -0.3,0 -0.4,0 -0.1,0 -0.2,0.1 0,0.2 0.3,0.3 0.6,0.5 0.9,0.7 0,0 0.1,0.1 0.1,0.1 0.2,0.1 0.4,0.3 0.6,0.4 0.5,0.3 1.1,0.5 1.5,0.6 2.8,0.7 4.6,-1 4.7,-1.1 0.1,-0.1 0.3,-0.1 0.5,0 0.1,0.1 0.1,0.3 0,0.4 0,0 -1.5,1.5 -3.9,1.5 -0.5,0 -1.1,-0.1 -1.8,-0.3 -0.7,-0.2 -1.5,-0.6 -2.4,-1.2 0,0 -0.1,-0.1 -0.2,-0.1 -0.1,0 -0.1,0 -0.2,0 0,0 -0.1,0 -0.2,0 -0.7,0.1 -1.5,-0.3 -1.6,0 -0.1,0.3 0.8,0.8 1.3,1.3 0.4,0.5 1,1 1.7,1.5 1,0.7 2.2,1.4 3.9,1.5 0,0 0.1,0 0.1,0 l 0,0.3 c -0.3,0.1 -0.5,0.3 -0.6,0.4 -0.2,0.1 -0.2,0.4 0,0.5 0.1,0.2 0.4,0.2 0.5,0 0,0 0.9,-0.8 2.1,0 0.1,0.1 0.2,0.1 0.2,0.1 0.1,0 0.2,0 0.3,-0.2 0.1,-0.2 0.1,-0.4 -0.1,-0.5 -0.3,-0.2 -0.6,-0.4 -0.9,-0.4 l 0,-0.4 c 5,-1.3 5,-6.9 5,-6.9 l 0,-0.3 c 0,-0.4 0,-0.5 -0.1,-0.9 l 1,-1 c 0.2,-0.2 0.1,-0.5 -0.2,-0.5 z m -3.3,1.6 c -0.3,0 -0.5,-0.3 -0.6,-0.5 l 0,0 c 0,-0.1 0,-0.1 0,-0.2 0,-0.4 0.4,-0.7 0.8,-0.6 0,0 0,0 0,0 0.3,0.1 0.6,0.4 0.6,0.7 -0.1,0.4 -0.4,0.7 -0.8,0.6 z"
     class="st4"
     inkscape:connector-curvature="0"
     style="fill:#ffffff" /><path
     id="path8732"
     d="m 121,51.8 -1.5,-0.2 -0.1,0 c -0.2,-0.2 -0.3,-0.4 -0.5,-0.6 -0.6,-0.6 -1.4,-0.9 -2.3,-1 -2.3,-0.2 -4.3,1.4 -4.5,3.7 -0.1,0.7 -0.8,2 -1.4,2.6 0,0 -0.1,0 -0.1,0.1 0,0 -0.1,0 -0.1,0 l -1.3,-0.2 c 0,0 -0.3,0 -0.4,0 -0.1,0 -0.2,0.1 0,0.2 0.3,0.3 0.6,0.5 0.9,0.7 0,0 0.1,0.1 0.1,0.1 0.2,0.1 0.4,0.3 0.6,0.4 0.5,0.3 1.1,0.5 1.5,0.6 2.8,0.7 4.6,-1 4.7,-1.1 0.1,-0.1 0.3,-0.1 0.5,0 0.1,0.1 0.1,0.3 0,0.4 0,0 -1.5,1.5 -3.9,1.5 -0.5,0 -1.1,-0.1 -1.8,-0.3 -0.7,-0.2 -1.5,-0.6 -2.4,-1.2 0,0 -0.1,-0.1 -0.2,-0.1 -0.1,0 -0.1,0 -0.2,0 0,0 -0.1,0 -0.2,0 -0.7,0.1 -1.5,-0.3 -1.6,0 -0.1,0.3 0.8,0.8 1.3,1.3 0.4,0.5 1,1 1.7,1.5 1,0.7 2.2,1.4 3.9,1.5 0,0 0.1,0 0.1,0 l 0,0.3 c -0.3,0.1 -0.5,0.3 -0.6,0.4 -0.2,0.1 -0.2,0.4 0,0.5 0.1,0.2 0.4,0.2 0.5,0 0,0 0.9,-0.8 2.1,0 0.1,0.1 0.2,0.1 0.2,0.1 0.1,0 0.2,0 0.3,-0.2 0.1,-0.2 0.1,-0.4 -0.1,-0.5 -0.3,-0.2 -0.6,-0.4 -0.9,-0.4 l 0,-0.4 c 5,-1.3 5,-6.9 5,-6.9 l 0,-0.3 c 0,-0.4 0,-0.5 -0.1,-0.9 l 0.9,-1.1 c 0.2,-0.3 0.1,-0.5 -0.1,-0.5 z m -3.4,1.6 c -0.3,0 -0.5,-0.3 -0.6,-0.5 l 0,0 c 0,-0.1 0,-0.1 0,-0.2 0,-0.4 0.4,-0.7 0.8,-0.6 0,0 0,0 0,0 0.3,0.1 0.6,0.4 0.6,0.7 0,0.4 -0.4,0.6 -0.8,0.6 z"
     class="st4"
     inkscape:connector-curvature="0"
     style="fill:#ffffff" /><path
     id="path8734"
     d="m 174.2,95.3 -1.5,-0.2 -0.1,0 c -0.2,-0.2 -0.3,-0.4 -0.5,-0.6 -0.6,-0.6 -1.4,-0.9 -2.3,-1 -2.3,-0.2 -4.3,1.4 -4.5,3.7 -0.1,0.7 -0.8,2 -1.4,2.6 0,0 -0.1,0 -0.1,0.1 0,0 -0.1,0 -0.1,0 l -1.3,-0.2 c 0,0 -0.3,0 -0.4,0 -0.1,0 -0.2,0.1 0,0.2 0.3,0.3 0.6,0.5 0.9,0.7 0,0 0.1,0.1 0.1,0.1 0.2,0.1 0.4,0.3 0.6,0.4 0.5,0.3 1.1,0.5 1.5,0.6 2.8,0.7 4.6,-1 4.7,-1.1 0.1,-0.1 0.3,-0.1 0.5,0 0.1,0.1 0.1,0.3 0,0.4 0,0 -1.5,1.5 -3.9,1.5 -0.5,0 -1.1,-0.1 -1.8,-0.3 -0.7,-0.2 -1.5,-0.6 -2.4,-1.2 0,0 -0.1,-0.1 -0.2,-0.1 -0.1,0 -0.1,0 -0.2,0 0,0 -0.1,0 -0.2,0 -0.7,0.1 -1.5,-0.3 -1.6,0 -0.1,0.3 0.8,0.8 1.3,1.3 0.4,0.5 1,1 1.7,1.5 1,0.7 2.2,1.4 3.9,1.5 0,0 0.1,0 0.1,0 l 0,0.3 c -0.3,0.1 -0.5,0.3 -0.6,0.4 -0.2,0.1 -0.2,0.4 0,0.5 0.1,0.2 0.4,0.2 0.5,0 0,0 0.9,-0.8 2.1,0 0.1,0.1 0.2,0.1 0.2,0.1 0.1,0 0.2,0 0.3,-0.2 0.1,-0.2 0.1,-0.4 -0.1,-0.5 -0.3,-0.2 -0.6,-0.4 -0.9,-0.4 l 0,-0.4 c 5,-1.3 5,-6.9 5,-6.9 l 0,-0.3 c 0,-0.4 0,-0.5 -0.1,-0.9 l 0.9,-1.1 c 0.3,-0.3 0.2,-0.5 -0.1,-0.5 z m -3.3,1.6 c -0.3,0 -0.5,-0.3 -0.6,-0.5 l 0,0 c 0,-0.1 0,-0.1 0,-0.2 0,-0.4 0.4,-0.7 0.8,-0.6 0,0 0,0 0,0 0.3,0.1 0.6,0.4 0.6,0.7 -0.1,0.4 -0.4,0.7 -0.8,0.6 z"
     class="st4"
     inkscape:connector-curvature="0"
     style="fill:#ffffff" /><text
     x="32.179775"
     y="167.17743"
     id="num13"
     xml:space="preserve"
     class="num"
     sodipodi:linespacing="125%"
     style="font-style:normal;font-weight:normal;font-size:40px;line-height:125%;font-family:sans-serif;letter-spacing:0px;word-spacing:0px;fill:#ffffff;fill-opacity:0;stroke:none;stroke-width:1px;stroke-linecap:butt;stroke-linejoin:miter;stroke-opacity:1"><tspan
       x="32.179775"
       y="167.17743"
       id="tspan97">3</tspan></text>
<text
     xml:space="preserve"
     x="59.11145"
     y="160.94096"
     id="num12"
     class="num"
     sodipodi:linespacing="125%"
     style="font-style:normal;font-weight:normal;font-size:40px;line-height:125%;font-family:sans-serif;letter-spacing:0px;word-spacing:0px;fill:#ffffff;fill-opacity:0;stroke:none;stroke-width:1px;stroke-linecap:butt;stroke-linejoin:miter;stroke-opacity:1"><tspan
       x="59.11145"
       y="160.94096"
       id="tspan100">2</tspan></text>
<text
     xml:space="preserve"
     x="30.684856"
     y="138.13226"
     id="num14"
     class="num"
     sodipodi:linespacing="125%"
     style="font-style:normal;font-weight:normal;font-size:40px;line-height:125%;font-family:sans-serif;letter-spacing:0px;word-spacing:0px;fill:#ffffff;fill-opacity:0;stroke:none;stroke-width:1px;stroke-linecap:butt;stroke-linejoin:miter;stroke-opacity:1"><tspan
       x="30.684856"
       y="138.13226"
       id="tspan103">4</tspan></text>
<text
     xml:space="preserve"
     x="61.695679"
     y="128.80655"
     id="num15"
     class="num"
     sodipodi:linespacing="125%"
     style="font-style:normal;font-weight:normal;font-size:40px;line-height:125%;font-family:sans-serif;letter-spacing:0px;word-spacing:0px;fill:#ffffff;fill-opacity:0;stroke:none;stroke-width:1px;stroke-linecap:butt;stroke-linejoin:miter;stroke-opacity:1"><tspan
       x="61.695679"
       y="128.80655"
       id="tspan106">5</tspan></text>
<text
     xml:space="preserve"
     x="31.583721"
     y="117.1213"
     id="num16"
     class="num"
     sodipodi:linespacing="125%"
     style="font-style:normal;font-weight:normal;font-size:40px;line-height:125%;font-family:sans-serif;letter-spacing:0px;word-spacing:0px;fill:#ffffff;fill-opacity:0;stroke:none;stroke-width:1px;stroke-linecap:butt;stroke-linejoin:miter;stroke-opacity:1"><tspan
       x="31.583721"
       y="117.1213"
       id="tspan109">6</tspan></text>
<text
     xml:space="preserve"
     x="59.397926"
     y="193.74071"
     id="num11"
     class="num"
     sodipodi:linespacing="125%"
     style="font-style:normal;font-weight:normal;font-size:40px;line-height:125%;font-family:sans-serif;letter-spacing:0px;word-spacing:0px;fill:#ffffff;fill-opacity:0;stroke:none;stroke-width:1px;stroke-linecap:butt;stroke-linejoin:miter;stroke-opacity:1"><tspan
       x="59.397926"
       y="193.74071"
       id="tspan112">1</tspan></text>
<text
     xml:space="preserve"
     x="95.62674"
     y="147.18352"
     id="num21"
     class="num"
     sodipodi:linespacing="125%"
     style="font-style:normal;font-weight:normal;font-size:40px;line-height:125%;font-family:sans-serif;letter-spacing:0px;word-spacing:0px;fill:#ffffff;fill-opacity:0;stroke:none;stroke-width:1px;stroke-linecap:butt;stroke-linejoin:miter;stroke-opacity:1"><tspan
       x="95.62674"
       y="147.18352"
       id="tspan115">1</tspan></text>
<text
     xml:space="preserve"
     x="125.77267"
     y="127.56404"
     id="num22"
     class="num"
     sodipodi:linespacing="125%"
     style="font-style:normal;font-weight:normal;font-size:40px;line-height:125%;font-family:sans-serif;letter-spacing:0px;word-spacing:0px;fill:#ffffff;fill-opacity:0;stroke:none;stroke-width:1px;stroke-linecap:butt;stroke-linejoin:miter;stroke-opacity:1"><tspan
       x="125.77267"
       y="127.56404"
       id="tspan118">2</tspan></text>
<text
     xml:space="preserve"
     x="90.15258"
     y="105.85317"
     id="num23"
     class="num"
     sodipodi:linespacing="125%"
     style="font-style:normal;font-weight:normal;font-size:40px;line-height:125%;font-family:sans-serif;letter-spacing:0px;word-spacing:0px;fill:#ffffff;fill-opacity:0;stroke:none;stroke-width:1px;stroke-linecap:butt;stroke-linejoin:miter;stroke-opacity:1"><tspan
       x="90.15258"
       y="105.85317"
       id="tspan121">3</tspan></text>
<text
     xml:space="preserve"
     x="121.0527"
     y="104.73081"
     id="num24"
     class="num"
     sodipodi:linespacing="125%"
     style="font-style:normal;font-weight:normal;font-size:40px;line-height:125%;font-family:sans-serif;letter-spacing:0px;word-spacing:0px;fill:#ffffff;fill-opacity:0;stroke:none;stroke-width:1px;stroke-linecap:butt;stroke-linejoin:miter;stroke-opacity:1"><tspan
       x="121.0527"
       y="104.73081"
       id="tspan124">4</tspan></text>
<text
     xml:space="preserve"
     x="76.161713"
     y="76.515167"
     id="num25"
     class="num"
     sodipodi:linespacing="125%"
     style="font-style:normal;font-weight:normal;font-size:40px;line-height:125%;font-family:sans-serif;letter-spacing:0px;word-spacing:0px;fill:#ffffff;fill-opacity:0;stroke:none;stroke-width:1px;stroke-linecap:butt;stroke-linejoin:miter;stroke-opacity:1"><tspan
       x="76.161713"
       y="76.515167"
       id="tspan127">5</tspan></text>
<text
     xml:space="preserve"
     x="140.74156"
     y="82.167252"
     id="num26"
     class="num"
     sodipodi:linespacing="125%"
     style="font-style:normal;font-weight:normal;font-size:40px;line-height:125%;font-family:sans-serif;letter-spacing:0px;word-spacing:0px;fill:#ffffff;fill-opacity:0;stroke:none;stroke-width:1px;stroke-linecap:butt;stroke-linejoin:miter;stroke-opacity:1"><tspan
       x="140.74156"
       y="82.167252"
       id="tspan130">6</tspan></text>
<text
     xml:space="preserve"
     x="126.29411"
     y="200.57335"
     id="num31"
     class="num"
     sodipodi:linespacing="125%"
     style="font-style:normal;font-weight:normal;font-size:40px;line-height:125%;font-family:sans-serif;letter-spacing:0px;word-spacing:0px;fill:#ffffff;fill-opacity:0;stroke:none;stroke-width:1px;stroke-linecap:butt;stroke-linejoin:miter;stroke-opacity:1"><tspan
       x="126.29411"
       y="200.57335"
       id="tspan133">1</tspan></text>
<text
     xml:space="preserve"
     x="139.59682"
     y="180.47719"
     id="num32"
     class="num"
     sodipodi:linespacing="125%"
     style="font-style:normal;font-weight:normal;font-size:40px;line-height:125%;font-family:sans-serif;letter-spacing:0px;word-spacing:0px;fill:#ffffff;fill-opacity:0;stroke:none;stroke-width:1px;stroke-linecap:butt;stroke-linejoin:miter;stroke-opacity:1"><tspan
       x="139.59682"
       y="180.47719"
       id="tspan136">2</tspan></text>
<text
     xml:space="preserve"
     x="161.81572"
     y="169.88919"
     id="num33"
     class="num"
     sodipodi:linespacing="125%"
     style="font-style:normal;font-weight:normal;font-size:40px;line-height:125%;font-family:sans-serif;letter-spacing:0px;word-spacing:0px;fill:#ffffff;fill-opacity:0;stroke:none;stroke-width:1px;stroke-linecap:butt;stroke-linejoin:miter;stroke-opacity:1"><tspan
       x="161.81572"
       y="169.88919"
       id="tspan139">3</tspan></text>
<text
     xml:space="preserve"
     x="135.83026"
     y="150.49353"
     id="num34"
     class="num"
     sodipodi:linespacing="125%"
     style="font-style:normal;font-weight:normal;font-size:40px;line-height:125%;font-family:sans-serif;letter-spacing:0px;word-spacing:0px;fill:#ffffff;fill-opacity:0;stroke:none;stroke-width:1px;stroke-linecap:butt;stroke-linejoin:miter;stroke-opacity:1"><tspan
       x="135.83026"
       y="150.49353"
       id="tspan142">4</tspan></text>
<text
     xml:space="preserve"
     x="169.43503"
     y="146.74823"
     id="num35"
     class="num"
     sodipodi:linespacing="125%"
     style="font-style:normal;font-weight:normal;font-size:40px;line-height:125%;font-family:sans-serif;letter-spacing:0px;word-spacing:0px;fill:#ffffff;fill-opacity:0;stroke:none;stroke-width:1px;stroke-linecap:butt;stroke-linejoin:miter;stroke-opacity:1"><tspan
       x="169.43503"
       y="146.74823"
       id="tspan145">5</tspan></text>
<text
     xml:space="preserve"
     x="183.32631"
     y="126.02318"
     id="num36"
     class="num"
     sodipodi:linespacing="125%"
     style="font-style:normal;font-weight:normal;font-size:40px;line-height:125%;font-family:sans-serif;letter-spacing:0px;word-spacing:0px;fill:#ffffff;fill-opacity:0;stroke:none;stroke-width:1px;stroke-linecap:butt;stroke-linejoin:miter;stroke-opacity:1"><tspan
       x="183.32631"
       y="126.02318"
       id="tspan148">6</tspan></text>
<text
     xml:space="preserve"
     style="font-style:normal;font-weight:normal;font-size:40px;line-height:125%;font-family:sans-serif;letter-spacing:0px;word-spacing:0px;fill:#89b0e8;fill-opacity:1;stroke:none;stroke-width:1px;stroke-linecap:butt;stroke-linejoin:miter;stroke-opacity:1"
     x="72.060043"
     y="21.037228"
     id="text3482"
     sodipodi:linespacing="125%"><tspan
       sodipodi:role="line"
       id="tspan3484"
       x="72.060043"
       y="21.037228"
       style="font-style:normal;font-variant:normal;font-weight:bold;font-stretch:normal;font-size:11.25px;font-family:sans-serif;-inkscape-font-specification:'sans-serif Bold';fill:#89b0e8;fill-opacity:1">MAPA DO CURSO</tspan></text>
<text
     xml:space="preserve"
     style="font-style:normal;font-weight:normal;font-size:40px;line-height:125%;font-family:sans-serif;letter-spacing:0px;word-spacing:0px;fill:#ed9e49;fill-opacity:1;stroke:none;stroke-width:1px;stroke-linecap:butt;stroke-linejoin:miter;stroke-opacity:1"
     x="99.699806"
     y="38.000957"
     id="text3482-0"
     sodipodi:linespacing="125%"><tspan
       sodipodi:role="line"
       id="tspan3484-8"
       x="99.699806"
       y="38.000957"
       style="font-style:normal;font-variant:normal;font-weight:bold;font-stretch:normal;font-size:7.5px;font-family:sans-serif;-inkscape-font-specification:'sans-serif Bold';fill:#ed9e49;fill-opacity:1">MÓDULO 2</tspan></text>
<text
     xml:space="preserve"
     style="font-style:normal;font-weight:normal;font-size:40px;line-height:125%;font-family:sans-serif;letter-spacing:0px;word-spacing:0px;fill:#afdb8d;fill-opacity:1;stroke:none;stroke-width:1px;stroke-linecap:butt;stroke-linejoin:miter;stroke-opacity:1"
     x="174.84924"
     y="84.167244"
     id="text3482-0-1"
     sodipodi:linespacing="125%"><tspan
       sodipodi:role="line"
       id="tspan3484-8-9"
       x="174.84924"
       y="84.167244"
       style="font-style:normal;font-variant:normal;font-weight:bold;font-stretch:normal;font-size:7.5px;font-family:sans-serif;-inkscape-font-specification:'sans-serif Bold';fill:#afdb8d;fill-opacity:1">MÓDULO 3</tspan></text>
<text
     xml:space="preserve"
     style="font-style:normal;font-weight:normal;font-size:40px;line-height:125%;font-family:sans-serif;letter-spacing:0px;word-spacing:0px;fill:#89b0e8;fill-opacity:1;stroke:none;stroke-width:1px;stroke-linecap:butt;stroke-linejoin:miter;stroke-opacity:1"
     x="14.593855"
     y="63.692909"
     id="text3482-0-3"
     sodipodi:linespacing="125%"><tspan
       sodipodi:role="line"
       id="tspan3484-8-7"
       x="14.593855"
       y="63.692909"
       style="font-style:normal;font-variant:normal;font-weight:bold;font-stretch:normal;font-size:7.5px;font-family:sans-serif;-inkscape-font-specification:'sans-serif Bold';fill:#89b0e8;fill-opacity:1">MÓDULO 1</tspan></text>
</svg>