<?xml version="1.0" encoding="UTF-8" standalone="no"?>
<svg
   xmlns="http://www.w3.org/2000/svg"
   enable-background="new 0 0 187.1 307.8"
   xml:space="preserve"
   viewBox="0 0 300 300"
   y="0"
   x="0"
   id="tree">
    <style type="text/css">    
	.st0{fill:#89B0E8;}
    .st1{fill:#ed9e49;}
    .st2{fill:#AFDB8D;}
    .st3{fill:#523F31;}
    .st4{fill:#FFFFFF;}
  @keyframes FillIn {
    from { fill-opacity: 0; }
    to { fill-opacity: 1; }
  }
  .animate {
    fill-opacity: 0;
    animation-timing-function: ease-in-out;
    animation-fill-mode: alternate;
    animation-name: FillIn;
    animation-duration: 0.5s, 0.12s, 0.12s;
    animation-delay: 0, 0.7s, 0.7s;
    animation-iteration-count: infinite;
  }
  .numFix{
    fill-opacity: 1!important;
    }
  .num{
    fill-opacity: 0;
    font-style:normal;
    font-weight:normal;
    font-size:40px;
    line-height:125%;
    font-family:sans-serif;
    letter-spacing:0px;
    word-spacing:0px;
    fill:#ffffff;
    stroke:none;
    stroke-width:1px;
    stroke-linecap:butt;
    stroke-linejoin:miter;
    stroke-opacity:1
  }
  .num:hover,.numHover{
    fill-opacity: 1;
    fill-opacity: 0;
    animation-timing-function: ease-in-out;
    animation-fill-mode: alternate;
    animation-name: FillIn;
    animation-duration: 0.5s, 0.12s, 0.12s;
    animation-delay: 0, 0.7s, 0.7s;
    animation-iteration-count: infinite;
    cursor:pointer;
  }
  .num tspan{
  font-style:italic;
  font-variant:normal;
  font-weight:bold;
  font-stretch:normal;
  font-size:13.75px;
  font-family:sans-serif;
  fill:#ffffff";
  }
    </style>
    <g id="l13">
        <path class="st0" d="m 20.8,106.1 c 0.5,-0.1 1,-0.1 1.5,0 0.2,0 0.8,0.2 1,0.3 0.3,0.1 0.5,0.2 0.6,0.3 1,0.6 1.8,1.2 1.8,1.2 0,0 -1.6,3.1 -4,3.5 -1,0.2 -2.2,0.1 -3.3,-0.3 -1.4,-0.6 -2.4,-1.4 -2.4,-1.4 0,0 0.7,-1.3 1.7,-2.1 0.9,-0.8 2,-1.4 3.1,-1.5 z" id="path8610" />
        <path class="st0"
         d="m 19.5,114.5 c 1.6,0.3 3.1,0.8 4.5,1.5 0.5,0.3 2.3,1.5 2.8,2 0.7,0.6 1.3,1.2 1.5,1.4 2.5,2.7 4.1,5.2 4.1,5.3 0,0.2 -7.8,7.8 -15.2,6.8 -3.1,-0.4 -6.6,-1.9 -9.4,-4.1 -3.8,-3.1 -5.9,-6.5 -6,-6.6 0,-0.1 3.3,-3.2 7.1,-4.8 3.4,-1.5 7.1,-2.2 10.6,-1.5 z" 
         id="path8652" />
        <path class="st0"
         d="m 4.4,101.2 c 0.4,0.1 0.7,0.3 1,0.5 0.1,0.1 0.5,0.4 0.6,0.6 0.1,0.2 0.3,0.3 0.3,0.4 0.5,0.7 0.8,1.4 0.8,1.4 0,0 -2.1,1.6 -3.9,1.1 C 2.5,105 1.7,104.5 1.1,103.9 0.4,103 0,102.1 0,102.1 c 0,0 0.9,-0.7 1.9,-0.9 0.8,-0.2 1.7,-0.3 2.5,0 z"
         id="path8654" />
    </g>
    <g id="l16">
        <path class="st0"
         d="m 28.4,74.6 c 0.9,3.7 1,6.9 0.9,7 0,0 0,0 0,0 -0.3,0.1 -1.9,0.5 -4.1,0.8 -3.8,0.4 -9.4,0.3 -13.2,-2.6 -2.6,-2 -5.1,-5.2 -6.4,-8.7 -1.5,-4 -1.9,-7.6 -1.9,-8.7 0,-0.2 0,-0.4 0,-0.4 0.1,0 4.7,-1.2 9,-0.6 3.8,0.5 7.5,1.8 10.4,4.3 1.3,1.1 2.4,2.4 3.3,3.7 0.3,0.4 1,1.9 1.3,2.8 0.1,0.2 0.2,0.4 0.2,0.5 0.1,0.7 0.4,1.6 0.5,1.9 z"
         id="path8598" />
         <path class="st0" d="m 30.2,64.9 c 0.3,0.3 0.5,0.6 0.7,0.9 0.1,0.1 0.2,0.6 0.3,0.8 0,0.2 0.1,0.4 0.1,0.5 0.1,0.9 0.1,1.6 0,1.6 0,0 -2.6,0.4 -3.9,-0.8 -0.6,-0.5 -1,-1.3 -1.3,-2.1 -0.3,-1.1 -0.2,-2.1 -0.2,-2.1 0,0 1.1,-0.2 2.1,0.1 0.8,0.1 1.6,0.5 2.2,1.1 z"
         id="path8656" />
     </g>
     <g id="l17">
        <path class="st0" 
            d="m 41.7,53.2 c -0.2,5.3 -1.2,9.6 -1.3,9.6 0,0 0,0 0,0 -0.4,0.1 -2.7,0 -5.8,-0.5 -2.3,-0.4 -5,-1 -7.6,-2 C 23.5,59 20.1,57 17.8,54 15,50.3 12.9,45.3 12.4,40 c -0.6,-5.8 0.2,-10.8 0.5,-12.4 0,0 0,0 0,0 0.1,-0.3 0.1,-0.5 0.1,-0.5 0.1,0 6.7,0 12.2,2.3 4.9,2 9.4,5.2 12.4,9.5 1,1.5 1.9,3.1 2.5,4.7 0.2,0.5 0.4,1 0.6,1.5 0.2,0.7 0.6,2.9 0.8,4.2 0,0.3 0.1,0.5 0.1,0.7 0.1,1.5 0.2,2.9 0.1,3.2 z"
            id="path8600" />
        <path class="st0" 
            d="m 48.4,51.1 c -0.2,0.3 -0.4,0.7 -0.6,0.9 -0.1,0.1 -0.5,0.4 -0.6,0.5 -0.2,0.1 -0.4,0.2 -0.4,0.3 -0.8,0.4 -1.5,0.6 -1.5,0.6 0,0 -1.3,-2.3 -0.6,-4 0.3,-0.7 0.9,-1.4 1.6,-1.9 1,-0.7 1.9,-0.9 1.9,-0.9 0,0 0.5,1 0.6,2 0,0.8 -0.1,1.7 -0.4,2.5 z" 
            id="path8658" />
        </g>
        <g id="l15">
        <path class="st0" 
            d="m 52,62.1 c -0.2,0.7 -0.4,1.3 -0.7,1.8 -0.1,0.2 -0.7,0.9 -0.9,1.1 -0.3,0.3 -0.5,0.5 -0.6,0.6 -1.2,1 -2.3,1.6 -2.3,1.6 -0.1,0 -3.1,-3.4 -2.5,-6.5 0.2,-1.3 0.9,-2.7 1.9,-3.8 1.4,-1.5 2.8,-2.3 2.9,-2.3 0,0 1.3,1.4 1.9,3 0.5,1.5 0.7,3 0.3,4.5 z"
            id="path8622" />
        <path class="st0" 
            d="m 54.4,78.5 c 1.1,1.6 2.1,3.3 2.7,5 0.2,0.7 0.7,3.3 0.8,4.1 0.1,1.1 0.1,2.2 0.1,2.5 0,4.4 -0.8,8 -0.8,8 -0.1,0.2 -13.3,0.3 -18.9,-6.7 -2.4,-3 -4.3,-7.1 -4.8,-11.4 -0.7,-5.8 0.2,-10.6 0.3,-10.7 0.1,0 5.6,-0.1 10.2,1.7 4.1,1.5 7.9,4 10.4,7.5 z" 
            id="path8624" />
        <path class="st0" 
            d="m 61.6,75.1 c 0.1,0.4 0.2,0.8 0.2,1.1 0,0.1 -0.1,0.7 -0.1,0.8 -0.1,0.2 -0.1,0.4 -0.1,0.5 -0.3,0.8 -0.7,1.4 -0.7,1.4 0,0 -2.5,-0.8 -3.1,-2.6 -0.2,-0.7 -0.3,-1.6 -0.1,-2.5 0.3,-1.1 0.8,-2 0.8,-2 0,0 1.1,0.4 1.8,1 0.5,0.7 1,1.5 1.3,2.3 z" 
            id="path8662" />
        </g>
        <g id="l12">
            <path 
                id="path8606" 
                d="m 38.7,100.4 c 0.4,0.4 0.7,0.8 0.9,1.2 0.1,0.2 0.3,0.8 0.4,1 0.1,0.3 0.1,0.6 0.1,0.6 0.2,1.2 0.1,2.1 0.1,2.1 0,0 -3.5,0.6 -5.2,-1 -0.7,-0.7 -1.4,-1.7 -1.7,-2.8 -0.4,-1.5 -0.4,-2.8 -0.4,-2.8 0,0 1.4,-0.3 2.7,0 1.2,0.4 2.3,0.9 3.1,1.7 z" 
                class="st0" />
            <path id="path8608" 
                d="m 38.6,100.5 c 0.4,0.4 0.7,0.8 0.9,1.2 0.1,0.2 0.3,0.8 0.4,1 0.1,0.3 0.1,0.6 0.1,0.6 0.2,1.2 0.1,2.1 0.1,2.1 0,0 -3.5,0.6 -5.2,-1 -0.7,-0.7 -1.4,-1.7 -1.7,-2.8 -0.4,-1.5 -0.4,-2.8 -0.3,-2.8 0,0 1.4,-0.3 2.7,0 1.2,0.4 2.2,0.9 3,1.7 z" 
                class="st0" />
            <path id="path8612" 
                d="m 48.8,109.3 c 1.5,0.8 2.9,1.8 4,3 0.4,0.5 1.8,2.3 2.2,2.9 0.5,0.8 0.9,1.7 1,1.9 1.6,3.5 2.4,6.6 2.3,6.7 -0.1,0.2 -10.4,5.2 -17.5,1.8 -3,-1.5 -6.1,-4.1 -8.1,-7.3 -2.7,-4.4 -3.8,-8.5 -3.8,-8.6 0,0 4.4,-2.2 8.7,-2.5 3.9,-0.3 7.8,0.3 11.2,2.1 z" 
                class="st0" />
            <path 
                id="path8614" 
                d="m 62,131.9 c 0.4,0.5 0.7,1 0.9,1.5 0.1,0.2 0.3,1 0.3,1.2 0,0.3 0.1,0.7 0.1,0.8 0,1.3 -0.1,2.4 -0.2,2.5 0,0 -4,0.3 -5.9,-1.8 -0.8,-0.9 -1.4,-2.1 -1.6,-3.4 -0.3,-1.8 -0.1,-3.2 0,-3.3 0,0 1.7,-0.1 3.1,0.4 1.3,0.3 2.5,1.1 3.3,2.1 z" 
                class="st0" />
            <path id="path8668" 
                d="m 56.6,104.3 c 0.5,0.5 0.9,0.9 1.2,1.5 0.1,0.2 0.4,1 0.5,1.3 0.1,0.3 0.2,0.7 0.2,0.8 0.2,1.4 0.2,2.6 0.2,2.7 0,0.1 -4.3,0.9 -6.5,-1.1 -1,-0.8 -1.8,-2.1 -2.2,-3.4 -0.6,-1.8 -0.6,-3.5 -0.5,-3.5 0,0 1.8,-0.4 3.4,-0.1 1.2,0.2 2.6,0.8 3.7,1.8 z" 
                class="st0" />
            <path class="st0" 
                d="m 56.6,104.1 c 0.5,0.5 0.9,0.9 1.2,1.5 0.1,0.2 0.4,1 0.5,1.3 0.1,0.3 0.2,0.7 0.2,0.8 0.2,1.4 0.2,2.6 0.2,2.7 0,0 -4.3,0.9 -6.5,-1.1 -0.9,-0.8 -1.8,-2.1 -2.2,-3.4 -0.6,-1.8 -0.6,-3.5 -0.5,-3.5 0,0 1.8,-0.4 3.4,-0.1 1.3,0.3 2.6,0.8 3.7,1.8 z" 
                id="path8666" />
            </g>
            <g id="l23">
                <path class="st1"
 d="m 83.8,55.2 c 1.2,1.5 2.2,3.2 3,4.9 0.3,0.7 0.9,3.2 1,4 0.1,1.1 0.3,2.2 0.3,2.5 0.2,4.4 -0.3,8 -0.4,8.1 C 87.6,74.9 74.4,75.7 68.4,69 65.9,66.2 63.8,62.1 63,57.8 62,52 62.6,47.2 62.7,47.1 c 0.1,0 5.5,-0.4 10.3,1.1 4.2,1.4 8.1,3.7 10.8,7 z"
 id="path8646" />
 <path class="st1"
 d="m 59.4,61 c 0.1,0.4 0.2,0.8 0.2,1.1 0,0.1 -0.1,0.7 -0.1,0.8 -0.1,0.2 -0.1,0.4 -0.1,0.5 -0.3,0.8 -0.7,1.4 -0.7,1.4 0,0 -2.5,-0.8 -3.1,-2.6 -0.2,-0.7 -0.3,-1.6 -0.1,-2.5 0.3,-1.1 0.8,-2 0.8,-2 0,0 1.1,0.4 1.8,1 0.6,0.7 1.1,1.5 1.3,2.3 z"
 id="path8664" />
 <path class="st1"
 d="m 75.2,83 c 0.7,-1.3 0.9,-2.7 0.7,-4.2 -0.1,-1.6 -1,-3.2 -1,-3.3 0,0 -0.1,0 -0.2,0 -0.1,0 -1.6,0.4 -3.2,1.4 -1.2,0.8 -2.2,2 -2.7,3.1 -1.2,2.7 0.7,6.6 0.8,6.6 0,0 0.1,0 0.1,0 0,0 0,0 0,0 0,0 1.2,-0.3 2.5,-0.9 0.1,0 0.4,-0.2 0.7,-0.4 0.2,-0.1 0.9,-0.7 1.1,-0.8 0.6,-0.4 0.9,-0.9 1.2,-1.5 z"
 id="path8670" />
</g><g
     id="l31"><path
 style="fill:#afdb8d"
 class="st2"
 d="m 101.2,159.5 c -0.7,-1.8 -1.2,-3.7 -1.5,-5.5 -0.1,-0.7 0,-3.4 0.2,-4.2 0.2,-1.1 0.4,-2.1 0.4,-2.5 1.1,-4.3 2.6,-7.6 2.7,-7.6 0.2,-0.1 13,2.8 16.9,10.9 1.6,3.4 2.5,7.9 2,12.2 -0.7,5.8 -2.6,10.3 -2.8,10.4 -0.1,0 -5.4,-1.2 -9.5,-4 -3.6,-2.4 -6.7,-5.7 -8.4,-9.7 z"
 id="path8630" />
 <path
 style="fill:#afdb8d"
 class="st2"
 d="m 98.6,160.9 c 0.3,-1.4 0,-2.9 -0.6,-4.2 -0.6,-1.5 -1.9,-2.8 -1.9,-2.8 0,0 -0.1,0 -0.2,0.1 -0.1,0 -1.4,0.9 -2.6,2.3 -0.9,1.1 -1.5,2.5 -1.6,3.8 -0.4,2.9 2.7,6 2.7,6 0,0 0.1,0 0.1,-0.1 l 0,0 c 0,0 1,-0.6 2.1,-1.6 0.1,-0.1 0.3,-0.3 0.6,-0.6 0.2,-0.2 0.7,-0.9 0.8,-1.1 0.3,-0.5 0.5,-1.1 0.6,-1.8 z"
 id="path8678" />
 <path
 style="fill:#afdb8d"
 class="st2"
 d="m 130.5,155.7 c -1,-1 -2.4,-1.6 -3.8,-1.9 -1.6,-0.3 -3.4,0 -3.4,0 0,0 0,0.1 0,0.2 0,0.1 -0.1,1.7 0.4,3.5 0.4,1.4 1.2,2.6 2.2,3.5 2.2,2 6.5,1.3 6.5,1.2 0,0 0,-0.1 0,-0.1 l 0,0 c 0,0 0.1,-1.2 -0.1,-2.7 0,-0.1 -0.1,-0.5 -0.2,-0.8 -0.1,-0.3 -0.4,-1.1 -0.5,-1.3 -0.3,-0.6 -0.7,-1.1 -1.1,-1.6 z"
 id="path8682" />
</g><g
     id="l34"><path
 style="fill:#afdb8d"
 class="st2"
 d="m 119.6,116.7 c -2,-0.2 -3.8,-0.6 -5.6,-1.2 -0.7,-0.3 -3,-1.6 -3.6,-2.1 -0.9,-0.6 -1.7,-1.3 -2,-1.5 -3.3,-2.9 -5.6,-5.8 -5.5,-5.9 0,-0.2 8.5,-10.3 17.5,-9.9 3.8,0.1 8.2,1.4 11.8,3.9 4.9,3.3 7.9,7.1 7.9,7.2 0,0.1 -3.6,4.3 -7.9,6.6 -3.9,2 -8.3,3.3 -12.6,2.9 z"
 id="path8632" />
 <path
 style="fill:#afdb8d"
 class="st2"
 d="m 104.2,118.2 c 0.9,1.1 2.2,1.9 3.5,2.4 1.5,0.5 3.4,0.4 3.4,0.4 0,0 0,-0.1 0,-0.2 0.1,-0.1 0.3,-1.7 0,-3.5 -0.2,-1.4 -0.9,-2.8 -1.7,-3.7 -2,-2.2 -6.3,-2 -6.3,-2 0,0 0,0.1 0,0.1 l 0,0 c 0,0 -0.2,1.2 -0.2,2.7 0,0.1 0,0.5 0.1,0.8 0,0.3 0.2,1.1 0.3,1.3 0.2,0.6 0.5,1.2 0.9,1.7 z"
 id="path8686" />
 <path
 style="fill:#afdb8d"
 class="st2"
 d="m 127.5,93.6 c 1.4,-0.3 2.6,-1.1 3.6,-2.2 1.1,-1.2 1.8,-2.9 1.8,-2.9 0,0 -0.1,0 -0.1,-0.1 -0.1,-0.1 -1.4,-0.9 -3.2,-1.5 -1.4,-0.4 -2.9,-0.4 -4.1,0 -2.8,0.8 -4.5,4.8 -4.5,4.9 0,0 0,0 0.1,0.1 l 0,0 c 0,0 1,0.7 2.3,1.3 0.1,0 0.4,0.2 0.8,0.3 0.3,0.1 1.1,0.3 1.3,0.3 0.7,0 1.4,-0.1 2,-0.2 z"
 id="path8690" />
</g><g
     id="l24"><path class="st1"
 d="m 111.1,69.9 c -1.7,1.1 -3.4,1.9 -5.1,2.5 -0.7,0.2 -3.3,0.6 -4.1,0.6 -1.1,0 -2.2,0 -2.5,0 -4.4,-0.2 -8,-1.1 -8,-1.2 -0.2,-0.1 0.3,-13.3 7.5,-18.6 3.1,-2.3 7.3,-4 11.6,-4.3 5.8,-0.5 10.6,0.7 10.7,0.8 0,0.1 -0.1,5.6 -2.1,10.1 -1.8,4 -4.4,7.7 -8,10.1 z"
 id="path8644" />
 <path class="st1"
 d="M 89.8,49.3 C 89,48.1 87.9,47.2 86.5,46.6 85,45.9 83.2,45.8 83.2,45.8 c 0,0 0,0.1 -0.1,0.2 -0.1,0.1 -0.4,1.6 -0.3,3.5 0.1,1.4 0.6,2.9 1.3,3.9 1.7,2.4 6,2.7 6.1,2.6 0,0 0,-0.1 0.1,-0.1 l 0,0 c 0,0 0.3,-1.2 0.5,-2.6 0,-0.1 0,-0.5 0,-0.8 0,-0.3 -0.1,-1.1 -0.2,-1.4 -0.2,-0.7 -0.4,-1.3 -0.8,-1.8 z"
 id="path8672" />
 <path class="st1"
 d="m 131.5,59 c 1.3,-0.7 2.2,-1.8 2.9,-3.1 0.8,-1.4 1,-3.2 1,-3.3 0,0 -0.1,0 -0.2,-0.1 -0.1,-0.1 -1.6,-0.5 -3.5,-0.6 -1.4,0 -2.9,0.4 -4,1.1 -2.5,1.6 -3,5.9 -3,5.9 0,0 0.1,0 0.1,0.1 l 0,0 c 0,0 1.2,0.4 2.6,0.6 0.1,0 0.5,0 0.8,0.1 0.3,0 1.1,-0.1 1.4,-0.1 0.8,0 1.4,-0.3 1.9,-0.6 z"
 id="path8692" />
</g><g
     id="l32"><path
 style="fill:#afdb8d"
 class="st2"
 d="m 117.1,143.4 c -1.4,-1.4 -2.7,-2.8 -3.6,-4.4 -0.3,-0.6 -1.4,-3.1 -1.6,-3.9 -0.3,-1 -0.6,-2.1 -0.6,-2.4 -0.8,-4.3 -0.8,-8 -0.7,-8 0.1,-0.2 13,-2.8 19.9,3 2.9,2.4 5.5,6.2 6.9,10.3 1.8,5.6 1.8,10.5 1.8,10.6 -0.1,0 -5.4,1.2 -10.3,0.3 -4.5,-0.8 -8.7,-2.5 -11.8,-5.5 z"
 id="path8634" />
 <path
 style="fill:#afdb8d"
 class="st2"
 d="m 103.4,128.5 c -0.6,1.3 -0.7,2.8 -0.5,4.2 0.3,1.6 1.2,3.2 1.2,3.2 0,0 0.1,0 0.2,-0.1 0.1,0 1.6,-0.5 3.1,-1.7 1.2,-0.9 2,-2.1 2.5,-3.3 1.1,-2.8 -1.1,-6.5 -1.2,-6.5 0,0 -0.1,0 -0.1,0 l 0,0 c 0,0 -1.2,0.4 -2.4,1.1 -0.1,0.1 -0.4,0.2 -0.7,0.5 -0.2,0.2 -0.9,0.7 -1,0.9 -0.5,0.6 -0.8,1.1 -1.1,1.7 z"
 id="path8676" />
 <path
 style="fill:#afdb8d"
 class="st2"
 d="m 147.5,140.3 c -0.9,-1.1 -2.1,-1.9 -3.5,-2.4 -1.5,-0.5 -3.4,-0.5 -3.4,-0.5 0,0 0,0.1 0,0.2 -0.1,0.1 -0.3,1.7 0,3.5 0.2,1.4 0.9,2.8 1.7,3.7 1.9,2.2 6.3,2.1 6.3,2 0,0 0,-0.1 0,-0.1 l 0,0 c 0,0 0.2,-1.2 0.2,-2.7 0,-0.1 0,-0.5 -0.1,-0.8 0,-0.3 -0.2,-1.1 -0.3,-1.3 -0.2,-0.5 -0.6,-1.1 -0.9,-1.6 z"
 id="path8680" />
 <path
 style="fill:#afdb8d"
 class="st2"
 d="m 135.9,156 c 0.9,0.5 2,0.7 3,0.6 1.2,-0.1 2.4,-0.6 2.4,-0.7 0,0 0,-0.1 0,-0.1 0,-0.1 -0.3,-1.2 -1,-2.4 -0.6,-0.9 -1.4,-1.6 -2.2,-2 -1.9,-1 -4.8,0.4 -4.8,0.4 0,0 0,0 0,0.1 l 0,0 c 0,0 0.2,0.9 0.6,1.8 0,0.1 0.2,0.3 0.3,0.5 0.1,0.2 0.5,0.7 0.6,0.8 0.3,0.5 0.7,0.8 1.1,1 z"
 id="path8696" />
</g><g
     id="l36"><path
 style="fill:#afdb8d"
 class="st2"
 d="m 169.5,92.1 c -1.9,0.3 -3.9,0.3 -5.7,0.1 -0.7,-0.1 -3.3,-0.8 -4,-1.1 -1,-0.4 -2,-0.9 -2.3,-1 -3.9,-2.1 -6.8,-4.3 -6.8,-4.4 -0.1,-0.2 5.8,-12 14.6,-13.8 3.7,-0.8 8.3,-0.6 12.4,0.9 5.5,2 9.4,5 9.4,5.1 0,0.1 -2.4,5 -6.1,8.3 -3.3,3 -7.2,5.3 -11.5,5.9 z"
 id="path8640" />
 <path
 style="fill:#afdb8d"
 class="st2"
 d="m 143.2,89.5 c 1.1,-0.9 1.8,-2.2 2.3,-3.6 0.5,-1.6 0.4,-3.4 0.3,-3.4 0,0 -0.1,0 -0.2,0 -0.1,-0.1 -1.7,-0.2 -3.5,0.1 -1.4,0.3 -2.8,1 -3.7,1.8 -2.2,2 -1.9,6.3 -1.8,6.4 0,0 0.1,0 0.1,0 l 0,0 c 0,0 1.2,0.2 2.7,0.1 0.1,0 0.5,0 0.8,-0.1 0.3,0 1.1,-0.3 1.3,-0.4 0.7,-0.1 1.2,-0.4 1.7,-0.9 z"
 id="path8688" />
 <path
 style="fill:#afdb8d"
 class="st2"
 d="m 169.3,68.4 c 0.9,-0.4 1.6,-1 2.1,-1.8 0.6,-0.9 0.9,-2.1 0.9,-2.1 0,0 0,0 -0.1,-0.1 -0.1,-0.1 -1,-0.5 -2.2,-0.6 -0.9,-0.1 -1.9,0.1 -2.7,0.4 -1.8,0.8 -2.4,3.6 -2.4,3.7 0,0 0,0 0.1,0 l 0,0 c 0,0 0.7,0.4 1.7,0.6 0.1,0 0.3,0.1 0.5,0.1 0.2,0 0.7,0 0.9,0 0.4,0 0.8,-0.1 1.2,-0.2 z"
 id="path8702" />
</g><g
     id="l27"><path class="st1"
 d="m 106.7,26.5 c -0.7,2.3 -1.6,4.4 -2.8,6.3 -0.4,0.6 -1.8,2.3 -2.8,3.3 -0.2,0.2 -0.4,0.4 -0.5,0.5 -1,0.9 -2,1.8 -2.3,2 -0.1,0 -0.1,0.1 -0.2,0.2 -4.1,3.1 -7.9,5.1 -8,5 0,0 0,0 0,0 -0.3,-0.3 -1.7,-2.1 -3.3,-4.8 -2.7,-4.6 -5.9,-11.7 -4.3,-18.2 1,-4.5 3.6,-9.3 7.3,-13.1 4.1,-4.2 8.4,-6.7 9.9,-7.5 0,0 0,0 0,0 C 100,0 100.2,0 100.2,0 c 0.1,0 4.2,5.2 6,10.9 0.7,2.4 1.2,4.9 1.4,7.4 0.1,2.8 -0.2,5.5 -0.9,8.2 z"
 id="path8602" />
 <path class="st1"
 d="m 76.5,20.4 c -0.7,-0.6 -1.6,-1 -2.5,-1.2 -1.1,-0.2 -2.2,0.1 -2.2,0.1 0,0 0,0.1 0,0.1 0,0.1 0,1.1 0.4,2.3 0.3,0.9 0.9,1.7 1.5,2.3 1.5,1.3 4.3,0.7 4.3,0.6 0,0 0,0 0,-0.1 l 0,0 c 0,0 0,-0.8 -0.2,-1.8 0,-0.1 -0.1,-0.3 -0.1,-0.5 0,-0.2 -0.3,-0.7 -0.3,-0.8 -0.4,-0.4 -0.6,-0.7 -0.9,-1 z"
 id="path8704" />
</g><g
     id="l37"><path
 style="fill:#afdb8d"
 class="st2"
 d="m 164.4,60.3 c -0.4,1.3 -0.8,2.5 -1.3,3.8 0,0 0,0 0,0.1 -1.5,3.7 -3.7,7 -6.7,9.5 -1.8,1.5 -3.7,2.8 -5.8,3.8 -0.5,0.2 -1.9,0.6 -3.1,1 -0.4,0.1 -0.7,0.2 -1,0.3 -0.3,0.1 -0.5,0.1 -0.7,0.2 -1.3,0.2 -2.6,0.4 -3,0.4 -5.3,0.4 -9.7,-0.1 -9.7,-0.2 0,0 0,0 0,0 -0.1,-0.4 -0.3,-2.7 -0.2,-5.8 0.2,-5.3 1.5,-13 6.3,-17.6 3.3,-3.2 8.1,-5.9 13.3,-6.9 5.8,-1.2 10.8,-1 12.4,-0.9 0.3,0 0.5,0.1 0.6,0.1 -0.1,-0.2 0.6,6.4 -1.1,12.2 z"
 id="path8604" />
 <path
 style="fill:#afdb8d"
 class="st2"
 d="m 123.4,71.1 c 0.9,-0.2 1.8,-0.7 2.4,-1.4 0.8,-0.8 1.2,-1.9 1.2,-1.9 0,0 0,0 -0.1,-0.1 -0.1,-0.1 -0.9,-0.6 -2.1,-1 -0.9,-0.3 -1.9,-0.3 -2.7,-0.1 -1.9,0.5 -3,3.1 -3,3.2 0,0 0,0 0.1,0.1 l 0,0 c 0,0 0.6,0.5 1.5,0.9 0.1,0 0.3,0.1 0.5,0.2 0.2,0.1 0.7,0.2 0.9,0.2 0.5,0 0.9,-0.1 1.3,-0.1 z"
 id="path8698" />
 <path
 style="fill:#afdb8d"
 class="st2"
 d="m 146.5,47.1 c 0.6,-0.7 1,-1.6 1.2,-2.5 0.2,-1.1 -0.1,-2.2 -0.1,-2.2 0,0 -0.1,0 -0.1,0 -0.1,0 -1.1,0 -2.3,0.4 -0.9,0.3 -1.7,0.9 -2.2,1.5 -1.2,1.5 -0.7,4.3 -0.6,4.3 0,0 0,0 0.1,0 l 0,0 c 0,0 0.8,0 1.8,-0.2 0.1,0 0.3,-0.1 0.5,-0.1 0.2,-0.1 0.7,-0.3 0.8,-0.3 0.3,-0.3 0.6,-0.6 0.9,-0.9 z"
 id="path8706" />
</g><g
     id="l33"><path
 style="fill:#afdb8d"
 class="st2"
 d="m 142.7,134.6 c -1.8,-0.7 -3.6,-1.5 -5.1,-2.5 -0.6,-0.4 -2.5,-2.2 -3,-2.9 -0.7,-0.8 -1.4,-1.7 -1.6,-2 -2.5,-3.6 -4,-7 -3.9,-7 0,-0.2 10.7,-7.9 19.3,-5.5 3.7,1 7.6,3.3 10.5,6.6 3.9,4.3 6,8.8 6,8.9 0,0.1 -4.5,3.3 -9.3,4.5 -4.3,1.1 -8.8,1.3 -12.9,-0.1 z"
 id="path8636" />
 <path
 style="fill:#afdb8d"
 class="st2"
 d="m 165.5,115.9 c -1.3,-0.6 -2.8,-0.6 -4.2,-0.4 -1.6,0.3 -3.2,1.2 -3.2,1.2 0,0 0,0.1 0.1,0.2 0,0.1 0.6,1.6 1.7,3.1 0.9,1.1 2.1,2 3.3,2.4 2.8,1 6.5,-1.2 6.5,-1.3 0,0 0,-0.1 0,-0.1 l 0,0 c 0,0 -0.4,-1.2 -1.1,-2.4 -0.1,-0.1 -0.3,-0.4 -0.5,-0.7 -0.2,-0.2 -0.7,-0.9 -0.9,-1 -0.6,-0.4 -1.1,-0.7 -1.7,-1 z"
 id="path8684" />
 <path
 style="fill:#afdb8d"
 class="st2"
 d="m 151.7,142.4 c 0.7,0.6 1.7,0.9 2.6,1 1.1,0.1 2.2,-0.2 2.2,-0.2 0,0 0,-0.1 0,-0.1 0,-0.1 -0.1,-1.1 -0.5,-2.3 -0.4,-0.9 -1,-1.7 -1.7,-2.1 -1.6,-1.1 -4.3,-0.4 -4.4,-0.3 0,0 0,0 0,0.1 l 0,0 c 0,0 0,0.8 0.3,1.7 0,0.1 0.1,0.3 0.2,0.5 0.1,0.2 0.3,0.7 0.4,0.8 0.3,0.3 0.6,0.6 0.9,0.9 z"
 id="path8708" />
</g><g
     id="l35"><path
 style="fill:#afdb8d"
 class="st2"
 d="m 149.7,111.9 c -1.8,-0.7 -3.5,-1.6 -5,-2.8 -0.5,-0.5 -2.4,-2.3 -2.9,-3 -0.7,-0.8 -1.3,-1.8 -1.5,-2 -2.4,-3.7 -3.7,-7.1 -3.6,-7.2 0,-0.2 11,-7.5 19.5,-4.6 3.6,1.2 7.4,3.7 10.2,7 3.8,4.5 5.6,9 5.6,9.2 0,0.1 -4.6,3.1 -9.5,4.1 -4.3,0.9 -8.8,0.9 -12.8,-0.7 z"
 id="path8638" />
 <path
 style="fill:#afdb8d"
 class="st2"
 d="m 171,97.7 c 0.9,0.3 1.9,0.2 2.8,-0.1 1,-0.3 2,-1.1 2,-1.1 0,0 0,0 0,-0.1 0,-0.1 -0.5,-1 -1.4,-1.9 -0.7,-0.7 -1.6,-1.1 -2.4,-1.3 -1.9,-0.4 -4.1,1.3 -4.1,1.4 0,0 0,0 0,0.1 l 0,0 c 0,0 0.3,0.7 0.9,1.5 0,0.1 0.2,0.2 0.4,0.4 0.1,0.1 0.6,0.5 0.7,0.6 0.3,0.2 0.7,0.4 1.1,0.5 z"
 id="path8710" />
</g><g
     id="l25"><path class="st1"
 d="m 68.9,25.9 c 1.2,1.5 2.2,3.2 3,4.9 0.3,0.7 0.9,3.2 1,4 0.2,1.1 0.3,2.2 0.3,2.5 0.2,4.4 -0.3,8 -0.4,8.1 C 72.7,45.6 59.5,46.5 53.5,39.8 50.9,37 48.8,32.9 48.1,28.6 47.1,22.8 47.7,18 47.8,17.9 c 0.1,0 5.5,-0.4 10.3,1.1 4.2,1.2 8.1,3.5 10.8,6.9 z"
 id="path8648" />
 <path class="st1"
 d="m 81.3,41.3 c 0,-1.4 -0.6,-2.8 -1.4,-4 -0.9,-1.3 -2.4,-2.4 -2.4,-2.4 0,0 -0.1,0.1 -0.1,0.1 -0.1,0.1 -1.2,1.2 -2.1,2.8 -0.7,1.3 -0.9,2.8 -0.9,4 0.2,3 3.8,5.4 3.9,5.4 0,0 0.1,0 0.1,-0.1 l 0,0 c 0,0 0.9,-0.8 1.7,-2 0.1,-0.1 0.3,-0.4 0.4,-0.7 0.1,-0.2 0.5,-1 0.5,-1.3 0.3,-0.5 0.4,-1.2 0.3,-1.8 z"
 id="path8712" />
</g><g
     id="l26"><path class="st1"
 d="m 128.9,47.4 c -1.9,0.6 -3.7,1.1 -5.6,1.2 -0.7,0 -3.3,-0.2 -4.1,-0.4 -1,-0.2 -2.1,-0.5 -2.4,-0.6 -4.2,-1.3 -7.5,-3 -7.5,-3.1 -0.1,-0.2 3.5,-12.8 11.8,-16.3 3.5,-1.5 8,-2.1 12.3,-1.4 5.8,1 10.1,3.2 10.2,3.3 0,0.1 -1.5,5.4 -4.5,9.3 -2.7,3.6 -6.1,6.5 -10.2,8 z"
 id="path8642" />
 <path class="st1"
 d="m 115.5,26.3 c 0.6,-0.8 0.8,-1.7 0.9,-2.7 0.1,-1.1 -0.3,-2.2 -0.3,-2.2 0,0 -0.1,0 -0.1,0 -0.1,0 -1.1,0.1 -2.2,0.7 -0.9,0.4 -1.6,1.1 -2,1.8 -1.1,1.6 -0.1,4.4 -0.1,4.4 0,0 0,0 0.1,0 l 0,0 c 0,0 0.8,-0.1 1.7,-0.4 0.1,0 0.3,-0.1 0.5,-0.2 0.2,-0.1 0.7,-0.4 0.8,-0.4 0.2,-0.4 0.5,-0.7 0.7,-1 z"
 id="path8700" />
 <path class="st1"
 d="m 104.9,45.5 c 0.7,-1.2 0.9,-2.7 0.8,-4.2 -0.1,-1.6 -0.9,-3.3 -0.9,-3.3 0,0 -0.1,0 -0.2,0 -0.1,0 -1.6,0.4 -3.2,1.4 -1.2,0.8 -2.2,1.9 -2.7,3 -1.3,2.7 0.6,6.6 0.7,6.6 0,0 0.1,0 0.1,0 l 0,0 c 0,0 1.2,-0.3 2.5,-0.9 0.1,0 0.4,-0.2 0.7,-0.4 0.2,-0.1 0.9,-0.7 1.1,-0.8 0.4,-0.3 0.8,-0.8 1.1,-1.4 z"
 id="path8714" />
</g><g
     id="l22"><path class="st1"
 d="m 114.8,92.9 c -1.8,0.8 -3.6,1.4 -5.5,1.7 -0.7,0.1 -3.4,0.1 -4.2,0 -1.1,-0.1 -2.2,-0.3 -2.5,-0.4 -4.3,-0.9 -7.7,-2.3 -7.7,-2.4 -0.1,-0.2 2.3,-13.1 10.3,-17.3 3.4,-1.8 7.8,-2.8 12.2,-2.5 5.8,0.4 10.4,2.2 10.5,2.4 0,0.1 -1,5.5 -3.6,9.7 -2.4,3.7 -5.5,7 -9.5,8.8 z"
 id="path8628" />
 <path class="st1"
 d="m 99.8,97.1 c -0.5,-0.9 -1.4,-1.6 -2.3,-2.1 -1.1,-0.5 -2.4,-0.6 -2.4,-0.6 0,0 0,0.1 0,0.1 -0.1,0.1 -0.4,1.2 -0.3,2.5 0,1.1 0.4,2.1 0.9,2.9 1.2,1.8 4.4,2.1 4.4,2 0,0 0,0 0,-0.1 l 0,0 c 0,0 0.3,-0.9 0.4,-1.9 0,-0.1 0,-0.3 0,-0.6 0,-0.2 -0.1,-0.8 -0.1,-1 -0.1,-0.4 -0.3,-0.8 -0.6,-1.2 z"
 id="path8694" />
 <path class="st1"
 d="m 91.6,83.6 c 0.3,-1.4 0.1,-2.9 -0.4,-4.2 -0.6,-1.5 -1.8,-2.9 -1.8,-2.9 0,0 -0.1,0 -0.2,0.1 -0.1,0 -1.5,0.8 -2.7,2.2 -1,1.1 -1.6,2.4 -1.8,3.7 -0.5,2.9 2.4,6.1 2.5,6.2 0,0 0.1,0 0.1,-0.1 l 0,0 c 0,0 1.1,-0.6 2.2,-1.5 0.1,-0.1 0.3,-0.3 0.6,-0.6 0.2,-0.2 0.7,-0.9 0.8,-1.1 0.3,-0.6 0.5,-1.2 0.7,-1.8 z"
 id="path8716" />
</g><g
     id="l21"><path class="st1"
 d="m 91.2,102.6 c 0.1,2 -0.1,3.9 -0.5,5.7 -0.2,0.7 -1.2,3.1 -1.6,3.9 -0.5,0.9 -1.1,1.9 -1.3,2.2 -2.5,3.7 -5,6.3 -5.1,6.2 -0.2,0.1 -11.3,-7 -12.2,-16 -0.4,-3.8 0.3,-8.3 2.3,-12.2 2.6,-5.3 6,-8.8 6.1,-8.8 0.1,0 4.7,3 7.6,7 2.7,3.5 4.5,7.7 4.7,12 z"
 id="path8626" />
 <path class="st1"
 d="m 82.7,126.6 c -0.8,-1.2 -2,-2 -3.4,-2.6 -1.5,-0.6 -3.3,-0.6 -3.3,-0.6 0,0 0,0.1 0,0.2 -0.1,0.1 -0.4,1.7 -0.2,3.5 0.2,1.4 0.7,2.8 1.5,3.8 1.8,2.3 6.1,2.4 6.2,2.3 0,0 0,-0.1 0,-0.1 l 0,0 c 0,0 0.3,-1.2 0.3,-2.6 0,-0.1 0,-0.5 0,-0.8 0,-0.3 -0.2,-1.1 -0.2,-1.4 -0.3,-0.6 -0.6,-1.2 -0.9,-1.7 z"
 id="path8674" />
 <path class="st1"
 d="m 93.5,122.8 c 0.7,-1.2 1,-2.7 0.9,-4.2 -0.1,-1.6 -0.8,-3.3 -0.8,-3.3 0,0 -0.1,0 -0.2,0 -0.1,0 -1.7,0.4 -3.3,1.3 -1.2,0.7 -2.3,1.9 -2.8,3 -1.4,2.6 0.4,6.6 0.5,6.6 0,0 0.1,0 0.1,0 l 0,0 c 0,0 1.2,-0.2 2.5,-0.8 0.1,0 0.4,-0.2 0.7,-0.4 0.2,-0.1 0.9,-0.6 1.1,-0.8 0.6,-0.3 1,-0.8 1.3,-1.4 z"
 id="path8718" />
</g><g
     id="tronco"><path
 style="fill:#523f31"
 class="st3"
 d="M 84.5,164.5 C 81.6,147.8 72.7,133.4 68.1,117.3 65.9,109.5 65,101.5 64.6,93.4 c -0.1,-2.1 -0.2,-9 -0.5,-10.6 -0.3,-2.3 -0.8,-4.4 -1,-3.6 -0.2,0.7 -1.1,5.8 -1.2,6.4 -1.5,12.7 -2,25.2 0.9,37.9 3.7,16.5 9.8,28.6 11.7,45.5 1.9,17.1 -0.2,37.7 -1.7,54.5 -4.3,47.1 -13.6,80 -14.1,84.3 l 19.6,0 c 2.6,-16.8 12,-109.6 6.2,-143.3 z"
 id="path8720" />
 <path
 style="fill:#523f31"
 class="st3"
 d="M 100.5,114.7 C 99.3,109.8 97.3,105.1 94.1,101.1 94,101 94,101 93.9,100.9 c 0.8,2.1 1.3,4.2 1.7,6.4 1.3,7 2.3,13.7 0.9,20.8 -2.2,11 -9.7,20.5 -13.5,30.9 -4.1,11.2 0.7,22.9 -0.9,34.5 0.3,3.2 2.1,18.3 2.3,17.7 2.4,-8.4 1,-32.1 2.3,-40.1 1.5,-8.4 4.9,-15.5 8.8,-23 4.7,-9 7.2,-16.6 6,-26.8 -0.1,-2.2 -0.4,-4.4 -1,-6.6 z"
 id="path8722" />
 <path
 style="fill:#523f31"
 class="st3"
 d="m 68.4,147.6 c -4,-4.5 -7.5,-7.2 -12.9,-9.8 C 51,135.6 44.8,134.6 41,135 c 5.3,2.1 10.7,4.1 15.2,7.2 3.3,2.4 6,5.7 8.3,8.9 4.4,6.3 10,22.1 10.2,32.6 0,2.1 1.1,16.5 0.7,18 8.1,1.3 2.5,-37 1.5,-40.6 -1.5,-5.1 -4.1,-8.5 -8.5,-13.5 z"
 id="path8724" />
</g><g
     id="l14"><path class="st0"
 d="m 20.8,86.8 c 1.4,0.9 2.6,2 3.6,3.1 0.4,0.5 1.6,2.3 1.9,2.9 0.4,0.8 0.8,1.7 0.8,1.9 1.3,3.5 1.8,6.5 1.7,6.5 -0.1,0.2 -10.3,4.2 -16.8,0.4 -2.7,-1.6 -5.4,-4.3 -7.1,-7.5 -2.3,-4.3 -3,-8.3 -3,-8.5 0,0 4.3,-1.7 8.4,-1.7 3.8,0.1 7.5,0.9 10.5,2.9 z"
 id="path8650" />
 <path class="st0"
 d="m 4.9,77.1 c 0.3,0.3 0.5,0.6 0.7,0.9 0.1,0.1 0.2,0.6 0.3,0.8 0,0.2 0.1,0.4 0.1,0.5 0,0.8 0,1.6 0,1.6 0,0 -2.6,0.4 -3.9,-0.8 C 1.5,79.6 1.1,78.8 0.8,78 0.5,76.9 0.6,75.9 0.6,75.9 c 0,0 1.1,-0.2 2.1,0.1 0.8,0 1.6,0.4 2.2,1.1 z"
 id="path8660" />
 <path class="st0"
 d="m 33.2,88.1 c 0.4,0.3 0.8,0.7 1.1,1.1 0.1,0.2 0.5,0.8 0.6,1 0.1,0.3 0.2,0.5 0.2,0.6 0.4,1.1 0.5,2.1 0.4,2.2 0,0 -3.4,1.2 -5.5,-0.2 -0.9,-0.6 -1.7,-1.5 -2.2,-2.6 -0.7,-1.5 -0.8,-2.8 -0.8,-2.8 0,0 1.4,-0.5 2.8,-0.4 1.2,0.1 2.4,0.4 3.4,1.1 z"
 id="path8726" />
</g><g
     id="l11"><path class="st0"
 d="m 44.2,140.7 c 1.6,0 3.2,0.1 4.7,0.5 0.6,0.2 2.6,1 3.1,1.3 0.8,0.4 1.6,0.9 1.8,1 3,2 5.1,4.1 5.1,4.2 0,0.2 -5.8,9.2 -13.2,9.8 -3.1,0.3 -6.8,-0.3 -10,-2 -4.3,-2.1 -7.1,-5 -7.2,-5.1 0,-0.1 2.5,-3.8 5.8,-6.2 3,-1.9 6.4,-3.3 9.9,-3.5 z"
 id="path8616" />
 <path class="st0"
 d="m 29.8,155.5 c 0.7,0 1.4,0.1 2,0.3 0.2,0.1 1.1,0.5 1.3,0.6 0.3,0.2 0.6,0.4 0.7,0.5 1.2,1 2.1,1.9 2.1,1.9 0,0.1 -2.7,3.8 -5.9,3.8 -1.3,0 -2.9,-0.3 -4.2,-1.1 -1.8,-1 -2.9,-2.3 -2.9,-2.4 0,0 1.2,-1.6 2.6,-2.5 1.2,-0.7 2.7,-1.2 4.3,-1.1 z"
 id="path8618" />
 <path class="st0"
 d="m 35.3,131.8 c 0.6,0 1.2,0.1 1.7,0.3 0.2,0.1 0.9,0.4 1.1,0.5 0.3,0.2 0.6,0.4 0.6,0.4 1.1,0.8 1.8,1.6 1.8,1.7 0,0.1 -2.3,3.3 -5.1,3.4 -1.2,0 -2.5,-0.2 -3.7,-0.9 -1.5,-0.9 -2.6,-2 -2.6,-2 0,0 1,-1.4 2.2,-2.2 1.4,-0.8 2.7,-1.2 4,-1.2 z"
 id="path8620" />
 <path class="st0"
 d="m 24.2,138.5 c 0.7,0 1.4,0.1 2,0.3 0.3,0.1 1.1,0.5 1.4,0.6 0.3,0.2 0.6,0.4 0.7,0.5 1.3,0.9 2.1,1.9 2.1,1.9 0,0.1 -2.7,3.9 -5.9,4 -1.4,0.1 -2.9,-0.3 -4.3,-1 -1.8,-1 -3,-2.3 -3,-2.3 0,0 1.1,-1.6 2.6,-2.6 1.3,-0.8 2.8,-1.4 4.4,-1.4 z"
 id="path8728" />
</g><path
     id="path8730"
     d="M33.8 37.5l-1.5-0.2h-0.1c-0.2-0.2-0.3-0.4-0.5-0.6 -0.6-0.6-1.4-0.9-2.3-1 -2.3-0.2-4.3 1.4-4.5 3.7 -0.1 0.7-0.8 2-1.4 2.6 0 0-0.1 0-0.1 0.1 0 0-0.1 0-0.1 0L22 41.8c0 0-0.3 0-0.4 0 -0.1 0-0.2 0.1 0 0.2 0.3 0.3 0.6 0.5 0.9 0.7 0 0 0.1 0.1 0.1 0.1 0.2 0.1 0.4 0.3 0.6 0.4 0.5 0.3 1.1 0.5 1.5 0.6 2.8 0.7 4.6-1 4.7-1.1 0.1-0.1 0.3-0.1 0.5 0 0.1 0.1 0.1 0.3 0 0.4 0 0-1.5 1.5-3.9 1.5 -0.5 0-1.1-0.1-1.8-0.3 -0.7-0.2-1.5-0.6-2.4-1.2 0 0-0.1-0.1-0.2-0.1 -0.1 0-0.1 0-0.2 0 0 0-0.1 0-0.2 0 -0.7 0.1-1.5-0.3-1.6 0 -0.1 0.3 0.8 0.8 1.3 1.3 0.4 0.5 1 1 1.7 1.5 1 0.7 2.2 1.4 3.9 1.5 0 0 0.1 0 0.1 0v0.3c-0.3 0.1-0.5 0.3-0.6 0.4 -0.2 0.1-0.2 0.4 0 0.5 0.1 0.2 0.4 0.2 0.5 0 0 0 0.9-0.8 2.1 0 0.1 0.1 0.2 0.1 0.2 0.1 0.1 0 0.2 0 0.3-0.2 0.1-0.2 0.1-0.4-0.1-0.5 -0.3-0.2-0.6-0.4-0.9-0.4v-0.4c5-1.3 5-6.9 5-6.9v-0.3c0-0.4 0-0.5-0.1-0.9L34 38C34.2 37.8 34.1 37.5 33.8 37.5zM30.5 39.1c-0.3 0-0.5-0.3-0.6-0.5v0c0-0.1 0-0.1 0-0.2 0-0.4 0.4-0.7 0.8-0.6 0 0 0 0 0 0 0.3 0.1 0.6 0.4 0.6 0.7C31.2 38.9 30.9 39.2 30.5 39.1z"
     class="st4" />
     <path
     id="path8732"
     d="M101 11.8l-1.5-0.2h-0.1c-0.2-0.2-0.3-0.4-0.5-0.6 -0.6-0.6-1.4-0.9-2.3-1 -2.3-0.2-4.3 1.4-4.5 3.7 -0.1 0.7-0.8 2-1.4 2.6 0 0-0.1 0-0.1 0.1 0 0-0.1 0-0.1 0l-1.3-0.2c0 0-0.3 0-0.4 0 -0.1 0-0.2 0.1 0 0.2 0.3 0.3 0.6 0.5 0.9 0.7 0 0 0.1 0.1 0.1 0.1 0.2 0.1 0.4 0.3 0.6 0.4 0.5 0.3 1.1 0.5 1.5 0.6 2.8 0.7 4.6-1 4.7-1.1 0.1-0.1 0.3-0.1 0.5 0 0.1 0.1 0.1 0.3 0 0.4 0 0-1.5 1.5-3.9 1.5 -0.5 0-1.1-0.1-1.8-0.3 -0.7-0.2-1.5-0.6-2.4-1.2 0 0-0.1-0.1-0.2-0.1 -0.1 0-0.1 0-0.2 0 0 0-0.1 0-0.2 0 -0.7 0.1-1.5-0.3-1.6 0 -0.1 0.3 0.8 0.8 1.3 1.3 0.4 0.5 1 1 1.7 1.5 1 0.7 2.2 1.4 3.9 1.5 0 0 0.1 0 0.1 0v0.3c-0.3 0.1-0.5 0.3-0.6 0.4 -0.2 0.1-0.2 0.4 0 0.5 0.1 0.2 0.4 0.2 0.5 0 0 0 0.9-0.8 2.1 0 0.1 0.1 0.2 0.1 0.2 0.1 0.1 0 0.2 0 0.3-0.2 0.1-0.2 0.1-0.4-0.1-0.5 -0.3-0.2-0.6-0.4-0.9-0.4v-0.4c5-1.3 5-6.9 5-6.9v-0.3c0-0.4 0-0.5-0.1-0.9l0.9-1.1C101.3 12 101.2 11.8 101 11.8zM97.6 13.4c-0.3 0-0.5-0.3-0.6-0.5v0c0-0.1 0-0.1 0-0.2 0-0.4 0.4-0.7 0.8-0.6 0 0 0 0 0 0 0.3 0.1 0.6 0.4 0.6 0.7C98.4 13.2 98 13.4 97.6 13.4z"
     class="st4" />
     <path
     id="path8734"
     d="M154.2 55.3l-1.5-0.2h-0.1c-0.2-0.2-0.3-0.4-0.5-0.6 -0.6-0.6-1.4-0.9-2.3-1 -2.3-0.2-4.3 1.4-4.5 3.7 -0.1 0.7-0.8 2-1.4 2.6 0 0-0.1 0-0.1 0.1 0 0-0.1 0-0.1 0l-1.3-0.2c0 0-0.3 0-0.4 0 -0.1 0-0.2 0.1 0 0.2 0.3 0.3 0.6 0.5 0.9 0.7 0 0 0.1 0.1 0.1 0.1 0.2 0.1 0.4 0.3 0.6 0.4 0.5 0.3 1.1 0.5 1.5 0.6 2.8 0.7 4.6-1 4.7-1.1 0.1-0.1 0.3-0.1 0.5 0 0.1 0.1 0.1 0.3 0 0.4 0 0-1.5 1.5-3.9 1.5 -0.5 0-1.1-0.1-1.8-0.3 -0.7-0.2-1.5-0.6-2.4-1.2 0 0-0.1-0.1-0.2-0.1 -0.1 0-0.1 0-0.2 0 0 0-0.1 0-0.2 0 -0.7 0.1-1.5-0.3-1.6 0 -0.1 0.3 0.8 0.8 1.3 1.3 0.4 0.5 1 1 1.7 1.5 1 0.7 2.2 1.4 3.9 1.5 0 0 0.1 0 0.1 0v0.3c-0.3 0.1-0.5 0.3-0.6 0.4 -0.2 0.1-0.2 0.4 0 0.5 0.1 0.2 0.4 0.2 0.5 0 0 0 0.9-0.8 2.1 0 0.1 0.1 0.2 0.1 0.2 0.1 0.1 0 0.2 0 0.3-0.2 0.1-0.2 0.1-0.4-0.1-0.5 -0.3-0.2-0.6-0.4-0.9-0.4v-0.4c5-1.3 5-6.9 5-6.9v-0.3c0-0.4 0-0.5-0.1-0.9l0.9-1.1C154.6 55.5 154.5 55.3 154.2 55.3zM150.9 56.9c-0.3 0-0.5-0.3-0.6-0.5v0c0-0.1 0-0.1 0-0.2 0-0.4 0.4-0.7 0.8-0.6 0 0 0 0 0 0 0.3 0.1 0.6 0.4 0.6 0.7C151.6 56.7 151.3 57 150.9 56.9z"
     class="st4" />
     <text
     x="12.179775"
     y="127.17744"
     id="num13"     
     xml:space="preserve"
     class="num"><tspan 
 x="12.179775"
 y="127.17744">3</tspan></text>
<text
     xml:space="preserve"
     x="39.111446"
     y="120.94096"
     id="num12"     
     class="num">
     <tspan 
 x="39.111446"
 y="120.94096">2</tspan></text>
<text
     xml:space="preserve"
     x="10.684856"
     y="98.132271"
     id="num14"     
     class="num"><tspan 
 x="10.684856"
 y="98.132271"
 >4</tspan></text>
<text
     xml:space="preserve"
     x="41.695683"
     y="88.806549"
     id="num15"     
     class="num"><tspan 
 x="41.695683"
 y="88.806549"
 >5</tspan></text>
<text
     xml:space="preserve"
     x="11.583721"
     y="77.1213"
     id="num16"     
     class="num"><tspan 
 x="11.583721"
 y="77.1213"
 >6</tspan></text>
<text
     xml:space="preserve"
     x="39.397926"
     y="153.74071"
     id="num11"     
     class="num"><tspan 
 x="39.397926"
 y="153.74071"
 >1</tspan></text>
<text
     xml:space="preserve"
     x="75.62674"
     y="107.18352"
     id="num21"     
     class="num"><tspan 
 x="75.62674"
 y="107.18352"
 >1</tspan></text>
<text
     xml:space="preserve"
     x="105.77267"
     y="87.564041"
     id="num22"     
     class="num"><tspan 
 x="105.77267"
 y="87.564041"
 >2</tspan></text>
<text
     xml:space="preserve"
     x="70.15258"
     y="65.853172"
     id="num23"     
     class="num"><tspan 
 x="70.15258"
 y="65.853172"
 >3</tspan></text>
<text
     xml:space="preserve"
     x="101.05271"
     y="64.730812"
     id="num24"     
     class="num"><tspan 
 x="101.05271"
 y="64.730812"
 >4</tspan></text>
<text
     xml:space="preserve"
     x="56.161709"
     y="36.515167"
     id="num25"     
     class="num"><tspan 
 x="56.161709"
 y="36.515167"
 >5</tspan></text>
<text
     xml:space="preserve"
     x="120.74156"
     y="42.167252"
     id="num26"     
     class="num"><tspan 
 x="120.74156"
 y="42.167252"
 >6</tspan></text>
<text
     xml:space="preserve"
     x="106.29411"
     y="160.57335"
     id="num31"
     class="num"><tspan 
 x="106.29411"
 y="160.57335"
 >1</tspan></text>
<text
     xml:space="preserve"
     x="119.59682"
     y="140.47719"
     id="num32"     
     class="num"><tspan 
 x="119.59682"
 y="140.47719"
 >2</tspan></text>
<text
     xml:space="preserve"
     x="141.81572"
     y="129.88919"
     id="num33"     
     class="num"><tspan 
 x="141.81572"
 y="129.88919"
 >3</tspan></text>
<text
     xml:space="preserve"
     x="115.83025"
     y="110.49352"
     id="num34"     
     class="num"><tspan 
 x="115.83025"
 y="110.49352"
 >4</tspan></text>
<text
     xml:space="preserve"
     x="149.43503"
     y="106.74822"
     id="num35"     
     class="num"><tspan 
 x="149.43503"
 y="106.74822"
 >5</tspan></text>
<text
     xml:space="preserve"
     x="163.32631"
     y="86.023178"
     id="num36"     
     class="num"><tspan 
 x="163.32631"
 y="86.023178"
 >6</tspan></text>
</svg>