<?xml version="1.0" encoding="utf-8"?><svg xmlns="http://www.w3.org/2000/svg" xmlns:xlink="http://www.w3.org/1999/xlink" version="1.1" class="page" pageAlignment="none" x="0px" y="0px" width="292px" height="482px" viewBox="0 0 292 482" enable-background="new 0 0 292 482" xml:space="preserve"><defs/><style type="text/css"/><style type="text/css"/><g type="LAYER" name="workspace" id="workspace" locked="true"/><path width="292" height="482" stroke-miterlimit="3" stroke="none" fill="#FFFFFF" d="M0,0 L156.141,0 C150.951,2.07 146.57999999999998,5.7 142.411,9.33 C134.421,16.36 128.361,26.22 127.521,36.98 C127.441,48.25 132.77100000000002,58.91 139.481,67.69 C140.331,69.31 142.101,67.92 143.21099999999998,67.45 C150.88099999999997,63.03 158.65099999999998,57.940000000000005 163.43099999999998,50.260000000000005 C168.97199999999998,41.281000000000006 169.892,30.110000000000007 167.301,20.010000000000005 C165.74099999999999,12.650000000000006 161.791,6.150000000000006 157.631,3.552713678800501e-15 L292,3.552713678800501e-15 L292,120.65 C283.29,114.67 272.84,110.23 262.07,111.5 C252.769,112.26 245.509,119.12 240.279,126.31 C238.66,128.67000000000002 236.74,131.02 236.22,133.91 C239.81,137.79 244.879,139.74 249.499,142.09 C255.049,145.13 261.679,145.21 267.749,144.05 C278.03900000000004,141.72 286.39000000000004,134.27 291.999,125.59 L291.999,482 L123.11,482 C127.96,440.11 131.9,398.08 133.92,355.96 C134.89,346.66999999999996 134.23,337.28999999999996 135.13,328 C135.76999999999998,311.34 135.12,294.67 135.31,278.02 C135.2,267.68 138.34,257.64099999999996 142.32,248.20999999999998 C147.779,235.11999999999998 156.32,223.17999999999998 158.85999999999999,208.98999999999998 C160.76999999999998,197.39999999999998 159.62099999999998,185.38 155.99099999999999,174.23 C153.99099999999999,168.41 151.27999999999997,162.75 147.25099999999998,158.04999999999998 C149.64199999999997,165.14999999999998 150.91099999999997,172.54999999999998 151.831,179.96999999999997 C153.142,189.29999999999998 152.581,198.96999999999997 149.50099999999998,207.90999999999997 C145.03099999999998,221.85999999999996 136.19099999999997,233.83999999999997 131.07099999999997,247.49999999999997 C130.78099999999998,247.51999999999998 130.20099999999996,247.56099999999998 129.90099999999998,247.57999999999998 C124.27099999999999,224.89 112.00099999999998,204.48999999999998 106.09099999999998,181.87 C102.86099999999998,169.53 101.44099999999997,156.77 101.21099999999998,144.04000000000002 C100.32099999999998,137.12000000000003 101.36099999999999,129.93 99.04099999999998,123.24000000000002 C95.07099999999998,139.82000000000002 94.93099999999998,157.02000000000004 95.44099999999999,173.98000000000002 C96.69099999999999,195.13000000000002 104.201,215.15000000000003 110.33099999999999,235.23000000000002 C104.01,228 97,221.11 88.2,216.95 C81.09,213.17999999999998 73,211.78 65.03,211.45999999999998 C65.22,211.82999999999998 65.58,212.55999999999997 65.77,212.92 C73.46,215.44 81.03999999999999,218.64 87.74,223.23 C96.25999999999999,229.53 102.58,238.48 106.67999999999999,248.189 C111.27,258.93899999999996 114.77999999999999,270.25 116.38,281.859 C116.88,289.90999999999997 117.8,297.95 117.42,306.029 C116.49,322.179 115.06,338.29 113.52,354.38 C110,391.94 103.89,429.24 95.57,466.02 C94.41,471.34999999999997 93.00999999999999,476.621 92.05999999999999,482 L0,482 L0,161.35 C1.57,163.14 3.39,165.38 6.01,165.35 C7.7299999999999995,165.07999999999998 9.86,164.7 10.78,163.01999999999998 C9.94,161.14999999999998 8.549999999999999,159.35 6.549999999999999,158.67 C4.379999999999999,158.29 2.179999999999999,158.57 -8.881784197001252e-16,158.63 L-8.881784197001252e-16,0 Z "/><path class="l27" width="41.13396" height="68.44141" stroke-miterlimit="3" stroke="none" fill="#EE5656" d="M156.141,0 L157.63,0 C161.79,6.15 165.74,12.65 167.29999999999998,20.01 C169.891,30.11 168.97099999999998,41.281000000000006 163.42999999999998,50.260000000000005 C158.65099999999998,57.940000000000005 150.87999999999997,63.031000000000006 143.20999999999998,67.45 C142.09999999999997,67.92 140.32999999999998,69.31 139.48,67.69 C132.76999999999998,58.91 127.44,48.25 127.51999999999998,36.98 C128.35999999999999,26.22 134.42,16.359999999999996 142.40999999999997,9.329999999999998 C146.58,5.7 150.95,2.07 156.141,0 Z "/><path width="2.977439000000004" height="2.777040000000003" stroke-miterlimit="3" stroke="none" fill="#EE5656" d="M152.221,18.41 C153.59,17.3 155.62,19.56 153.981,20.6 C152.609,21.69 150.55,19.43 152.221,18.41 Z "/><path class="l25" width="40.443039999999996" height="44.340059999999994" stroke-miterlimit="3" stroke="none" fill="#EE5656" d="M74.46,27.42 C88.28999999999999,26.310000000000002 103.64999999999999,31.8 110.82,44.27 C115.77999999999999,52.43000000000001 114.75,62.34 114.27999999999999,71.44 C105.96999999999998,72.1 97.32,71.07 89.77999999999999,67.38 C82.10999999999999,63.419999999999995 77.53999999999999,55.28999999999999 75.43999999999998,47.19 C73.77,40.74 74.29,34 74.46,27.42 Z "/><path class="l27" width="9.579999999999998" height="9.14" stroke-miterlimit="3" stroke="none" fill="#EE5656" d="M112.23,29.43 C115.01,29.509999999999998 118.18,29.66 120.11,31.99 C122.07,33.61 121.61,36.32 121.81,38.57 C119.51,38.35 116.74000000000001,38.99 114.99000000000001,37.07 C112.59,35.27 112.27,32.2 112.23,29.43 Z "/><path class="l27" width="8.241607999999985" height="10.48666" stroke-miterlimit="3" stroke="none" fill="#EE5656" d="M174.6,37.46 C176.26999999999998,34.72 179.32999999999998,32.97 182.571,33.370000000000005 C182.481,36.150000000000006 182.791,39.410000000000004 180.561,41.50000000000001 C179.09,43.410000000000004 176.64100000000002,43.57000000000001 174.451,43.800000000000004 C174.43,41.69 174.109,39.53 174.6,37.46 Z "/><path class="l17" width="42.785354" height="56.854000000000006" stroke-miterlimit="3" stroke="none" fill="#89B0E8" d="M44.35,96.837 C42.229,96.561 30.733,94.241 23.770000000000003,80.259 C17.500000000000004,68.789 17.470000000000002,55.109 19.740000000000002,42.559 C32.790000000000006,42.269 46.09,47.289 55.29,56.649 C68.335,66.337 56.199999999999996,97.337 53.167,99.41300000000001 "/><path class="l26" width="54.46460300000001" height="34.65150999999999" stroke-miterlimit="3" stroke="none" fill="#EE5656" d="M175.79,56.7 C179.391,50.300000000000004 184.79,44.38 192.09,42.400000000000006 C203.279,39.46000000000001 215.33,41.57000000000001 225.5,46.86000000000001 C222.02,58.74000000000001 213.82,69.94 201.82999999999998,74.15 C192.42999999999998,77.64 182.15999999999997,74.79 173.42999999999998,70.76 C172.40099999999998,70.2 170.61999999999998,69.65 171.11999999999998,68.10000000000001 C171.8,64.01 173.84,60.3 175.79,56.7 Z "/><path class="l25" width="11.009999999999991" height="19.83" stroke-miterlimit="3" stroke="none" fill="#EE5656" d="M116.48,64.04 C116.45,60.190000000000005 118.98,57.06 121.11,54.10000000000001 C124.58,56.66000000000001 127.71,60.45000000000001 127.49,65.02000000000001 C127.58999999999999,68.57000000000001 124.83999999999999,71.20000000000002 122.99,73.93 C119.48,71.97 116.18,68.31 116.48,64.04 Z "/><path width="2.828879999999998" height="2.924979999999998" stroke-miterlimit="3" stroke="none" fill="#89B0E8" d="M46.43,59.1 C47.49,57.51 49.78,59.51 48.62,60.88 C47.56,62.46 45.27,60.46 46.43,59.1 Z "/><path class="l24" width="11.948061999999993" height="17.43" stroke-miterlimit="3" stroke="none" fill="#EE5656" d="M154.51,66.48 C156.2,62.42 160.42999999999998,60.400000000000006 164.35999999999999,59.080000000000005 C165.701,62.35000000000001 166.15099999999998,66.03 165.26999999999998,69.48 C163.79099999999997,73.67 159.40099999999998,76.60000000000001 154.981,76.51 C154.439,73.24 152.83,69.68 154.51,66.48 Z "/><path class="l37" width="8.629999999999995" height="9.307959999999994" stroke-miterlimit="3" stroke="none" fill="#AEDA8C" d="M223.49,69.57 C225.679,67.3 228.529,66.02 231.71,66.19 C231.67000000000002,69.03999999999999 231.85,72.38 229.15,74.16 C227.54,76.11999999999999 225.07,75.57 223.08,74.69 C223.221,72.98 223.359,71.28 223.49,69.57 Z "/><path class="l23" width="12.762719999999973" height="16.63000000000001" stroke-miterlimit="3" stroke="none" fill="#EE5656" d="M132.14,83.77 C129.38,80.22999999999999 128.91,75.25999999999999 130.51,71.11 C135.07,71.94 140.01999999999998,74.14 141.70999999999998,78.81 C142.99999999999997,81.68 142.09999999999997,84.84 141.40999999999997,87.74000000000001 C138.13,87.07 134.47,86.42 132.14,83.77 Z "/><path class="l17" width="7.256690000000006" height="10.122839999999997" stroke-miterlimit="3" stroke="none" fill="#89B0E8" d="M69.29,79.96 C68.5,76.05999999999999 72.45,72.28999999999999 76.29,73.55999999999999 C76.97000000000001,77.51999999999998 75.63000000000001,82.36999999999999 71.2,83.36999999999999 C69.24,83.95 69.46,81.17 69.29,79.96 Z "/><path class="l23" width="40.85583" height="44.26056" stroke-miterlimit="3" stroke="none" fill="#EE5656" d="M97.74,73.65 C109.86,72.54 122.94,76.55000000000001 131.01999999999998,85.96000000000001 C138.7,94.47000000000001 139.20999999999998,106.87 137.45999999999998,117.62 C127.27999999999997,118.18 115.98999999999998,116.99000000000001 108.02999999999997,109.99000000000001 C98.48,100.64 96.55,86.39 97.74,73.65 Z "/><path class="l37" width="52.27455999999998" height="50.12131000000001" stroke-miterlimit="3" stroke="none" fill="#AEDA8C" d="M242.42,75 C248.06099999999998,74.05 253.81099999999998,74.39 259.5,74.49 C260.45,85.28999999999999 258.779,96.44999999999999 253.29,105.91 C248.141,114.74 239.269,121.86 228.98,123.34 C221.939,124.49000000000001 214.62,125.14 207.62,123.45 C206.971,111.49000000000001 208,98.31 215.63,88.52000000000001 C222.46,80.91 232.38,76.39 242.42,75 Z "/><path class="l24" width="48.09" height="38.31415" stroke-miterlimit="3" stroke="none" fill="#EE5656" d="M152.99,83.92 C163.22,75.25 177.859,74.76 190.359,77.7 C189.58,90.45 184.019,103.75 172.59900000000002,110.42 C163.48000000000002,116.01 152.18900000000002,114.85 142.269,112.38 C142.87,102.23 145.2,91.09 152.99,83.92 Z "/><path class="l26" width="17.449000000000012" height="12.243099999999984" stroke-miterlimit="3" stroke="none" fill="#EE5656" d="M199.71,83.57 C203.42000000000002,80.72 208.68,80.8 212.85000000000002,82.55999999999999 C211.67000000000002,86.12999999999998 210.20100000000002,89.92999999999999 206.86,92.03999999999999 C203.48100000000002,94.49 199.04100000000003,93.6 195.401,92.30999999999999 C196.5,89.27 197.09,85.73 199.71,83.57 Z "/><path class="l17" width="11.869659999999996" height="19.959999999999994" stroke-miterlimit="3" stroke="none" fill="#89B0E8" d="M70.19,94.09 C71.31,90.07000000000001 74.49,87.09 78.00999999999999,85.07000000000001 C79.67999999999999,87.82000000000001 81.6,90.68 81.61999999999999,94.03 C82.1,99.05 78.27999999999999,104.18 73.29999999999998,105.03 C71.5,101.73 68.7,98.04 70.19,94.09 Z "/><path class="l23" width="7.025750000000002" height="11.719999999999999" stroke-miterlimit="3" stroke="none" fill="#EE5656" d="M86.69,97.97 C85.82,95.27 86.63,92.47 87.83,90.02 C89.78999999999999,91.41 92.14,92.67999999999999 93.00999999999999,95.08 C94.02999999999999,97.27 92.55999999999999,99.58 92.13999999999999,101.74 C89.94,101.17 87.9,99.93 86.69,97.97 Z "/><path class="l16" width="40.36" height="34.36728000000002" stroke-miterlimit="3" stroke="none" fill="#89B0E8" d="M5.26,96.63 C16.38,93.75999999999999 29.47,95.89 37.65,104.42 C43.9,110.65 45.33,119.98 45.62,128.42000000000002 C36.709999999999994,130.24 26.339999999999996,131.10000000000002 18.459999999999997,125.67000000000002 C9.48,119.03 5.35,107.5 5.26,96.63 Z "/><path class="l16" width="8.927280000000003" height="8.330039999999997" stroke-miterlimit="3" stroke="none" fill="#89B0E8" d="M39.97,99.53 C44.9,98.46000000000001 49.7,102.56 48.79,107.69 C46.67,107.52 44.11,108.17999999999999 42.46,106.47 C40.28,104.84 40.36,101.94 39.97,99.53 Z "/><path class="l37" width="11.434007999999949" height="7.830729999999988" stroke-miterlimit="3" stroke="none" fill="#AEDA8C" d="M259.561,107.43 C258.59999999999997,104.5 260.26,101.45 263.04999999999995,100.31 C265.50999999999993,98.9 268.23099999999994,100.24000000000001 270.72099999999995,100.84 C269.74099999999993,102.99000000000001 268.64099999999996,105.22 266.5799999999999,106.53 C264.609,108.16 261.88,107.24 259.561,107.43 Z "/><path class="l37" width="11.472767999999974" height="7.215119999999999" stroke-miterlimit="3" stroke="none" fill="#AEDA8C" d="M190.51,104.66 C193.12,104.14999999999999 196.32999999999998,103.81 198.60999999999999,105.49 C199.56099999999998,107.69 197.201,109.36 195.60999999999999,110.42999999999999 C193.25099999999998,112.25999999999999 190.06099999999998,111.36999999999999 187.74099999999999,109.99 C186.33,107.8 189.01,105.9 190.51,104.66 Z "/><path stroke-miterlimit="3" stroke="none" fill="#FFFFFF" d="M232.92,107.39 "/><path width="0.8199999999999932" height="3.1400000000000006" stroke-miterlimit="3" stroke="none" fill="#FFFFFF" d="M249.01,104.3 C249.28,105.34 249.54999999999998,106.39 249.82999999999998,107.44 "/><path stroke-miterlimit="3" stroke="none" fill="#FFFFFF" d="M233.77,107.21 "/><path class="l15" width="39.24238" height="46.22000000000001" stroke-miterlimit="3" stroke="none" fill="#89B0E8" d="M52.57,108.39 C66.59,107.94 81.76,114.7 88.06,127.78 C91.26,133.68 90.75,140.57 90.59,147.05 C90.54,149.61 89.98,152.13000000000002 89.39,154.61 C79.28,154.55 68.19,152.58 60.650000000000006,145.31 C51.65,135.52 49.99,120.98 52.57,108.39 Z "/><path class="l36" width="55.778999999999996" height="33.45059000000002" stroke-miterlimit="3" stroke="none" fill="#AEDA8C" d="M240.279,126.31 C245.509,119.12 252.769,112.26 262.07,111.5 C272.84,110.23 283.28999999999996,114.67 292,120.65 L292,125.59 C286.391,134.27 278.04,141.72 267.75,144.05 C261.68,145.21 255.05,145.13000000000002 249.5,142.09 C244.88,139.74 239.811,137.79 236.221,133.91 C236.74,131.02 238.66,128.67 240.279,126.31 Z "/><path class="l15" width="7.003610000000009" height="11.14" stroke-miterlimit="3" stroke="none" fill="#89B0E8" d="M90.5,113.01 C96.12,112.89 98.84,120.76 94.29,124.15 C92.61,122.61 90.41000000000001,121.33000000000001 89.64,119.05000000000001 C89.24,116.99 90.09,114.99 90.5,113.01 Z "/><path class="l22" width="52.41" height="36.035979999999995" stroke-miterlimit="3" stroke="none" fill="#EE5656" d="M156.04,123.96 C161.779,115.17999999999999 172.98999999999998,111.91 183,112.41999999999999 C189.09,112.86999999999999 195.26,113.98999999999998 200.82999999999998,116.60999999999999 C198.189,129.57 189.98999999999998,142.33999999999997 177.04,146.79999999999998 C167.60899999999998,150.51999999999998 157.529,147.07 148.42,144.07999999999998 C148.891,136.83 152.08,129.95 156.04,123.96 Z "/><path class="l14" width="7.7125" height="8.780000000000001" stroke-miterlimit="3" stroke="none" fill="#89B0E8" d="M2.52,125.47 C0.2999999999999998,123.65 1.3800000000000001,120.45 1.3800000000000001,117.991 C3.9299999999999997,118.931 7.21,119.591 8.41,122.381 C8.69,123.831 8.72,125.311 8.83,126.771 C6.74,126.47 4.15,127.16 2.52,125.47 Z "/><path class="l21" width="11.61384000000001" height="17.960000000000008" stroke-miterlimit="3" stroke="none" fill="#EE5656" d="M108.74,123.77 C110.74,120.78999999999999 114.17999999999999,119.36999999999999 117.35,118.00999999999999 C119.00999999999999,121.36999999999999 119.13,125.28099999999999 118.39,128.89 C116.9,132.92 112.74,135.14999999999998 108.74,135.97 C107.41,132.16 106.08,127.31 108.74,123.77 Z "/><path class="l21" width="11.18329" height="18.639999999999986" stroke-miterlimit="3" stroke="none" fill="#EE5656" d="M133.27,126.78 C134.77,123.77 137.13000000000002,120.63 140.63000000000002,119.969 C143.70000000000002,124.309 145.38000000000002,130.97899999999998 141.26000000000002,135.219 C139.84000000000003,136.47899999999998 138.37000000000003,138.569 136.37000000000003,138.60899999999998 C133.45,135.6 131.3,130.85 133.27,126.78 Z "/><path width="94.73767599999995" height="358.76" stroke-miterlimit="3" stroke="none" fill="#523F31" d="M95.44,173.98 C94.92999999999999,157.01999999999998 95.07,139.82 99.03999999999999,123.23999999999998 C101.35999999999999,129.92999999999998 100.32,137.11999999999998 101.21,144.04 C101.44,156.76999999999998 102.86,169.53 106.08999999999999,181.87 C111.99999999999999,204.49 124.26999999999998,224.89000000000001 129.89999999999998,247.57999999999998 C130.2,247.55999999999997 130.77999999999997,247.51899999999998 131.06999999999996,247.49999999999997 C136.18999999999997,233.83999999999997 145.02999999999997,221.85999999999996 149.49999999999997,207.90999999999997 C152.57999999999998,198.96999999999997 153.14099999999996,189.29999999999995 151.82999999999998,179.96999999999997 C150.91,172.54999999999998 149.641,165.14999999999998 147.24999999999997,158.04999999999995 C151.27899999999997,162.74999999999994 153.98999999999998,168.40999999999997 155.98999999999998,174.22999999999996 C159.61999999999998,185.37999999999997 160.76899999999998,197.39999999999998 158.85899999999998,208.98999999999995 C156.32,223.17999999999995 147.77899999999997,235.11999999999995 142.319,248.20999999999995 C138.339,257.64099999999996 135.19899999999998,267.67999999999995 135.309,278.0199999999999 C135.119,294.6699999999999 135.769,311.3399999999999 135.129,327.99999999999994 C134.22899999999998,337.28999999999996 134.88899999999998,346.66999999999996 133.91899999999998,355.9599999999999 C131.89899999999997,398.0799999999999 127.95899999999999,440.1099999999999 123.10899999999998,481.99999999999994 L92.06,481.99999999999994 C93.01,476.61999999999995 94.41,471.34999999999997 95.57000000000001,466.0199999999999 C103.89000000000001,429.24099999999993 110,391.93999999999994 113.52000000000001,354.37999999999994 C115.06000000000002,338.28999999999996 116.49000000000001,322.17999999999995 117.42000000000002,306.02899999999994 C117.80000000000001,297.94999999999993 116.88000000000001,289.90999999999997 116.38000000000001,281.8589999999999 C114.78000000000002,270.24999999999994 111.27000000000001,258.9389999999999 106.68,248.1889999999999 C102.58000000000001,238.4799999999999 96.26,229.52999999999992 87.74000000000001,223.2299999999999 C81.04,218.6399999999999 73.46000000000001,215.4399999999999 65.77000000000001,212.9199999999999 C65.58000000000001,212.5599999999999 65.22000000000001,211.8299999999999 65.03000000000002,211.4599999999999 C73.00000000000001,211.7799999999999 81.09000000000002,213.1799999999999 88.20000000000002,216.9499999999999 C97.00000000000001,221.1099999999999 104.01000000000002,227.99999999999991 110.33000000000001,235.2299999999999 C104.2,215.15 96.69,195.13 95.44,173.98 Z "/><path class="l35" width="14.457370999999995" height="13.271479999999997" stroke-miterlimit="3" stroke="none" fill="#AEDA8C" d="M218.439,131.39 C221.32999999999998,128.97 225.25,129.38 228.759,129.35999999999999 C229.009,133.47 227.939,137.85999999999999 224.51899999999998,140.45999999999998 C221.78999999999996,143.04999999999998 217.83899999999997,142.60999999999999 214.39999999999998,142.55999999999997 C214.09,138.52 214.67,133.73 218.439,131.39 Z "/><path class="l21" width="33.05399999999999" height="58.5565" stroke-miterlimit="3" stroke="none" fill="#EE5656" d="M122.32,132.25 C122.88999999999999,131.33 123.66999999999999,131.06 124.66,131.44 C133.57999999999998,137.24 140.64,146.46 142.54,157.05 C142.95999999999998,162.66000000000003 143.32,168.65 140.73999999999998,173.84 C138.01,179.88 133.86999999999998,185.23000000000002 129.13,189.83 C120.34,183.58 111.3,175.32000000000002 109.88,164.03 C108.88,152.19 114.6,140.87 122.32,132.25 Z "/><path class="l14" width="42.540000000000006" height="31.07405" stroke-miterlimit="3" stroke="none" fill="#89B0E8" d="M2.3,134.42 C11.54,130.32999999999998 22.76,130.33999999999997 31.59,135.48 C40,140.34 44.08,150.2 44.84,159.51 C36.260000000000005,162.45999999999998 26.020000000000003,164.60999999999999 17.810000000000002,159.51 C8.88,154.21 4.63,144.09 2.3,134.42 Z "/><path class="l34" width="18.738999999999976" height="11.199569999999994" stroke-miterlimit="3" stroke="none" fill="#AEDA8C" d="M196.87,136.08 C201.029,134.55 205.18,136.79000000000002 208.8,138.64000000000001 C206.83,142.46 203.651,146.52 198.98100000000002,146.69000000000003 C195.8,147.16000000000003 192.82100000000003,145.90000000000003 190.06100000000004,144.50000000000003 C190.51,140.69 193.48,137.58 196.87,136.08 Z "/><path class="l15" width="13.559999999999995" height="10.138800000000003" stroke-miterlimit="3" stroke="none" fill="#89B0E8" d="M42.28,136.47 C45.300000000000004,136.5 48.69,135.83 51.3,137.76 C54.08,139.32999999999998 54.75,142.67999999999998 55.839999999999996,145.41 C53,146.6 49.529999999999994,147.18 46.78999999999999,145.41 C43.71,143.58 42.21,139.96 42.28,136.47 Z "/><path class="l35" width="55.54923099999999" height="34.57855999999998" stroke-miterlimit="3" stroke="none" fill="#AEDA8C" d="M214.04,151.21 C222.769,145.77 233.23,141.35000000000002 243.68,143.64000000000001 C254.321,146.51000000000002 262.42,155.01000000000002 267.471,164.5 C268.29,166.4 270.13,168.33 269.46,170.53 C260.721,176.14000000000001 249.83999999999997,179.03 239.51999999999998,176.92 C233.87099999999998,175.54999999999998 228.27999999999997,172.98999999999998 224.331,168.60999999999999 C219.65,163.68 216.38,157.55 214.04,151.21 Z "/><path class="l36" width="12.13445999999999" height="7.191180000000003" stroke-miterlimit="3" stroke="none" fill="#AEDA8C" d="M264.29,147.59 C268.35900000000004,144.53 275.23,146.92000000000002 275.66,152.17000000000002 C272.39000000000004,153.43 268.269,154.48000000000002 265.54,151.53000000000003 C264.71,150.53 262.3,148.63 264.29,147.59 Z "/><path class="l22" width="9.233647999999988" height="11.51764" stroke-miterlimit="3" stroke="none" fill="#EE5656" d="M148.529,148.16 C154.56,147.48 159.66,154.06 156.929,159.64 C154.099,159.91 151.03900000000002,158.73 149.529,156.23999999999998 C147.939,153.85 148.59,150.85 148.529,148.16 Z "/><path class="l34" width="58.69102399999997" height="33.195167999999995" stroke-miterlimit="3" stroke="none" fill="#AEDA8C" d="M177.333,180.438 C171.483,176.548 165.609,172.351 161.57,166.521 C160.519,165.19099999999997 162.20999999999998,163.951 162.95999999999998,163.00099999999998 C169.49999999999997,156.551 177.54999999999998,150.56099999999998 187.01999999999998,149.861 C200.22099999999998,149.831 211.88,158.071 219.92999999999998,167.96099999999998 C210.26999999999998,179.541 193.313,187.04299999999998 178.78999999999996,180.96099999999998 "/><path class="l13" width="11.40426" height="11.120000000000005" stroke-miterlimit="3" stroke="none" fill="#89B0E8" d="M51.27,154.5 C54.95,154.46 59.150000000000006,155.29 61.370000000000005,158.53 C62.92,160.57 62.53,163.23 62.67,165.62 C59.81,165.54 56.47,165.97 54.300000000000004,163.67000000000002 C51.63,161.42 51.2,157.78 51.27,154.5 Z "/><path class="l14" width="10.780000000000001" height="6.8755199999999945" stroke-miterlimit="3" stroke="none" fill="#89B0E8" d="M0,158.63 C2.18,158.57 4.38,158.29 6.55,158.67 C8.55,159.35 9.94,161.14999999999998 10.780000000000001,163.01999999999998 C9.860000000000001,164.7 7.730000000000001,165.07999999999998 6.010000000000002,165.35 C3.3900000000000015,165.38 1.5700000000000012,163.14 1.7763568394002505e-15,161.35 L1.7763568394002505e-15,158.63 Z "/><path class="l13" width="14.54664000000001" height="13.338639999999998" stroke-miterlimit="3" stroke="none" fill="#89B0E8" d="M77.17,160.36 C80.42,160.4 84.05,159.87 86.82000000000001,161.99 C90.60000000000001,164.29000000000002 92.64000000000001,169.13 91.31,173.39000000000001 C87.3,174.13000000000002 82.51,173.60000000000002 79.93,170.06 C77.43,167.45 77.21,163.77 77.17,160.36 Z "/><path class="l12" width="14.69559" height="8.893280000000004" stroke-miterlimit="3" stroke="none" fill="#89B0E8" d="M28.56,167.65 C32.07,165.08 36.55,166.66 39.93,168.62 C39.16,172.22 35.72,175.09 32.04,175.21 C29.68,174.85 27.31,174.07000000000002 25.4,172.61 C24.52,170.4 27.07,168.8 28.56,167.65 Z "/><path class="l13" width="46.31337" height="31.602093999999994" stroke-miterlimit="3" stroke="none" fill="#89B0E8" d="M89.46,196.1 C83.20899999999999,198.708 73.69999999999999,201.17 65.85999999999999,198.57999999999998 C55.26999999999998,194.64 48.329999999999984,184.39 45.389999999999986,173.85999999999999 C44.29999999999998,171.38 47.52999999999999,170.98999999999998 49.109999999999985,170.23999999999998 C59.36999999999998,166.719 71.98999999999998,167.08999999999997 80.57999999999998,174.39 C84.04999999999998,177.48 86.99999999999999,181.32799999999997 88.58299999999998,185.75 C89.66599999999998,188.417 90.70899999999999,192.08 91.49999999999999,195.25 "/><path class="l34" width="13.239456000000018" height="14.409610000000015" stroke-miterlimit="3" stroke="none" fill="#AEDA8C" d="M161.359,175.34 C164.50900000000001,175.20000000000002 168.04000000000002,175.13 170.529,177.42000000000002 C174.25,180.28000000000003 174.67,185.3 174.519,189.63000000000002 C170.209,190.03000000000003 165.669,188.51000000000002 162.99,185.00000000000003 C160.641,182.34 161.471,178.56 161.359,175.34 Z "/><path class="l12" width="48.809999999999995" height="27.611489999999975" stroke-miterlimit="3" stroke="none" fill="#89B0E8" d="M2.13,189.31 C9.05,182.86 18.3,178.3 27.98,179.34 C38.269999999999996,179.66 45.730000000000004,187.96 50.94,196 C44.19,202.12 35.629999999999995,207.98 26.04,206.6 C15.8,205.17 7.68,197.61 2.13,189.31 Z "/><path class="l33" width="56.38900000000001" height="34.24370000000002" stroke-miterlimit="3" stroke="none" fill="#AEDA8C" d="M202.2,187.44 C210.54999999999998,182.39 219.98,177.42 230.06,178.63 C240.339,180.57999999999998 248.999,187.71 254.50900000000001,196.41 C255.98000000000002,198.98 258.289,201.37 258.589,204.42 C251.499,209.55999999999997 242.849,212.82999999999998 234.019,212.69 C224.50900000000001,212.95 214.93900000000002,208.4 209.4,200.62 C206.561,196.51 203.471,192.34 202.2,187.44 Z "/><path class="l21" width="11.639347999999984" height="16.371909999999986" stroke-miterlimit="3" stroke="none" fill="#EE5656" d="M137.94,185.98 C140.29,183.25 143.66,180.95 147.44,181.38 C147.661,184.57999999999998 148.17,187.85999999999999 147.43,191.03 C145.98000000000002,195.34 141.29000000000002,198.3 136.77,197.6 C136.58,193.79 134.99,189.13 137.94,185.98 Z "/><path class="l33" width="17.666911999999996" height="11.374319999999983" stroke-miterlimit="3" stroke="none" fill="#AEDA8C" d="M251.42,181.56 C254.86999999999998,181.12 258.96,180.62 261.83,183.04 C264.21,184.82 265.62,187.57999999999998 265.96,190.51 C263.08,191.54999999999998 260.09,193.04999999999998 256.93899999999996,192.42999999999998 C253.13999999999996,191.26 250.09899999999996,188.17 248.51899999999998,184.57999999999998 C247.49,182.68 250.04,181.89 251.42,181.56 Z "/><path class="l32" width="45.03548000000001" height="40.678560000000004" stroke-miterlimit="3" stroke="none" fill="#AEDA8C" d="M190.79,230.2 C188.75,228.958 188.2,228.94 187.1,227.89999999999998 C181.661,224.06999999999996 177.15099999999998,218.64999999999998 175.37099999999998,212.14999999999998 C173.731,206.49999999999997 173.16099999999997,200.58999999999997 173.421,194.72999999999996 C182.982,192.71999999999997 193.65099999999998,192.82999999999996 202.31199999999998,197.81999999999996 C213.63099999999997,205.37999999999997 218.011,219.55999999999997 218.402,232.55999999999997 C217.00199999999998,233.93999999999997 214.79199999999997,233.40999999999997 213.03099999999998,233.81999999999996 C206.16199999999998,234.95999999999995 199.242,233.34999999999997 192.771,231.08999999999997 "/><path class="l21" width="13.00469000000001" height="15.393979999999999" stroke-miterlimit="3" stroke="none" fill="#EE5656" d="M118.58,193.4 C124.23,193.38 130.43,196.92000000000002 131.27,202.9 C131.25,204.75 131.95000000000002,207.18 130.58,208.66 C126.51000000000002,209.34 121.81000000000002,207.68 119.85000000000001,203.85999999999999 C117.9,200.73 118.49,196.89 118.58,193.4 Z "/><path class="l32" width="11.406574000000006" height="17.960000000000008" stroke-miterlimit="3" stroke="none" fill="#AEDA8C" d="M161.87,201.79 C163.33,198.23999999999998 166.95000000000002,196.42999999999998 170.24,194.94 C172.14000000000001,198.22 173.56,202.24 172.07000000000002,205.97 C170.29900000000004,209.65 166.68900000000002,212.59 162.52900000000002,212.9 C161.34,209.35 160.77,205.43 161.87,201.79 Z "/><path class="l13" transform="matrix(1 0 0 1 2.27895981087471 2.278959810874717)" width="12.667940000000016" height="14.380000000000024" stroke-miterlimit="3" stroke="none" fill="#89B0E8" d="M86.64,202.52 C89.74,202.82000000000002 93.08,203.24 95.51,205.38000000000002 C99,207.96000000000004 100.08000000000001,212.94000000000003 98.55000000000001,216.90000000000003 C95.38000000000001,216.45000000000005 91.70000000000002,216.35000000000002 89.45000000000002,213.69000000000003 C86.53,210.75 86.4,206.39 86.64,202.52 Z "/><path class="l11" width="18.53" height="10.120730000000009" stroke-miterlimit="3" stroke="none" fill="#89B0E8" d="M45.26,212.05 C47.79,209.22 51.12,206.81 55.04,206.60000000000002 C58.51,206.73000000000002 61.2,209.19000000000003 63.79,211.21000000000004 C61.45,213.73000000000005 58.87,217.01000000000005 55.01,216.71000000000004 C51.13,217.03 48.02,214.4 45.26,212.05 Z "/><path class="l32" width="13.12858" height="15.089999999999975" stroke-miterlimit="3" stroke="none" fill="#AEDA8C" d="M220.35,215.5 C224.84,215.38 229.54999999999998,217.24 232.01,221.14 C233.85999999999999,223.94 233.41,227.42 233.41,230.58999999999997 C229.471,230.65999999999997 224.89,229.95999999999998 222.43,226.50999999999996 C219.87,223.43 220.38,219.22 220.35,215.5 Z "/><path class="l33" width="10.531000000000006" height="8.195439999999962" stroke-miterlimit="3" stroke="none" fill="#AEDA8C" d="M235.359,216.54 C237.71,216.64 240.39000000000001,216.1 242.4,217.67999999999998 C244.67000000000002,219.26 245.33,222.08999999999997 245.89000000000001,224.62999999999997 C243.179,224.53999999999996 239.9,225.40999999999997 237.78900000000002,223.20999999999998 C235.721,221.63 235.42,218.95 235.359,216.54 Z "/><path class="l11" width="21.53" height="11.658240000000006" stroke-miterlimit="3" stroke="none" fill="#89B0E8" d="M26.18,223.3 C29.2,220.49 32.56,217.24 36.99,217.31 C41.370000000000005,216.76 44.86,219.84 47.71,222.73 C45.54,224.73999999999998 43.56,227.13 40.81,228.36999999999998 C35.37,230.08 29.66,227.56 26.18,223.3 Z "/><path class="l31" width="35.32293600000003" height="53.144240000000025" stroke-miterlimit="3" stroke="none" fill="#AEDA8C" d="M161.471,219.39 C161.741,218.07999999999998 163.29,218.89 164.08,219.01 C173.32000000000002,221.91 183.13000000000002,226.35 188.13000000000002,235.13 C193.99000000000004,246.62 191.88000000000002,260.26 187.29000000000002,271.8 C177.20000000000002,270.3 167.84000000000003,264.38 161.83,256.17 C160.82000000000002,254.94000000000003 159.334,254.16700000000003 159,252.37500000000003 C156.946,248.40900000000002 157.46,246.70000000000002 156.73,243.96000000000004 C155.37,235.53 157.971,226.99 161.471,219.39 Z "/><path class="l11" width="48.7" height="27.28127999999998" stroke-miterlimit="3" stroke="none" fill="#89B0E8" d="M44.11,236.17 C50.21,227.41 59.99,220.29999999999998 71.06,220.60999999999999 C79.7,220.83999999999997 86.72,226.51999999999998 92.81,232.05999999999997 C88.44,238.50999999999996 82.7,244.58999999999997 75.19,247.22999999999996 C63.68,249.91 52.02,244.32 44.11,236.17 Z "/><path class="l32" width="12.819999999999993" height="8.432985000000002" stroke-miterlimit="3" stroke="none" fill="#AEDA8C" d="M208.859,238.54 C211.109,237.54 213.59900000000002,236.94 216.06,237.47 C219.22,238.81 221.48,242 221.679,245.43 C218.439,245.41 214.439,246.68 211.909,243.991 C210.29,242.58 209.721,240.42 208.859,238.54 Z "/><path class="l31" width="11.09742399999999" height="19.77000000000001" stroke-miterlimit="3" stroke="none" fill="#AEDA8C" d="M150.51,241.27 C152.85999999999999,243.96 154.95999999999998,247.23000000000002 154.67,250.97 C155.07,255.52 151.26,258.67 147.94,261.04 C145.601,257.90000000000003 142.53,254.109 143.94,249.93900000000002 C144.88,246.27 147.811,243.7 150.51,241.27 Z "/><path class="l31" width="14.443184000000002" height="13.384780000000006" stroke-miterlimit="3" stroke="none" fill="#AEDA8C" d="M193.26,241.36 C196.48999999999998,241.42000000000002 200.12,240.88000000000002 202.85,243.03 C206.51999999999998,245.25 208.65099999999998,250.12 207.29,254.21 C203.82999999999998,255.28 199.48999999999998,254.75 196.85,252.05 C193.93,249.311 193.24,245.189 193.26,241.36 Z "/><path class="l11" width="20.880000000000003" height="11.882832000000008" stroke-miterlimit="3" stroke="none" fill="#89B0E8" d="M34.92,250.01 C37.18,247.67 39.6,245.15099999999998 42.88,244.35999999999999 C47.660000000000004,242.581 52.92,245.391 55.800000000000004,249.17999999999998 C55.28,251.90099999999998 52.160000000000004,253.49999999999997 49.92,254.891 C44.44,257.37 38.76,253.78 34.92,250.01 Z "/></svg>