<?xml version="1.0" encoding="utf-8"?>
<!-- Generator: Adobe Illustrator 16.0.0, SVG Export Plug-In . SVG Version: 6.00 Build 0)  -->
<!DOCTYPE svg PUBLIC "-//W3C//DTD SVG 1.1//EN" "http://www.w3.org/Graphics/SVG/1.1/DTD/svg11.dtd">
<svg version="1.1" id="Capa_1" xmlns="http://www.w3.org/2000/svg" xmlns:xlink="http://www.w3.org/1999/xlink" x="0px" y="0px"
	 width="292px" height="482px" viewBox="0 0 292 482" enable-background="new 0 0 292 482" xml:space="preserve">
<path fill="#FFFFFF" d="M0,0h156.141c-5.19,2.07-9.561,5.7-13.73,9.33c-7.99,7.03-14.05,16.89-14.89,27.65
	c-0.08,11.27,5.25,21.93,11.96,30.71c0.85,1.62,2.62,0.23,3.73-0.24c7.67-4.42,15.44-9.51,20.22-17.19
	c5.541-8.979,6.461-20.15,3.87-30.25c-1.56-7.36-5.51-13.86-9.67-20.01H292v120.65c-8.71-5.98-19.16-10.42-29.93-9.15
	c-9.301,0.76-16.561,7.62-21.791,14.81c-1.619,2.36-3.539,4.71-4.059,7.6c3.59,3.88,8.659,5.83,13.279,8.18
	c5.55,3.04,12.18,3.12,18.25,1.96c10.29-2.33,18.641-9.78,24.25-18.46V482H123.11c4.85-41.89,8.79-83.92,10.81-126.04
	c0.97-9.29,0.31-18.67,1.21-27.96c0.64-16.66-0.01-33.33,0.18-49.98c-0.11-10.34,3.03-20.379,7.01-29.81
	c5.459-13.09,14-25.03,16.54-39.22c1.91-11.59,0.761-23.61-2.869-34.76c-2-5.82-4.711-11.48-8.74-16.18
	c2.391,7.1,3.66,14.5,4.58,21.92c1.311,9.33,0.75,19-2.33,27.94c-4.47,13.95-13.31,25.93-18.43,39.59
	c-0.29,0.02-0.87,0.061-1.17,0.08c-5.63-22.69-17.9-43.09-23.81-65.71c-3.23-12.34-4.65-25.1-4.88-37.83
	c-0.89-6.92,0.15-14.11-2.17-20.8c-3.97,16.58-4.11,33.78-3.6,50.74c1.25,21.15,8.76,41.17,14.89,61.25
	C104.01,228,97,221.11,88.2,216.95c-7.11-3.77-15.2-5.17-23.17-5.49c0.19,0.37,0.55,1.1,0.74,1.46c7.69,2.52,15.27,5.72,21.97,10.31
	c8.52,6.3,14.84,15.25,18.94,24.959c4.59,10.75,8.1,22.061,9.7,33.67c0.5,8.051,1.42,16.091,1.04,24.17
	c-0.93,16.15-2.36,32.261-3.9,48.351c-3.52,37.56-9.63,74.86-17.95,111.64c-1.16,5.33-2.56,10.601-3.51,15.98H0V161.35
	c1.57,1.79,3.39,4.03,6.01,4c1.72-0.27,3.85-0.65,4.77-2.33c-0.84-1.87-2.23-3.67-4.23-4.35c-2.17-0.38-4.37-0.1-6.55-0.04V0z"/>
<path fill="#EE5656" d="M156.141,0h1.489c4.16,6.15,8.11,12.65,9.67,20.01c2.591,10.1,1.671,21.271-3.87,30.25
	c-4.779,7.68-12.55,12.771-20.22,17.19c-1.11,0.47-2.88,1.86-3.73,0.24c-6.71-8.78-12.04-19.44-11.96-30.71
	c0.84-10.76,6.9-20.62,14.89-27.65C146.58,5.7,150.95,2.07,156.141,0z"/>
<path fill="#EE5656" d="M152.221,18.41c1.369-1.11,3.399,1.15,1.76,2.19C152.609,21.69,150.55,19.43,152.221,18.41z"/>
<path fill="#EE5656" d="M74.46,27.42c13.83-1.11,29.19,4.38,36.36,16.85c4.96,8.16,3.93,18.07,3.46,27.17
	c-8.31,0.66-16.96-0.37-24.5-4.06c-7.67-3.96-12.24-12.09-14.34-20.19C73.77,40.74,74.29,34,74.46,27.42z"/>
<path fill="#EE5656" d="M112.23,29.43c2.78,0.08,5.95,0.23,7.88,2.56c1.96,1.62,1.5,4.33,1.7,6.58c-2.3-0.22-5.07,0.42-6.82-1.5
	C112.59,35.27,112.27,32.2,112.23,29.43z"/>
<path fill="#EE5656" d="M174.6,37.46c1.67-2.74,4.73-4.49,7.971-4.09c-0.09,2.78,0.22,6.04-2.01,8.13
	c-1.471,1.91-3.92,2.07-6.11,2.3C174.43,41.69,174.109,39.53,174.6,37.46z"/>
<path fill="#89B0E8" d="M44.35,96.837c-2.121-0.276-13.617-2.596-20.58-16.578c-6.27-11.47-6.3-25.15-4.03-37.7
	c13.05-0.29,26.35,4.73,35.55,14.09c13.045,9.688,0.91,40.688-2.123,42.764"/>
<path fill="#EE5656" d="M175.79,56.7c3.601-6.4,9-12.32,16.3-14.3c11.189-2.94,23.24-0.83,33.41,4.46
	c-3.48,11.88-11.68,23.08-23.67,27.29c-9.4,3.49-19.67,0.64-28.4-3.39c-1.029-0.56-2.81-1.11-2.31-2.66
	C171.8,64.01,173.84,60.3,175.79,56.7z"/>
<path fill="#EE5656" d="M116.48,64.04c-0.03-3.85,2.5-6.98,4.63-9.94c3.47,2.56,6.6,6.35,6.38,10.92c0.1,3.55-2.65,6.18-4.5,8.91
	C119.48,71.97,116.18,68.31,116.48,64.04z"/>
<path fill="#89B0E8" d="M46.43,59.1c1.06-1.59,3.35,0.41,2.19,1.78C47.56,62.46,45.27,60.46,46.43,59.1z"/>
<path fill="#EE5656" d="M154.51,66.48c1.69-4.06,5.92-6.08,9.85-7.4c1.341,3.27,1.791,6.95,0.91,10.4
	c-1.479,4.19-5.869,7.12-10.289,7.03C154.439,73.24,152.83,69.68,154.51,66.48z"/>
<path fill="#AEDA8C" d="M223.49,69.57c2.189-2.27,5.039-3.55,8.22-3.38c-0.04,2.85,0.14,6.19-2.56,7.97
	c-1.61,1.96-4.08,1.41-6.07,0.53C223.221,72.98,223.359,71.28,223.49,69.57z"/>
<path fill="#EE5656" d="M132.14,83.77c-2.76-3.54-3.23-8.51-1.63-12.66c4.56,0.83,9.51,3.03,11.2,7.7c1.29,2.87,0.39,6.03-0.3,8.93
	C138.13,87.07,134.47,86.42,132.14,83.77z"/>
<path fill="#89B0E8" d="M69.29,79.96c-0.79-3.9,3.16-7.67,7-6.4c0.68,3.96-0.66,8.81-5.09,9.81C69.24,83.95,69.46,81.17,69.29,79.96
	z"/>
<path fill="#EE5656" d="M97.74,73.65c12.12-1.11,25.2,2.9,33.28,12.31c7.68,8.51,8.19,20.91,6.44,31.66
	c-10.18,0.56-21.47-0.63-29.43-7.63C98.48,100.64,96.55,86.39,97.74,73.65z"/>
<path fill="#AEDA8C" d="M242.42,75c5.641-0.95,11.391-0.61,17.08-0.51c0.95,10.8-0.721,21.96-6.21,31.42
	c-5.149,8.83-14.021,15.95-24.31,17.43c-7.041,1.15-14.36,1.8-21.36,0.11c-0.649-11.96,0.38-25.14,8.01-34.93
	C222.46,80.91,232.38,76.39,242.42,75z"/>
<path fill="#EE5656" d="M152.99,83.92c10.23-8.67,24.869-9.16,37.369-6.22c-0.779,12.75-6.34,26.05-17.76,32.72
	c-9.119,5.59-20.41,4.43-30.33,1.96C142.87,102.23,145.2,91.09,152.99,83.92z"/>
<path fill="#EE5656" d="M199.71,83.57c3.71-2.85,8.97-2.77,13.14-1.01c-1.18,3.57-2.649,7.37-5.99,9.48
	c-3.379,2.45-7.819,1.56-11.459,0.27C196.5,89.27,197.09,85.73,199.71,83.57z"/>
<path fill="#89B0E8" d="M70.19,94.09c1.12-4.02,4.3-7,7.82-9.02c1.67,2.75,3.59,5.61,3.61,8.96c0.48,5.02-3.34,10.15-8.32,11
	C71.5,101.73,68.7,98.04,70.19,94.09z"/>
<path fill="#EE5656" d="M86.69,97.97c-0.87-2.7-0.06-5.5,1.14-7.95c1.96,1.39,4.31,2.66,5.18,5.06c1.02,2.19-0.45,4.5-0.87,6.66
	C89.94,101.17,87.9,99.93,86.69,97.97z"/>
<path fill="#89B0E8" d="M5.26,96.63c11.12-2.87,24.21-0.74,32.39,7.79c6.25,6.23,7.68,15.56,7.97,24
	c-8.91,1.82-19.28,2.68-27.16-2.75C9.48,119.03,5.35,107.5,5.26,96.63z"/>
<path fill="#89B0E8" d="M39.97,99.53c4.93-1.07,9.73,3.03,8.82,8.16c-2.12-0.17-4.68,0.49-6.33-1.22
	C40.28,104.84,40.36,101.94,39.97,99.53z"/>
<path fill="#AEDA8C" d="M259.561,107.43c-0.961-2.93,0.699-5.98,3.489-7.12c2.46-1.41,5.181-0.07,7.671,0.53
	c-0.98,2.15-2.08,4.38-4.141,5.69C264.609,108.16,261.88,107.24,259.561,107.43z"/>
<path fill="#AEDA8C" d="M190.51,104.66c2.61-0.51,5.82-0.85,8.1,0.83c0.951,2.2-1.409,3.87-3,4.94
	c-2.359,1.83-5.549,0.94-7.869-0.44C186.33,107.8,189.01,105.9,190.51,104.66z"/>
<path fill="#FFFFFF" d="M232.92,107.39"/>
<path fill="#FFFFFF" d="M249.01,104.3c0.27,1.04,0.54,2.09,0.82,3.14"/>
<path fill="#FFFFFF" d="M233.77,107.21"/>
<path fill="#89B0E8" d="M52.57,108.39c14.02-0.45,29.19,6.31,35.49,19.39c3.2,5.9,2.69,12.79,2.53,19.27
	c-0.05,2.56-0.61,5.08-1.2,7.56c-10.11-0.06-21.2-2.03-28.74-9.3C51.65,135.52,49.99,120.98,52.57,108.39z"/>
<path fill="#AEDA8C" d="M240.279,126.31c5.23-7.19,12.49-14.05,21.791-14.81c10.77-1.27,21.22,3.17,29.93,9.15v4.94
	c-5.609,8.68-13.96,16.13-24.25,18.46c-6.07,1.16-12.7,1.08-18.25-1.96c-4.62-2.35-9.689-4.3-13.279-8.18
	C236.74,131.02,238.66,128.67,240.279,126.31z"/>
<path fill="#89B0E8" d="M90.5,113.01c5.62-0.12,8.34,7.75,3.79,11.14c-1.68-1.54-3.88-2.82-4.65-5.1
	C89.24,116.99,90.09,114.99,90.5,113.01z"/>
<path fill="#EE5656" d="M156.04,123.96c5.739-8.78,16.95-12.05,26.96-11.54c6.09,0.45,12.26,1.57,17.83,4.19
	c-2.641,12.96-10.84,25.73-23.79,30.19c-9.431,3.72-19.511,0.27-28.62-2.72C148.891,136.83,152.08,129.95,156.04,123.96z"/>
<path fill="#89B0E8" d="M2.52,125.47c-2.22-1.82-1.14-5.02-1.14-7.479c2.55,0.94,5.83,1.6,7.03,4.39c0.28,1.45,0.31,2.93,0.42,4.39
	C6.74,126.47,4.15,127.16,2.52,125.47z"/>
<path fill="#EE5656" d="M108.74,123.77c2-2.98,5.44-4.4,8.61-5.76c1.66,3.36,1.78,7.271,1.04,10.88c-1.49,4.03-5.65,6.26-9.65,7.08
	C107.41,132.16,106.08,127.31,108.74,123.77z"/>
<path fill="#EE5656" d="M133.27,126.78c1.5-3.01,3.86-6.15,7.36-6.811c3.07,4.34,4.75,11.01,0.63,15.25
	c-1.42,1.26-2.89,3.35-4.89,3.39C133.45,135.6,131.3,130.85,133.27,126.78z"/>
<path fill="#523F31" d="M95.44,173.98c-0.51-16.96-0.37-34.16,3.6-50.74c2.32,6.69,1.28,13.88,2.17,20.8
	c0.23,12.73,1.65,25.49,4.88,37.83c5.91,22.62,18.18,43.02,23.81,65.71c0.3-0.02,0.88-0.061,1.17-0.08
	c5.12-13.66,13.96-25.64,18.43-39.59c3.08-8.94,3.641-18.61,2.33-27.94c-0.92-7.42-2.189-14.82-4.58-21.92
	c4.029,4.7,6.74,10.36,8.74,16.18c3.63,11.15,4.779,23.17,2.869,34.76c-2.539,14.19-11.08,26.13-16.54,39.22
	c-3.98,9.431-7.12,19.47-7.01,29.81c-0.19,16.65,0.46,33.32-0.18,49.98c-0.9,9.29-0.24,18.67-1.21,27.96
	c-2.02,42.12-5.96,84.15-10.81,126.04H92.06c0.95-5.38,2.35-10.65,3.51-15.98c8.32-36.779,14.43-74.08,17.95-111.64
	c1.54-16.09,2.97-32.2,3.9-48.351c0.38-8.079-0.54-16.119-1.04-24.17c-1.6-11.609-5.11-22.92-9.7-33.67
	c-4.1-9.709-10.42-18.659-18.94-24.959c-6.7-4.59-14.28-7.79-21.97-10.31c-0.19-0.36-0.55-1.09-0.74-1.46
	c7.97,0.32,16.06,1.72,23.17,5.49c8.8,4.16,15.81,11.05,22.13,18.28C104.2,215.15,96.69,195.13,95.44,173.98z"/>
<path fill="#AEDA8C" d="M218.439,131.39c2.891-2.42,6.811-2.01,10.32-2.03c0.25,4.11-0.82,8.5-4.24,11.1
	c-2.729,2.59-6.68,2.15-10.119,2.1C214.09,138.52,214.67,133.73,218.439,131.39z"/>
<path fill="#EE5656" d="M122.32,132.25c0.57-0.92,1.35-1.19,2.34-0.81c8.92,5.8,15.98,15.02,17.88,25.61
	c0.42,5.61,0.78,11.6-1.8,16.79c-2.73,6.04-6.87,11.39-11.61,15.99c-8.79-6.25-17.83-14.51-19.25-25.8
	C108.88,152.19,114.6,140.87,122.32,132.25z"/>
<path fill="#89B0E8" d="M2.3,134.42c9.24-4.09,20.46-4.08,29.29,1.06c8.41,4.86,12.49,14.72,13.25,24.03
	c-8.58,2.95-18.82,5.1-27.03,0C8.88,154.21,4.63,144.09,2.3,134.42z"/>
<path fill="#AEDA8C" d="M196.87,136.08c4.159-1.53,8.31,0.71,11.93,2.56c-1.97,3.82-5.149,7.88-9.819,8.05
	c-3.181,0.47-6.16-0.79-8.92-2.19C190.51,140.69,193.48,137.58,196.87,136.08z"/>
<path fill="#89B0E8" d="M42.28,136.47c3.02,0.03,6.41-0.64,9.02,1.29c2.78,1.57,3.45,4.92,4.54,7.65c-2.84,1.19-6.31,1.77-9.05,0
	C43.71,143.58,42.21,139.96,42.28,136.47z"/>
<path fill="#AEDA8C" d="M214.04,151.21c8.729-5.44,19.19-9.86,29.64-7.57c10.641,2.87,18.74,11.37,23.791,20.86
	c0.819,1.9,2.659,3.83,1.989,6.03c-8.739,5.61-19.62,8.5-29.94,6.39c-5.649-1.37-11.24-3.93-15.189-8.31
	C219.65,163.68,216.38,157.55,214.04,151.21z"/>
<path fill="#AEDA8C" d="M264.29,147.59c4.069-3.06,10.94-0.67,11.37,4.58c-3.27,1.26-7.391,2.31-10.12-0.64
	C264.71,150.53,262.3,148.63,264.29,147.59z"/>
<path fill="#EE5656" d="M148.529,148.16c6.031-0.68,11.131,5.9,8.4,11.48c-2.83,0.27-5.89-0.91-7.4-3.4
	C147.939,153.85,148.59,150.85,148.529,148.16z"/>
<path fill="#AEDA8C" d="M177.333,180.438c-5.85-3.89-11.724-8.087-15.763-13.917c-1.051-1.33,0.64-2.57,1.39-3.52
	c6.54-6.45,14.59-12.44,24.06-13.14c13.201-0.03,24.86,8.21,32.91,18.1c-9.66,11.58-26.617,19.082-41.14,13"/>
<path fill="#89B0E8" d="M51.27,154.5c3.68-0.04,7.88,0.79,10.1,4.03c1.55,2.04,1.16,4.7,1.3,7.09c-2.86-0.08-6.2,0.35-8.37-1.95
	C51.63,161.42,51.2,157.78,51.27,154.5z"/>
<path fill="#89B0E8" d="M0,158.63c2.18-0.06,4.38-0.34,6.55,0.04c2,0.68,3.39,2.48,4.23,4.35c-0.92,1.68-3.05,2.06-4.77,2.33
	c-2.62,0.03-4.44-2.21-6.01-4V158.63z"/>
<path fill="#89B0E8" d="M77.17,160.36c3.25,0.04,6.88-0.49,9.65,1.63c3.78,2.3,5.82,7.14,4.49,11.4c-4.01,0.74-8.8,0.21-11.38-3.33
	C77.43,167.45,77.21,163.77,77.17,160.36z"/>
<path fill="#89B0E8" d="M28.56,167.65c3.51-2.57,7.99-0.99,11.37,0.97c-0.77,3.6-4.21,6.47-7.89,6.59c-2.36-0.36-4.73-1.14-6.64-2.6
	C24.52,170.4,27.07,168.8,28.56,167.65z"/>
<path fill="#89B0E8" d="M89.46,196.1c-6.251,2.608-15.76,5.07-23.6,2.48c-10.59-3.94-17.53-14.19-20.47-24.72
	c-1.09-2.48,2.14-2.87,3.72-3.62c10.26-3.521,22.88-3.15,31.47,4.15c3.47,3.09,6.42,6.938,8.003,11.36
	c1.083,2.667,2.126,6.33,2.917,9.5"/>
<path fill="#AEDA8C" d="M161.359,175.34c3.15-0.14,6.681-0.21,9.17,2.08c3.721,2.86,4.141,7.88,3.99,12.21
	c-4.31,0.4-8.85-1.12-11.529-4.63C160.641,182.34,161.471,178.56,161.359,175.34z"/>
<path fill="#89B0E8" d="M2.13,189.31c6.92-6.45,16.17-11.01,25.85-9.97c10.29,0.32,17.75,8.62,22.96,16.66
	c-6.75,6.12-15.31,11.98-24.9,10.6C15.8,205.17,7.68,197.61,2.13,189.31z"/>
<path fill="#AEDA8C" d="M202.2,187.44c8.35-5.05,17.78-10.02,27.86-8.81c10.279,1.95,18.939,9.08,24.449,17.78
	c1.471,2.57,3.78,4.96,4.08,8.01c-7.09,5.14-15.74,8.41-24.57,8.27c-9.51,0.26-19.08-4.29-24.619-12.07
	C206.561,196.51,203.471,192.34,202.2,187.44z"/>
<path fill="#EE5656" d="M137.94,185.98c2.35-2.73,5.72-5.03,9.5-4.6c0.221,3.2,0.73,6.48-0.01,9.65c-1.45,4.31-6.14,7.27-10.66,6.57
	C136.58,193.79,134.99,189.13,137.94,185.98z"/>
<path fill="#AEDA8C" d="M251.42,181.56c3.45-0.44,7.54-0.94,10.41,1.48c2.38,1.78,3.79,4.54,4.13,7.47
	c-2.88,1.04-5.87,2.54-9.021,1.92c-3.799-1.17-6.84-4.26-8.42-7.85C247.49,182.68,250.04,181.89,251.42,181.56z"/>
<path fill="#AEDA8C" d="M190.79,230.2c-2.04-1.242-2.59-1.26-3.69-2.3c-5.439-3.83-9.949-9.25-11.729-15.75
	c-1.64-5.65-2.21-11.56-1.95-17.42c9.561-2.01,20.23-1.9,28.891,3.09c11.319,7.56,15.699,21.74,16.09,34.74
	c-1.4,1.38-3.61,0.85-5.371,1.26c-6.869,1.14-13.789-0.47-20.26-2.73"/>
<path fill="#EE5656" d="M118.58,193.4c5.65-0.02,11.85,3.52,12.69,9.5c-0.02,1.85,0.68,4.28-0.69,5.76
	c-4.07,0.68-8.77-0.98-10.73-4.8C117.9,200.73,118.49,196.89,118.58,193.4z"/>
<path fill="#AEDA8C" d="M161.87,201.79c1.46-3.55,5.08-5.36,8.37-6.85c1.9,3.28,3.32,7.3,1.83,11.03
	c-1.771,3.68-5.381,6.62-9.541,6.93C161.34,209.35,160.77,205.43,161.87,201.79z"/>
<path fill="#89B0E8" d="M86.64,202.52c3.1,0.3,6.44,0.72,8.87,2.86c3.49,2.58,4.57,7.56,3.04,11.52c-3.17-0.45-6.85-0.55-9.1-3.21
	C86.53,210.75,86.4,206.39,86.64,202.52z"/>
<path fill="#89B0E8" d="M45.26,212.05c2.53-2.83,5.86-5.24,9.78-5.45c3.47,0.13,6.16,2.59,8.75,4.61c-2.34,2.52-4.92,5.8-8.78,5.5
	C51.13,217.03,48.02,214.4,45.26,212.05z"/>
<path fill="#AEDA8C" d="M220.35,215.5c4.49-0.12,9.2,1.74,11.66,5.64c1.85,2.8,1.4,6.28,1.4,9.45c-3.939,0.07-8.52-0.63-10.98-4.08
	C219.87,223.43,220.38,219.22,220.35,215.5z"/>
<path fill="#AEDA8C" d="M235.359,216.54c2.351,0.1,5.031-0.44,7.041,1.14c2.27,1.58,2.93,4.41,3.49,6.95
	c-2.711-0.09-5.99,0.78-8.101-1.42C235.721,221.63,235.42,218.95,235.359,216.54z"/>
<path fill="#89B0E8" d="M26.18,223.3c3.02-2.81,6.38-6.06,10.81-5.99c4.38-0.55,7.87,2.53,10.72,5.42c-2.17,2.01-4.15,4.4-6.9,5.64
	C35.37,230.08,29.66,227.56,26.18,223.3z"/>
<path fill="#AEDA8C" d="M161.471,219.39c0.27-1.31,1.819-0.5,2.609-0.38c9.24,2.9,19.05,7.34,24.05,16.12
	c5.86,11.49,3.75,25.13-0.84,36.67c-10.09-1.5-19.45-7.42-25.46-15.63c-1.01-1.23-2.496-2.003-2.83-3.795
	c-2.054-3.966-1.54-5.675-2.27-8.415C155.37,235.53,157.971,226.99,161.471,219.39z"/>
<path fill="#89B0E8" d="M44.11,236.17c6.1-8.76,15.88-15.87,26.95-15.56c8.64,0.23,15.66,5.91,21.75,11.45
	c-4.37,6.45-10.11,12.53-17.62,15.17C63.68,249.91,52.02,244.32,44.11,236.17z"/>
<path fill="#AEDA8C" d="M208.859,238.54c2.25-1,4.74-1.6,7.201-1.07c3.16,1.34,5.42,4.53,5.619,7.96
	c-3.24-0.02-7.24,1.25-9.77-1.439C210.29,242.58,209.721,240.42,208.859,238.54z"/>
<path fill="#AEDA8C" d="M150.51,241.27c2.35,2.69,4.45,5.96,4.16,9.7c0.4,4.55-3.41,7.7-6.73,10.07c-2.339-3.14-5.41-6.931-4-11.101
	C144.88,246.27,147.811,243.7,150.51,241.27z"/>
<path fill="#AEDA8C" d="M193.26,241.36c3.23,0.06,6.86-0.48,9.59,1.67c3.67,2.22,5.801,7.09,4.44,11.18
	c-3.46,1.07-7.8,0.54-10.44-2.16C193.93,249.311,193.24,245.189,193.26,241.36z"/>
<path fill="#89B0E8" d="M34.92,250.01c2.26-2.34,4.68-4.859,7.96-5.65c4.78-1.779,10.04,1.031,12.92,4.82
	c-0.52,2.721-3.64,4.32-5.88,5.711C44.44,257.37,38.76,253.78,34.92,250.01z"/>
</svg>
