<svg width="343" height="200" viewBox="0 0 343 200" fill="none" xmlns="http://www.w3.org/2000/svg">
    <rect x="2" y="2" width="339" height="196" rx="14" fill="white"/>
    <rect x="2" y="2" width="339" height="196" rx="14" fill="url(#paint0_linear_6_5969)" fill-opacity="0.1"/>
    <rect x="2" y="2" width="339" height="196" rx="14" stroke="url(#paint1_linear_6_5969)" stroke-width="4"/>
    <path d="M191.5 83.8V88.38C191.5 95.66 187.16 100 179.88 100H163.12C158.02 100 154.34 97.86 152.62 94.06L152.84 93.9L162.68 87.3C164.28 86.22 166.54 86.34 167.96 87.58L168.64 88.14C170.2 89.48 172.72 89.48 174.28 88.14L182.6 81C184.16 79.66 186.68 79.66 188.24 81L191.5 83.8Z" fill="url(#paint2_linear_6_5969)"/>
    <path opacity="0.4" d="M189.44 72H183.56C181.02 72 179.5 70.48 179.5 67.94V62.06C179.5 61.26 179.66 60.58 179.94 60C179.92 60 179.9 60 179.88 60H163.12C155.84 60 151.5 64.34 151.5 71.62V88.38C151.5 90.56 151.88 92.46 152.62 94.06L152.84 93.9L162.68 87.3C164.28 86.22 166.54 86.34 167.96 87.58L168.64 88.14C170.2 89.48 172.72 89.48 174.28 88.14L182.6 81C184.16 79.66 186.68 79.66 188.24 81L191.5 83.8V71.62C191.5 71.6 191.5 71.58 191.5 71.56C190.92 71.84 190.24 72 189.44 72Z" fill="url(#paint3_linear_6_5969)"/>
    <path d="M165.5 76.76C168.129 76.76 170.26 74.6289 170.26 72C170.26 69.3711 168.129 67.24 165.5 67.24C162.871 67.24 160.74 69.3711 160.74 72C160.74 74.6289 162.871 76.76 165.5 76.76Z" fill="url(#paint4_linear_6_5969)"/>
    <path d="M189.44 58H183.56C181.02 58 179.5 59.52 179.5 62.06V67.94C179.5 70.48 181.02 72 183.56 72H189.44C191.98 72 193.5 70.48 193.5 67.94V62.06C193.5 59.52 191.98 58 189.44 58ZM191.32 65.86C191.12 66.06 190.82 66.2 190.5 66.22H187.68L187.7 69C187.68 69.34 187.56 69.62 187.32 69.86C187.12 70.06 186.82 70.2 186.5 70.2C185.84 70.2 185.3 69.66 185.3 69V66.2L182.5 66.22C181.84 66.22 181.3 65.66 181.3 65C181.3 64.34 181.84 63.8 182.5 63.8L185.3 63.82V61.02C185.3 60.36 185.84 59.8 186.5 59.8C187.16 59.8 187.7 60.36 187.7 61.02L187.68 63.8H190.5C191.16 63.8 191.7 64.34 191.7 65C191.68 65.34 191.54 65.62 191.32 65.86Z" fill="url(#paint5_linear_6_5969)"/>
    <path d="M119 120.749L116.293 129H114.112L117.811 119.047H119.198L119 120.749ZM121.249 129L118.535 120.749L118.316 119.047H119.718L123.437 129H121.249ZM121.126 125.295V126.901H115.869V125.295H121.126ZM128.604 127.387V118.5H130.587V129H128.803L128.604 127.387ZM123.929 125.391V125.247C123.929 124.682 123.993 124.169 124.12 123.709C124.248 123.244 124.435 122.845 124.681 122.513C124.927 122.18 125.23 121.923 125.59 121.74C125.95 121.558 126.36 121.467 126.82 121.467C127.253 121.467 127.632 121.558 127.955 121.74C128.283 121.923 128.561 122.182 128.789 122.52C129.021 122.852 129.208 123.246 129.35 123.702C129.491 124.153 129.593 124.648 129.657 125.186V125.5C129.593 126.015 129.491 126.493 129.35 126.936C129.208 127.378 129.021 127.765 128.789 128.098C128.561 128.426 128.283 128.681 127.955 128.863C127.627 129.046 127.244 129.137 126.807 129.137C126.346 129.137 125.936 129.043 125.576 128.856C125.221 128.67 124.92 128.408 124.674 128.07C124.432 127.733 124.248 127.337 124.12 126.881C123.993 126.425 123.929 125.928 123.929 125.391ZM125.897 125.247V125.391C125.897 125.696 125.92 125.981 125.966 126.245C126.016 126.509 126.096 126.744 126.205 126.949C126.319 127.15 126.465 127.307 126.643 127.421C126.825 127.53 127.046 127.585 127.306 127.585C127.643 127.585 127.921 127.51 128.14 127.359C128.358 127.204 128.525 126.993 128.639 126.724C128.757 126.455 128.826 126.145 128.844 125.794V124.898C128.83 124.611 128.789 124.354 128.721 124.126C128.657 123.894 128.561 123.695 128.434 123.531C128.311 123.367 128.156 123.24 127.969 123.148C127.786 123.057 127.57 123.012 127.319 123.012C127.064 123.012 126.845 123.071 126.663 123.189C126.481 123.303 126.333 123.461 126.219 123.661C126.109 123.862 126.027 124.099 125.973 124.372C125.923 124.641 125.897 124.933 125.897 125.247ZM134.203 121.604V129H132.228V121.604H134.203ZM132.104 119.676C132.104 119.389 132.205 119.152 132.405 118.965C132.606 118.778 132.875 118.685 133.212 118.685C133.545 118.685 133.811 118.778 134.012 118.965C134.217 119.152 134.319 119.389 134.319 119.676C134.319 119.963 134.217 120.2 134.012 120.387C133.811 120.574 133.545 120.667 133.212 120.667C132.875 120.667 132.606 120.574 132.405 120.387C132.205 120.2 132.104 119.963 132.104 119.676ZM138.886 127.599C139.127 127.599 139.341 127.553 139.528 127.462C139.715 127.366 139.861 127.234 139.966 127.065C140.075 126.892 140.132 126.689 140.137 126.457H141.989C141.985 126.977 141.846 127.439 141.572 127.845C141.299 128.246 140.932 128.562 140.472 128.795C140.011 129.023 139.496 129.137 138.927 129.137C138.353 129.137 137.851 129.041 137.423 128.85C136.999 128.658 136.646 128.394 136.363 128.057C136.081 127.715 135.869 127.318 135.728 126.867C135.586 126.411 135.516 125.924 135.516 125.404V125.206C135.516 124.682 135.586 124.194 135.728 123.743C135.869 123.287 136.081 122.891 136.363 122.554C136.646 122.212 136.999 121.945 137.423 121.754C137.847 121.562 138.343 121.467 138.913 121.467C139.519 121.467 140.05 121.583 140.506 121.815C140.966 122.048 141.326 122.381 141.586 122.813C141.85 123.242 141.985 123.75 141.989 124.338H140.137C140.132 124.092 140.08 123.868 139.979 123.668C139.884 123.467 139.743 123.308 139.556 123.189C139.373 123.066 139.148 123.005 138.879 123.005C138.592 123.005 138.357 123.066 138.175 123.189C137.993 123.308 137.851 123.472 137.751 123.682C137.651 123.887 137.58 124.121 137.539 124.386C137.503 124.646 137.484 124.919 137.484 125.206V125.404C137.484 125.691 137.503 125.967 137.539 126.231C137.576 126.496 137.644 126.73 137.744 126.936C137.849 127.141 137.993 127.302 138.175 127.421C138.357 127.539 138.594 127.599 138.886 127.599ZM145.209 121.604V129H143.233V121.604H145.209ZM143.11 119.676C143.11 119.389 143.211 119.152 143.411 118.965C143.612 118.778 143.881 118.685 144.218 118.685C144.55 118.685 144.817 118.778 145.018 118.965C145.223 119.152 145.325 119.389 145.325 119.676C145.325 119.963 145.223 120.2 145.018 120.387C144.817 120.574 144.55 120.667 144.218 120.667C143.881 120.667 143.612 120.574 143.411 120.387C143.211 120.2 143.11 119.963 143.11 119.676ZM146.521 125.377V125.233C146.521 124.691 146.599 124.192 146.754 123.736C146.909 123.276 147.134 122.877 147.431 122.54C147.727 122.203 148.091 121.941 148.524 121.754C148.957 121.562 149.454 121.467 150.015 121.467C150.575 121.467 151.074 121.562 151.512 121.754C151.949 121.941 152.316 122.203 152.612 122.54C152.913 122.877 153.141 123.276 153.296 123.736C153.451 124.192 153.528 124.691 153.528 125.233V125.377C153.528 125.915 153.451 126.414 153.296 126.874C153.141 127.33 152.913 127.729 152.612 128.07C152.316 128.408 151.951 128.67 151.519 128.856C151.086 129.043 150.589 129.137 150.028 129.137C149.468 129.137 148.969 129.043 148.531 128.856C148.098 128.67 147.731 128.408 147.431 128.07C147.134 127.729 146.909 127.33 146.754 126.874C146.599 126.414 146.521 125.915 146.521 125.377ZM148.49 125.233V125.377C148.49 125.687 148.518 125.976 148.572 126.245C148.627 126.514 148.714 126.751 148.832 126.956C148.955 127.157 149.115 127.314 149.311 127.428C149.507 127.542 149.746 127.599 150.028 127.599C150.302 127.599 150.536 127.542 150.732 127.428C150.928 127.314 151.086 127.157 151.204 126.956C151.323 126.751 151.409 126.514 151.464 126.245C151.523 125.976 151.553 125.687 151.553 125.377V125.233C151.553 124.933 151.523 124.65 151.464 124.386C151.409 124.117 151.32 123.88 151.197 123.675C151.079 123.465 150.922 123.301 150.726 123.183C150.53 123.064 150.293 123.005 150.015 123.005C149.737 123.005 149.5 123.064 149.304 123.183C149.112 123.301 148.955 123.465 148.832 123.675C148.714 123.88 148.627 124.117 148.572 124.386C148.518 124.65 148.49 124.933 148.49 125.233ZM156.666 123.183V129H154.697V121.604H156.543L156.666 123.183ZM156.379 125.042H155.846C155.846 124.495 155.916 124.003 156.058 123.565C156.199 123.123 156.397 122.747 156.652 122.438C156.908 122.123 157.211 121.884 157.562 121.72C157.917 121.551 158.313 121.467 158.751 121.467C159.097 121.467 159.414 121.517 159.701 121.617C159.988 121.717 160.234 121.877 160.439 122.096C160.649 122.314 160.809 122.604 160.918 122.964C161.032 123.324 161.089 123.764 161.089 124.283V129H159.106V124.276C159.106 123.948 159.061 123.693 158.97 123.511C158.879 123.328 158.744 123.201 158.566 123.128C158.393 123.05 158.179 123.012 157.924 123.012C157.66 123.012 157.429 123.064 157.233 123.169C157.042 123.274 156.882 123.42 156.755 123.606C156.632 123.789 156.538 124.003 156.475 124.249C156.411 124.495 156.379 124.759 156.379 125.042ZM166.578 127.332V124.037C166.578 123.8 166.539 123.597 166.462 123.429C166.384 123.256 166.264 123.121 166.1 123.025C165.94 122.93 165.733 122.882 165.478 122.882C165.259 122.882 165.07 122.921 164.91 122.998C164.751 123.071 164.628 123.178 164.541 123.319C164.454 123.456 164.411 123.618 164.411 123.805H162.442C162.442 123.49 162.515 123.192 162.661 122.909C162.807 122.627 163.019 122.378 163.297 122.164C163.575 121.945 163.905 121.774 164.288 121.651C164.675 121.528 165.108 121.467 165.587 121.467C166.161 121.467 166.672 121.562 167.118 121.754C167.565 121.945 167.916 122.232 168.171 122.615C168.431 122.998 168.561 123.477 168.561 124.051V127.216C168.561 127.621 168.586 127.954 168.636 128.214C168.686 128.469 168.759 128.692 168.854 128.884V129H166.865C166.77 128.799 166.697 128.549 166.646 128.248C166.601 127.943 166.578 127.637 166.578 127.332ZM166.838 124.495L166.852 125.609H165.751C165.491 125.609 165.266 125.639 165.074 125.698C164.883 125.757 164.726 125.842 164.603 125.951C164.479 126.056 164.388 126.179 164.329 126.32C164.274 126.462 164.247 126.617 164.247 126.785C164.247 126.954 164.286 127.106 164.363 127.243C164.441 127.375 164.552 127.48 164.698 127.558C164.844 127.631 165.015 127.667 165.211 127.667C165.507 127.667 165.765 127.608 165.983 127.489C166.202 127.371 166.371 127.225 166.489 127.052C166.612 126.879 166.676 126.715 166.681 126.56L167.2 127.394C167.127 127.58 167.027 127.774 166.899 127.975C166.776 128.175 166.619 128.364 166.428 128.542C166.236 128.715 166.006 128.859 165.737 128.973C165.468 129.082 165.149 129.137 164.78 129.137C164.311 129.137 163.885 129.043 163.502 128.856C163.124 128.665 162.823 128.403 162.6 128.07C162.381 127.733 162.271 127.35 162.271 126.922C162.271 126.535 162.344 126.19 162.49 125.89C162.636 125.589 162.85 125.336 163.133 125.131C163.42 124.921 163.778 124.764 164.206 124.659C164.634 124.55 165.131 124.495 165.696 124.495H166.838ZM172.047 123.217V129H170.078V121.604H171.931L172.047 123.217ZM174.275 121.556L174.241 123.381C174.146 123.367 174.029 123.356 173.893 123.347C173.76 123.333 173.64 123.326 173.53 123.326C173.252 123.326 173.011 123.363 172.806 123.436C172.605 123.504 172.437 123.606 172.3 123.743C172.168 123.88 172.067 124.046 171.999 124.242C171.935 124.438 171.899 124.661 171.89 124.912L171.493 124.789C171.493 124.311 171.541 123.871 171.637 123.47C171.732 123.064 171.871 122.711 172.054 122.41C172.241 122.109 172.468 121.877 172.737 121.713C173.006 121.549 173.314 121.467 173.66 121.467C173.77 121.467 173.881 121.476 173.995 121.494C174.109 121.508 174.202 121.528 174.275 121.556ZM180.77 121.604V129H178.794V121.604H180.77ZM178.671 119.676C178.671 119.389 178.771 119.152 178.972 118.965C179.172 118.778 179.441 118.685 179.778 118.685C180.111 118.685 180.378 118.778 180.578 118.965C180.783 119.152 180.886 119.389 180.886 119.676C180.886 119.963 180.783 120.2 180.578 120.387C180.378 120.574 180.111 120.667 179.778 120.667C179.441 120.667 179.172 120.574 178.972 120.387C178.771 120.2 178.671 119.963 178.671 119.676ZM184.365 123.135V129H182.39V121.604H184.242L184.365 123.135ZM184.092 125.042H183.545C183.545 124.527 183.606 124.053 183.729 123.62C183.857 123.183 184.042 122.804 184.283 122.485C184.529 122.162 184.832 121.911 185.192 121.733C185.552 121.556 185.969 121.467 186.443 121.467C186.771 121.467 187.072 121.517 187.346 121.617C187.619 121.713 187.854 121.866 188.05 122.075C188.25 122.28 188.405 122.549 188.515 122.882C188.624 123.21 188.679 123.604 188.679 124.064V129H186.71V124.283C186.71 123.946 186.664 123.686 186.573 123.504C186.482 123.322 186.352 123.194 186.184 123.121C186.02 123.048 185.821 123.012 185.589 123.012C185.334 123.012 185.11 123.064 184.919 123.169C184.732 123.274 184.577 123.42 184.454 123.606C184.331 123.789 184.24 124.003 184.181 124.249C184.121 124.495 184.092 124.759 184.092 125.042ZM188.494 124.816L187.79 124.905C187.79 124.422 187.849 123.973 187.968 123.559C188.091 123.144 188.271 122.779 188.508 122.465C188.749 122.15 189.048 121.907 189.403 121.733C189.759 121.556 190.169 121.467 190.634 121.467C190.989 121.467 191.313 121.519 191.604 121.624C191.896 121.724 192.145 121.886 192.35 122.109C192.559 122.328 192.719 122.615 192.828 122.971C192.942 123.326 192.999 123.761 192.999 124.276V129H191.023V124.276C191.023 123.935 190.978 123.675 190.887 123.497C190.8 123.315 190.673 123.189 190.504 123.121C190.34 123.048 190.144 123.012 189.916 123.012C189.679 123.012 189.472 123.06 189.294 123.155C189.116 123.246 188.968 123.374 188.85 123.538C188.731 123.702 188.642 123.894 188.583 124.112C188.524 124.326 188.494 124.561 188.494 124.816ZM198.516 127.332V124.037C198.516 123.8 198.477 123.597 198.399 123.429C198.322 123.256 198.201 123.121 198.037 123.025C197.878 122.93 197.67 122.882 197.415 122.882C197.196 122.882 197.007 122.921 196.848 122.998C196.688 123.071 196.565 123.178 196.479 123.319C196.392 123.456 196.349 123.618 196.349 123.805H194.38C194.38 123.49 194.453 123.192 194.599 122.909C194.744 122.627 194.956 122.378 195.234 122.164C195.512 121.945 195.843 121.774 196.226 121.651C196.613 121.528 197.046 121.467 197.524 121.467C198.099 121.467 198.609 121.562 199.056 121.754C199.502 121.945 199.853 122.232 200.108 122.615C200.368 122.998 200.498 123.477 200.498 124.051V127.216C200.498 127.621 200.523 127.954 200.573 128.214C200.623 128.469 200.696 128.692 200.792 128.884V129H198.803C198.707 128.799 198.634 128.549 198.584 128.248C198.538 127.943 198.516 127.637 198.516 127.332ZM198.775 124.495L198.789 125.609H197.688C197.429 125.609 197.203 125.639 197.012 125.698C196.82 125.757 196.663 125.842 196.54 125.951C196.417 126.056 196.326 126.179 196.267 126.32C196.212 126.462 196.185 126.617 196.185 126.785C196.185 126.954 196.223 127.106 196.301 127.243C196.378 127.375 196.49 127.48 196.636 127.558C196.782 127.631 196.952 127.667 197.148 127.667C197.445 127.667 197.702 127.608 197.921 127.489C198.14 127.371 198.308 127.225 198.427 127.052C198.55 126.879 198.614 126.715 198.618 126.56L199.138 127.394C199.065 127.58 198.965 127.774 198.837 127.975C198.714 128.175 198.557 128.364 198.365 128.542C198.174 128.715 197.944 128.859 197.675 128.973C197.406 129.082 197.087 129.137 196.718 129.137C196.248 129.137 195.822 129.043 195.439 128.856C195.061 128.665 194.76 128.403 194.537 128.07C194.318 127.733 194.209 127.35 194.209 126.922C194.209 126.535 194.282 126.19 194.428 125.89C194.574 125.589 194.788 125.336 195.07 125.131C195.357 124.921 195.715 124.764 196.144 124.659C196.572 124.55 197.069 124.495 197.634 124.495H198.775ZM206.698 121.604H208.482V128.754C208.482 129.428 208.332 130 208.031 130.47C207.735 130.944 207.32 131.301 206.787 131.543C206.254 131.789 205.634 131.912 204.928 131.912C204.618 131.912 204.29 131.871 203.943 131.789C203.602 131.707 203.273 131.579 202.959 131.406C202.649 131.233 202.389 131.014 202.18 130.75L203.048 129.588C203.276 129.852 203.54 130.057 203.841 130.203C204.142 130.354 204.474 130.429 204.839 130.429C205.194 130.429 205.495 130.363 205.741 130.23C205.987 130.103 206.176 129.914 206.309 129.663C206.441 129.417 206.507 129.118 206.507 128.768V123.312L206.698 121.604ZM201.722 125.391V125.247C201.722 124.682 201.79 124.169 201.927 123.709C202.068 123.244 202.266 122.845 202.521 122.513C202.781 122.18 203.096 121.923 203.465 121.74C203.834 121.558 204.251 121.467 204.716 121.467C205.208 121.467 205.62 121.558 205.953 121.74C206.286 121.923 206.559 122.182 206.773 122.52C206.988 122.852 207.154 123.246 207.272 123.702C207.396 124.153 207.491 124.648 207.56 125.186V125.5C207.491 126.015 207.389 126.493 207.252 126.936C207.115 127.378 206.935 127.765 206.712 128.098C206.489 128.426 206.211 128.681 205.878 128.863C205.55 129.046 205.158 129.137 204.702 129.137C204.246 129.137 203.834 129.043 203.465 128.856C203.1 128.67 202.788 128.408 202.528 128.07C202.269 127.733 202.068 127.337 201.927 126.881C201.79 126.425 201.722 125.928 201.722 125.391ZM203.69 125.247V125.391C203.69 125.696 203.72 125.981 203.779 126.245C203.839 126.509 203.93 126.744 204.053 126.949C204.18 127.15 204.338 127.307 204.524 127.421C204.716 127.53 204.941 127.585 205.201 127.585C205.561 127.585 205.855 127.51 206.083 127.359C206.311 127.204 206.482 126.993 206.596 126.724C206.71 126.455 206.776 126.145 206.794 125.794V124.898C206.785 124.611 206.746 124.354 206.678 124.126C206.609 123.894 206.514 123.695 206.391 123.531C206.268 123.367 206.108 123.24 205.912 123.148C205.716 123.057 205.484 123.012 205.215 123.012C204.955 123.012 204.729 123.071 204.538 123.189C204.351 123.303 204.194 123.461 204.066 123.661C203.943 123.862 203.85 124.099 203.786 124.372C203.722 124.641 203.69 124.933 203.69 125.247ZM213.418 129.137C212.844 129.137 212.329 129.046 211.873 128.863C211.417 128.676 211.03 128.419 210.711 128.091C210.396 127.763 210.155 127.382 209.986 126.949C209.818 126.512 209.733 126.047 209.733 125.555V125.281C209.733 124.721 209.813 124.208 209.973 123.743C210.132 123.278 210.36 122.875 210.656 122.533C210.957 122.191 211.322 121.929 211.75 121.747C212.178 121.56 212.661 121.467 213.199 121.467C213.723 121.467 214.188 121.553 214.594 121.727C214.999 121.9 215.339 122.146 215.612 122.465C215.89 122.784 216.1 123.167 216.241 123.613C216.382 124.055 216.453 124.548 216.453 125.09V125.91H210.574V124.598H214.519V124.447C214.519 124.174 214.468 123.93 214.368 123.716C214.272 123.497 214.127 123.324 213.931 123.196C213.735 123.069 213.484 123.005 213.179 123.005C212.919 123.005 212.696 123.062 212.509 123.176C212.322 123.29 212.169 123.449 212.051 123.654C211.937 123.859 211.85 124.101 211.791 124.379C211.736 124.652 211.709 124.953 211.709 125.281V125.555C211.709 125.851 211.75 126.124 211.832 126.375C211.919 126.626 212.039 126.842 212.194 127.024C212.354 127.207 212.545 127.348 212.769 127.448C212.996 127.549 213.254 127.599 213.541 127.599C213.896 127.599 214.227 127.53 214.532 127.394C214.842 127.252 215.109 127.04 215.332 126.758L216.289 127.797C216.134 128.02 215.922 128.234 215.653 128.439C215.389 128.645 215.07 128.813 214.696 128.945C214.323 129.073 213.896 129.137 213.418 129.137ZM219.543 123.135V129H217.567V121.604H219.42L219.543 123.135ZM219.27 125.042H218.723C218.723 124.527 218.784 124.053 218.907 123.62C219.035 123.183 219.219 122.804 219.461 122.485C219.707 122.162 220.01 121.911 220.37 121.733C220.73 121.556 221.147 121.467 221.621 121.467C221.949 121.467 222.25 121.517 222.523 121.617C222.797 121.713 223.032 121.866 223.228 122.075C223.428 122.28 223.583 122.549 223.692 122.882C223.802 123.21 223.856 123.604 223.856 124.064V129H221.888V124.283C221.888 123.946 221.842 123.686 221.751 123.504C221.66 123.322 221.53 123.194 221.361 123.121C221.197 123.048 220.999 123.012 220.767 123.012C220.511 123.012 220.288 123.064 220.097 123.169C219.91 123.274 219.755 123.42 219.632 123.606C219.509 123.789 219.418 124.003 219.358 124.249C219.299 124.495 219.27 124.759 219.27 125.042ZM223.672 124.816L222.968 124.905C222.968 124.422 223.027 123.973 223.146 123.559C223.269 123.144 223.449 122.779 223.686 122.465C223.927 122.15 224.226 121.907 224.581 121.733C224.937 121.556 225.347 121.467 225.812 121.467C226.167 121.467 226.491 121.519 226.782 121.624C227.074 121.724 227.322 121.886 227.527 122.109C227.737 122.328 227.896 122.615 228.006 122.971C228.12 123.326 228.177 123.761 228.177 124.276V129H226.201V124.276C226.201 123.935 226.156 123.675 226.064 123.497C225.978 123.315 225.85 123.189 225.682 123.121C225.518 123.048 225.322 123.012 225.094 123.012C224.857 123.012 224.649 123.06 224.472 123.155C224.294 123.246 224.146 123.374 224.027 123.538C223.909 123.702 223.82 123.894 223.761 124.112C223.701 124.326 223.672 124.561 223.672 124.816Z" fill="black"/>
    <defs>
        <linearGradient id="paint0_linear_6_5969" x1="0" y1="0" x2="365.09" y2="56.0091" gradientUnits="userSpaceOnUse">
            <stop stop-color="#8ED5A0"/>
            <stop offset="1" stop-color="#E6CC73"/>
        </linearGradient>
        <linearGradient id="paint1_linear_6_5969" x1="0" y1="0" x2="365.09" y2="56.0091" gradientUnits="userSpaceOnUse">
            <stop stop-color="#8ED5A0"/>
            <stop offset="1" stop-color="#E6CC73"/>
        </linearGradient>
        <linearGradient id="paint2_linear_6_5969" x1="152.62" y1="79.995" x2="193.735" y2="87.143" gradientUnits="userSpaceOnUse">
            <stop stop-color="#8ED5A0"/>
            <stop offset="1" stop-color="#E6CC73"/>
        </linearGradient>
        <linearGradient id="paint3_linear_6_5969" x1="151.5" y1="60" x2="194.602" y2="64.5281" gradientUnits="userSpaceOnUse">
            <stop stop-color="#8ED5A0"/>
            <stop offset="1" stop-color="#E6CC73"/>
        </linearGradient>
        <linearGradient id="paint4_linear_6_5969" x1="160.74" y1="67.24" x2="171.029" y2="68.1604" gradientUnits="userSpaceOnUse">
            <stop stop-color="#8ED5A0"/>
            <stop offset="1" stop-color="#E6CC73"/>
        </linearGradient>
        <linearGradient id="paint5_linear_6_5969" x1="179.5" y1="58" x2="194.631" y2="59.3535" gradientUnits="userSpaceOnUse">
            <stop stop-color="#8ED5A0"/>
            <stop offset="1" stop-color="#E6CC73"/>
        </linearGradient>
    </defs>
</svg>
